G04 EAGLE Gerber RS-274X export*
G75*
%MOMM*%
%FSLAX34Y34*%
%LPD*%
%INTop Copper*%
%IPPOS*%
%AMOC8*
5,1,8,0,0,1.08239X$1,22.5*%
G01*
G04 Define Apertures*
%ADD10R,0.644000X0.535100*%
%ADD11R,0.500000X1.200000*%
%ADD12R,1.200000X0.500000*%
%ADD13R,1.600200X0.838200*%
%ADD14R,1.600200X3.098800*%
%ADD15R,0.450000X1.500000*%
%ADD16C,1.100000*%
%ADD17R,0.700000X0.900000*%
%ADD18C,0.159000*%
%ADD19R,1.000000X1.100000*%
%ADD20R,0.900000X0.700000*%
%ADD21R,1.100000X0.600000*%
%ADD22R,0.911800X0.611800*%
%ADD23C,0.756400*%
%ADD24C,0.203200*%
%ADD25C,0.152400*%
%ADD26C,0.304800*%
%ADD27C,0.200000*%
G36*
X216019Y1279D02*
X215900Y1270D01*
X25400Y1270D01*
X25281Y1279D01*
X18060Y2423D01*
X17833Y2497D01*
X11319Y5816D01*
X11126Y5956D01*
X5956Y11126D01*
X5816Y11319D01*
X2497Y17833D01*
X2423Y18060D01*
X1279Y25281D01*
X1270Y25400D01*
X1270Y143551D01*
X1367Y143923D01*
X1565Y144153D01*
X1836Y144288D01*
X2139Y144305D01*
X2425Y144204D01*
X2648Y143999D01*
X3217Y143217D01*
X11014Y137552D01*
X20181Y134573D01*
X29819Y134573D01*
X32225Y135355D01*
X32424Y135391D01*
X32495Y135380D01*
X32754Y135527D01*
X38986Y137552D01*
X46783Y143217D01*
X52448Y151014D01*
X55427Y160181D01*
X55427Y169819D01*
X52448Y178986D01*
X46783Y186783D01*
X45313Y187852D01*
X45069Y188149D01*
X44999Y188444D01*
X45050Y188743D01*
X45213Y188998D01*
X45464Y189170D01*
X45761Y189230D01*
X194734Y189230D01*
X195106Y189133D01*
X195336Y188935D01*
X195471Y188664D01*
X195489Y188361D01*
X195387Y188075D01*
X195182Y187852D01*
X194004Y186996D01*
X188284Y179122D01*
X185276Y169866D01*
X185276Y160134D01*
X188284Y150878D01*
X194004Y143004D01*
X201878Y137284D01*
X211134Y134276D01*
X220866Y134276D01*
X230122Y137284D01*
X237996Y143004D01*
X238652Y143907D01*
X238949Y144151D01*
X239244Y144221D01*
X239543Y144170D01*
X239798Y144006D01*
X239970Y143756D01*
X240030Y143459D01*
X240030Y25400D01*
X240021Y25281D01*
X238877Y18060D01*
X238803Y17833D01*
X235484Y11319D01*
X235344Y11126D01*
X230174Y5956D01*
X229981Y5816D01*
X223467Y2497D01*
X223240Y2423D01*
X216019Y1279D01*
G37*
%LPC*%
G36*
X128802Y135694D02*
X133198Y135694D01*
X136461Y138957D01*
X136692Y139115D01*
X136988Y139180D01*
X137286Y139125D01*
X137539Y138957D01*
X140802Y135694D01*
X145198Y135694D01*
X148306Y138802D01*
X148306Y143198D01*
X145763Y145741D01*
X145600Y145982D01*
X145540Y146279D01*
X145540Y146729D01*
X145591Y147004D01*
X145755Y147259D01*
X146005Y147431D01*
X146302Y147491D01*
X146957Y147491D01*
X147850Y148384D01*
X147850Y150807D01*
X147897Y151070D01*
X148056Y151328D01*
X148304Y151503D01*
X148600Y151568D01*
X148898Y151513D01*
X149151Y151345D01*
X151802Y148694D01*
X156198Y148694D01*
X159306Y151802D01*
X159306Y156198D01*
X156763Y158741D01*
X156600Y158982D01*
X156540Y159279D01*
X156540Y160528D01*
X156587Y160792D01*
X156746Y161050D01*
X156994Y161225D01*
X157290Y161290D01*
X157588Y161235D01*
X157841Y161067D01*
X158448Y160460D01*
X162476Y160460D01*
X162476Y164976D01*
X156960Y164976D01*
X156960Y163472D01*
X156913Y163208D01*
X156754Y162950D01*
X156506Y162775D01*
X156210Y162710D01*
X155912Y162765D01*
X155659Y162933D01*
X152573Y166019D01*
X152410Y166261D01*
X152350Y166558D01*
X152350Y169146D01*
X151457Y170039D01*
X148612Y170039D01*
X148337Y170090D01*
X148082Y170254D01*
X147910Y170504D01*
X147850Y170801D01*
X147850Y175690D01*
X147901Y175965D01*
X148065Y176220D01*
X148315Y176392D01*
X148612Y176452D01*
X157214Y176452D01*
X157489Y176401D01*
X157744Y176237D01*
X157916Y175987D01*
X157976Y175690D01*
X157976Y175369D01*
X158869Y174476D01*
X169131Y174476D01*
X170065Y175410D01*
X170075Y175465D01*
X170239Y175720D01*
X170489Y175892D01*
X170786Y175952D01*
X172229Y175952D01*
X172515Y175896D01*
X172767Y175729D01*
X174802Y173694D01*
X179198Y173694D01*
X182306Y176802D01*
X182306Y181198D01*
X179198Y184306D01*
X174802Y184306D01*
X172767Y182271D01*
X172526Y182108D01*
X172229Y182048D01*
X170786Y182048D01*
X170511Y182099D01*
X170256Y182263D01*
X170084Y182513D01*
X170024Y182810D01*
X170024Y183631D01*
X169131Y184524D01*
X158869Y184524D01*
X157976Y183631D01*
X157976Y183310D01*
X157925Y183035D01*
X157761Y182780D01*
X157511Y182608D01*
X157214Y182548D01*
X148612Y182548D01*
X148337Y182599D01*
X148082Y182763D01*
X147910Y183013D01*
X147850Y183310D01*
X147850Y183646D01*
X146957Y184539D01*
X140710Y184539D01*
X140424Y184595D01*
X140171Y184762D01*
X139378Y185555D01*
X137350Y185555D01*
X137350Y175491D01*
X134302Y175491D01*
X134302Y185555D01*
X132274Y185555D01*
X131481Y184762D01*
X131240Y184599D01*
X130942Y184539D01*
X124710Y184539D01*
X124424Y184595D01*
X124171Y184762D01*
X123378Y185555D01*
X121350Y185555D01*
X121350Y168475D01*
X123378Y168475D01*
X124171Y169268D01*
X124413Y169431D01*
X124710Y169491D01*
X130942Y169491D01*
X131228Y169435D01*
X131481Y169268D01*
X132274Y168475D01*
X136540Y168475D01*
X136815Y168424D01*
X137070Y168260D01*
X137242Y168010D01*
X137302Y167713D01*
X137302Y163301D01*
X137251Y163026D01*
X137087Y162771D01*
X136837Y162599D01*
X136540Y162539D01*
X132695Y162539D01*
X132365Y162209D01*
X132134Y162051D01*
X131838Y161986D01*
X131540Y162042D01*
X131287Y162209D01*
X130957Y162539D01*
X124695Y162539D01*
X124365Y162209D01*
X124134Y162051D01*
X123838Y161986D01*
X123540Y162042D01*
X123287Y162209D01*
X122957Y162539D01*
X116695Y162539D01*
X116365Y162209D01*
X116134Y162051D01*
X115838Y161986D01*
X115540Y162042D01*
X115287Y162209D01*
X114957Y162539D01*
X111112Y162539D01*
X110837Y162590D01*
X110582Y162754D01*
X110410Y163004D01*
X110350Y163301D01*
X110350Y167713D01*
X110401Y167988D01*
X110565Y168243D01*
X110815Y168415D01*
X111112Y168475D01*
X115420Y168475D01*
X115518Y168542D01*
X115814Y168607D01*
X116112Y168552D01*
X116228Y168475D01*
X118302Y168475D01*
X118302Y185555D01*
X116232Y185555D01*
X116134Y185488D01*
X115838Y185423D01*
X115540Y185478D01*
X115424Y185555D01*
X113350Y185555D01*
X113350Y175491D01*
X110302Y175491D01*
X110302Y185555D01*
X108274Y185555D01*
X107481Y184762D01*
X107240Y184599D01*
X106942Y184539D01*
X100695Y184539D01*
X99802Y183646D01*
X99802Y183322D01*
X99751Y183047D01*
X99587Y182791D01*
X99337Y182620D01*
X99040Y182560D01*
X91678Y182560D01*
X91392Y182615D01*
X91140Y182783D01*
X90211Y183711D01*
X82509Y183711D01*
X81580Y182783D01*
X81339Y182620D01*
X81042Y182560D01*
X78260Y182560D01*
X77974Y182615D01*
X77721Y182783D01*
X76198Y184306D01*
X71802Y184306D01*
X68694Y181198D01*
X68694Y176802D01*
X71802Y173694D01*
X76198Y173694D01*
X78744Y176240D01*
X78986Y176403D01*
X79283Y176464D01*
X81042Y176464D01*
X81328Y176408D01*
X81580Y176240D01*
X82509Y175312D01*
X90211Y175312D01*
X91140Y176240D01*
X91381Y176403D01*
X91678Y176464D01*
X99040Y176464D01*
X99315Y176412D01*
X99570Y176249D01*
X99742Y175999D01*
X99802Y175702D01*
X99802Y172664D01*
X99751Y172389D01*
X99587Y172133D01*
X99337Y171962D01*
X99040Y171902D01*
X91866Y171902D01*
X91591Y171953D01*
X91336Y172116D01*
X91164Y172366D01*
X91104Y172664D01*
X91104Y172668D01*
X90211Y173561D01*
X82509Y173561D01*
X81616Y172668D01*
X81616Y166055D01*
X82509Y165162D01*
X82730Y165162D01*
X82994Y165115D01*
X83252Y164956D01*
X83427Y164708D01*
X83492Y164412D01*
X83437Y164114D01*
X83269Y163861D01*
X83171Y163763D01*
X82930Y163600D01*
X82632Y163540D01*
X79279Y163540D01*
X78993Y163596D01*
X78741Y163763D01*
X76198Y166306D01*
X71802Y166306D01*
X68694Y163198D01*
X68694Y158802D01*
X71802Y155694D01*
X76198Y155694D01*
X78741Y158237D01*
X78982Y158400D01*
X79279Y158460D01*
X85052Y158460D01*
X88900Y162308D01*
X88900Y164400D01*
X88951Y164675D01*
X89115Y164930D01*
X89365Y165102D01*
X89662Y165162D01*
X90211Y165162D01*
X91104Y166055D01*
X91104Y166060D01*
X91155Y166334D01*
X91319Y166590D01*
X91569Y166761D01*
X91866Y166822D01*
X94540Y166822D01*
X94815Y166770D01*
X95070Y166607D01*
X95242Y166357D01*
X95302Y166060D01*
X95302Y162884D01*
X96195Y161991D01*
X99040Y161991D01*
X99315Y161940D01*
X99570Y161776D01*
X99742Y161526D01*
X99802Y161229D01*
X99802Y148384D01*
X100695Y147491D01*
X106957Y147491D01*
X107287Y147821D01*
X107518Y147979D01*
X107814Y148044D01*
X108112Y147988D01*
X108365Y147821D01*
X108695Y147491D01*
X114957Y147491D01*
X115287Y147821D01*
X115518Y147979D01*
X115814Y148044D01*
X116112Y147988D01*
X116365Y147821D01*
X116695Y147491D01*
X122957Y147491D01*
X123287Y147821D01*
X123518Y147979D01*
X123814Y148044D01*
X124112Y147988D01*
X124365Y147821D01*
X124695Y147491D01*
X128148Y147491D01*
X128411Y147444D01*
X128669Y147285D01*
X128844Y147037D01*
X128909Y146741D01*
X128854Y146443D01*
X128686Y146190D01*
X125694Y143198D01*
X125694Y138802D01*
X128802Y135694D01*
G37*
G36*
X165524Y168024D02*
X171040Y168024D01*
X171040Y171052D01*
X169552Y172540D01*
X165524Y172540D01*
X165524Y168024D01*
G37*
G36*
X156960Y168024D02*
X162476Y168024D01*
X162476Y172540D01*
X158448Y172540D01*
X156960Y171052D01*
X156960Y168024D01*
G37*
G36*
X165524Y160460D02*
X169552Y160460D01*
X171040Y161948D01*
X171040Y164976D01*
X165524Y164976D01*
X165524Y160460D01*
G37*
G36*
X65802Y78694D02*
X70198Y78694D01*
X73306Y81802D01*
X73306Y86198D01*
X70198Y89306D01*
X66602Y89306D01*
X66316Y89362D01*
X66063Y89529D01*
X65199Y90393D01*
X65046Y90613D01*
X64976Y90908D01*
X65027Y91207D01*
X65190Y91462D01*
X65441Y91634D01*
X65738Y91694D01*
X70198Y91694D01*
X73306Y94802D01*
X73306Y99198D01*
X70198Y102306D01*
X68738Y102306D01*
X68463Y102357D01*
X68208Y102521D01*
X68036Y102771D01*
X67976Y103068D01*
X67976Y105064D01*
X68027Y105339D01*
X68191Y105594D01*
X68441Y105766D01*
X68738Y105826D01*
X72166Y105826D01*
X72461Y106122D01*
X72692Y106280D01*
X72988Y106345D01*
X73286Y106289D01*
X73539Y106122D01*
X73834Y105826D01*
X77082Y105826D01*
X77368Y105770D01*
X77621Y105603D01*
X78414Y104810D01*
X79000Y104810D01*
X79000Y121664D01*
X78780Y121805D01*
X78608Y122055D01*
X78548Y122352D01*
X78548Y124922D01*
X78604Y125208D01*
X78771Y125461D01*
X79039Y125729D01*
X79281Y125892D01*
X79578Y125952D01*
X81714Y125952D01*
X81989Y125901D01*
X82244Y125737D01*
X82416Y125487D01*
X82476Y125190D01*
X82476Y123869D01*
X83369Y122976D01*
X91631Y122976D01*
X92524Y123869D01*
X92524Y134131D01*
X91631Y135024D01*
X90810Y135024D01*
X90535Y135075D01*
X90280Y135239D01*
X90108Y135489D01*
X90048Y135786D01*
X90048Y138229D01*
X90104Y138515D01*
X90271Y138767D01*
X90306Y138802D01*
X90306Y143198D01*
X87198Y146306D01*
X82802Y146306D01*
X79694Y143198D01*
X79694Y138802D01*
X82882Y135615D01*
X83040Y135384D01*
X83105Y135088D01*
X83049Y134790D01*
X82882Y134537D01*
X82476Y134131D01*
X82476Y132810D01*
X82425Y132535D01*
X82261Y132280D01*
X82011Y132108D01*
X81714Y132048D01*
X76737Y132048D01*
X74825Y130135D01*
X74605Y129982D01*
X74310Y129913D01*
X74011Y129963D01*
X73756Y130127D01*
X73584Y130377D01*
X73524Y130674D01*
X73524Y134131D01*
X72631Y135024D01*
X72367Y135024D01*
X72104Y135071D01*
X71846Y135230D01*
X71671Y135478D01*
X71606Y135774D01*
X71661Y136072D01*
X71829Y136325D01*
X74306Y138802D01*
X74306Y143198D01*
X71198Y146306D01*
X66802Y146306D01*
X63694Y143198D01*
X63694Y138802D01*
X65229Y137267D01*
X65392Y137026D01*
X65452Y136729D01*
X65452Y135786D01*
X65401Y135511D01*
X65237Y135256D01*
X64987Y135084D01*
X64690Y135024D01*
X64369Y135024D01*
X63476Y134131D01*
X63476Y123869D01*
X64369Y122976D01*
X66690Y122976D01*
X66965Y122925D01*
X67220Y122761D01*
X67392Y122511D01*
X67452Y122214D01*
X67452Y121336D01*
X67401Y121061D01*
X67237Y120806D01*
X66987Y120634D01*
X66690Y120574D01*
X63834Y120574D01*
X63539Y120278D01*
X63308Y120120D01*
X63012Y120055D01*
X62714Y120111D01*
X62461Y120278D01*
X62166Y120574D01*
X60506Y120574D01*
X60242Y120621D01*
X59984Y120780D01*
X59809Y121028D01*
X59744Y121324D01*
X59799Y121622D01*
X59967Y121875D01*
X61540Y123448D01*
X61540Y127476D01*
X49460Y127476D01*
X49460Y123448D01*
X51033Y121875D01*
X51186Y121655D01*
X51256Y121360D01*
X51205Y121061D01*
X51042Y120806D01*
X50792Y120634D01*
X50494Y120574D01*
X48834Y120574D01*
X47476Y119216D01*
X47476Y107184D01*
X48834Y105826D01*
X52166Y105826D01*
X52461Y106122D01*
X52692Y106280D01*
X52988Y106345D01*
X53286Y106289D01*
X53539Y106122D01*
X53834Y105826D01*
X57198Y105826D01*
X57473Y105775D01*
X57728Y105611D01*
X57900Y105361D01*
X57960Y105064D01*
X57960Y90448D01*
X62471Y85937D01*
X62634Y85696D01*
X62694Y85398D01*
X62694Y81802D01*
X65802Y78694D01*
G37*
G36*
X150460Y138524D02*
X154976Y138524D01*
X154976Y144040D01*
X151948Y144040D01*
X150460Y142552D01*
X150460Y138524D01*
G37*
G36*
X158024Y138524D02*
X162540Y138524D01*
X162540Y142552D01*
X161052Y144040D01*
X158024Y144040D01*
X158024Y138524D01*
G37*
G36*
X187043Y77476D02*
X233964Y77476D01*
X234283Y77506D01*
X234556Y77585D01*
X234803Y77710D01*
X235108Y77953D01*
X236052Y78897D01*
X236257Y79144D01*
X236394Y79392D01*
X236480Y79656D01*
X236524Y80043D01*
X236524Y112964D01*
X236494Y113283D01*
X236415Y113556D01*
X236290Y113803D01*
X236047Y114108D01*
X235103Y115052D01*
X234856Y115257D01*
X234608Y115394D01*
X234344Y115480D01*
X233957Y115524D01*
X194810Y115524D01*
X194535Y115575D01*
X194280Y115739D01*
X194108Y115989D01*
X194048Y116286D01*
X194048Y130263D01*
X184263Y140048D01*
X175286Y140048D01*
X175011Y140099D01*
X174756Y140263D01*
X174584Y140513D01*
X174524Y140810D01*
X174524Y142131D01*
X173631Y143024D01*
X165369Y143024D01*
X164476Y142131D01*
X164476Y131869D01*
X165369Y130976D01*
X173631Y130976D01*
X174524Y131869D01*
X174524Y133190D01*
X174575Y133465D01*
X174739Y133720D01*
X174989Y133892D01*
X175286Y133952D01*
X181422Y133952D01*
X181708Y133896D01*
X181961Y133729D01*
X187729Y127961D01*
X187892Y127719D01*
X187952Y127422D01*
X187952Y116286D01*
X187901Y116011D01*
X187737Y115756D01*
X187487Y115584D01*
X187190Y115524D01*
X187036Y115524D01*
X186717Y115494D01*
X186444Y115415D01*
X186197Y115290D01*
X185892Y115047D01*
X174592Y103747D01*
X174350Y103584D01*
X174053Y103524D01*
X154036Y103524D01*
X153717Y103494D01*
X153444Y103415D01*
X153197Y103290D01*
X152892Y103047D01*
X150948Y101103D01*
X150743Y100856D01*
X150606Y100608D01*
X150520Y100344D01*
X150476Y99957D01*
X150476Y98310D01*
X150425Y98035D01*
X150261Y97780D01*
X150011Y97608D01*
X149714Y97548D01*
X142786Y97548D01*
X142511Y97599D01*
X142256Y97763D01*
X142084Y98013D01*
X142024Y98310D01*
X142024Y98631D01*
X141763Y98892D01*
X141600Y99134D01*
X141540Y99431D01*
X141540Y105964D01*
X141591Y106238D01*
X141755Y106494D01*
X142005Y106665D01*
X142302Y106726D01*
X144851Y106726D01*
X145744Y107618D01*
X145744Y114232D01*
X144851Y115125D01*
X137149Y115125D01*
X136256Y114232D01*
X136256Y107609D01*
X136400Y107396D01*
X136460Y107099D01*
X136460Y100286D01*
X136409Y100011D01*
X136245Y99756D01*
X135995Y99584D01*
X135698Y99524D01*
X135602Y99524D01*
X135316Y99580D01*
X135063Y99747D01*
X132263Y102548D01*
X117716Y102548D01*
X117598Y102524D01*
X113184Y102524D01*
X111826Y101166D01*
X111826Y97918D01*
X111770Y97632D01*
X111603Y97379D01*
X110810Y96586D01*
X110810Y96000D01*
X127664Y96000D01*
X127805Y96220D01*
X128055Y96392D01*
X128352Y96452D01*
X129214Y96452D01*
X129489Y96401D01*
X129744Y96237D01*
X129916Y95987D01*
X129976Y95690D01*
X129976Y90369D01*
X130869Y89476D01*
X141131Y89476D01*
X142024Y90369D01*
X142024Y90690D01*
X142075Y90965D01*
X142239Y91220D01*
X142489Y91392D01*
X142786Y91452D01*
X150139Y91452D01*
X150502Y91360D01*
X150735Y91165D01*
X150953Y90892D01*
X151897Y89948D01*
X152144Y89743D01*
X152392Y89606D01*
X152656Y89520D01*
X153043Y89476D01*
X174053Y89476D01*
X174339Y89420D01*
X174592Y89253D01*
X185897Y77948D01*
X186144Y77743D01*
X186392Y77606D01*
X186656Y77520D01*
X187043Y77476D01*
G37*
G36*
X49460Y130524D02*
X53976Y130524D01*
X53976Y136040D01*
X50948Y136040D01*
X49460Y134552D01*
X49460Y130524D01*
G37*
G36*
X94460Y130524D02*
X98976Y130524D01*
X98976Y136040D01*
X95948Y136040D01*
X94460Y134552D01*
X94460Y130524D01*
G37*
G36*
X102024Y130524D02*
X106540Y130524D01*
X106540Y134552D01*
X105052Y136040D01*
X102024Y136040D01*
X102024Y130524D01*
G37*
G36*
X57024Y130524D02*
X61540Y130524D01*
X61540Y134552D01*
X60052Y136040D01*
X57024Y136040D01*
X57024Y130524D01*
G37*
G36*
X151948Y129960D02*
X154976Y129960D01*
X154976Y135476D01*
X150460Y135476D01*
X150460Y131448D01*
X151948Y129960D01*
G37*
G36*
X158024Y129960D02*
X161052Y129960D01*
X162540Y131448D01*
X162540Y135476D01*
X158024Y135476D01*
X158024Y129960D01*
G37*
G36*
X31460Y128524D02*
X35976Y128524D01*
X35976Y134040D01*
X32989Y134040D01*
X32955Y134047D01*
X31460Y132552D01*
X31460Y128524D01*
G37*
G36*
X39024Y128524D02*
X43540Y128524D01*
X43540Y132552D01*
X42052Y134040D01*
X39024Y134040D01*
X39024Y128524D01*
G37*
G36*
X28410Y81000D02*
X45190Y81000D01*
X45190Y81586D01*
X44397Y82379D01*
X44234Y82621D01*
X44174Y82918D01*
X44174Y86166D01*
X43878Y86461D01*
X43720Y86692D01*
X43655Y86988D01*
X43711Y87286D01*
X43878Y87539D01*
X44174Y87834D01*
X44174Y91166D01*
X43878Y91461D01*
X43720Y91692D01*
X43655Y91988D01*
X43711Y92286D01*
X43878Y92539D01*
X44174Y92834D01*
X44174Y93483D01*
X44221Y93746D01*
X44380Y94004D01*
X44628Y94179D01*
X44924Y94244D01*
X45222Y94189D01*
X45475Y94021D01*
X47802Y91694D01*
X52198Y91694D01*
X55306Y94802D01*
X55306Y99198D01*
X52198Y102306D01*
X47802Y102306D01*
X45475Y99979D01*
X45255Y99826D01*
X44960Y99756D01*
X44661Y99807D01*
X44406Y99970D01*
X44234Y100220D01*
X44174Y100517D01*
X44174Y101166D01*
X42816Y102524D01*
X37661Y102524D01*
X37375Y102580D01*
X37122Y102747D01*
X33747Y106122D01*
X33584Y106364D01*
X33524Y106661D01*
X33524Y107198D01*
X33575Y107473D01*
X33739Y107728D01*
X33989Y107900D01*
X34286Y107960D01*
X35976Y107960D01*
X35976Y116524D01*
X43540Y116524D01*
X43540Y120594D01*
X43473Y120692D01*
X43408Y120988D01*
X43463Y121286D01*
X43540Y121402D01*
X43540Y125476D01*
X31284Y125476D01*
X31254Y125428D01*
X31006Y125252D01*
X30710Y125187D01*
X30412Y125243D01*
X30159Y125410D01*
X29747Y125822D01*
X29584Y126064D01*
X29524Y126361D01*
X29524Y132131D01*
X28631Y133024D01*
X20369Y133024D01*
X19476Y132131D01*
X19476Y131019D01*
X19429Y130756D01*
X19270Y130498D01*
X19022Y130322D01*
X18726Y130257D01*
X18428Y130313D01*
X18175Y130480D01*
X17131Y131524D01*
X4869Y131524D01*
X3976Y130631D01*
X3976Y123369D01*
X4869Y122476D01*
X17131Y122476D01*
X18175Y123520D01*
X18395Y123673D01*
X18690Y123743D01*
X18989Y123692D01*
X19244Y123528D01*
X19416Y123278D01*
X19476Y122981D01*
X19476Y121869D01*
X19806Y121539D01*
X19964Y121308D01*
X20029Y121012D01*
X19973Y120714D01*
X19806Y120461D01*
X19476Y120131D01*
X19476Y117019D01*
X19429Y116756D01*
X19270Y116498D01*
X19022Y116322D01*
X18726Y116257D01*
X18428Y116313D01*
X18175Y116480D01*
X17131Y117524D01*
X4869Y117524D01*
X3976Y116631D01*
X3976Y109369D01*
X4869Y108476D01*
X17131Y108476D01*
X18024Y109369D01*
X18024Y109481D01*
X18071Y109744D01*
X18230Y110002D01*
X18478Y110178D01*
X18774Y110243D01*
X19072Y110187D01*
X19325Y110020D01*
X20369Y108976D01*
X20714Y108976D01*
X20989Y108925D01*
X21244Y108761D01*
X21416Y108511D01*
X21476Y108214D01*
X21476Y97955D01*
X27455Y91976D01*
X28664Y91976D01*
X28939Y91925D01*
X29194Y91761D01*
X29366Y91511D01*
X29426Y91214D01*
X29426Y87834D01*
X29722Y87539D01*
X29880Y87308D01*
X29945Y87012D01*
X29889Y86714D01*
X29722Y86461D01*
X29426Y86166D01*
X29426Y82918D01*
X29370Y82632D01*
X29203Y82379D01*
X28410Y81586D01*
X28410Y81000D01*
G37*
G36*
X126524Y128024D02*
X132099Y128024D01*
X132099Y130611D01*
X130611Y132099D01*
X126524Y132099D01*
X126524Y128024D01*
G37*
G36*
X117901Y128024D02*
X123476Y128024D01*
X123476Y132099D01*
X119389Y132099D01*
X117901Y130611D01*
X117901Y128024D01*
G37*
G36*
X87802Y91694D02*
X92198Y91694D01*
X95306Y94802D01*
X95306Y99198D01*
X92763Y101741D01*
X92600Y101982D01*
X92540Y102279D01*
X92540Y105281D01*
X92587Y105544D01*
X92746Y105802D01*
X92994Y105978D01*
X93290Y106043D01*
X93588Y105987D01*
X93831Y105826D01*
X97166Y105826D01*
X97461Y106122D01*
X97692Y106280D01*
X97988Y106345D01*
X98286Y106289D01*
X98539Y106122D01*
X98834Y105826D01*
X102166Y105826D01*
X102461Y106122D01*
X102692Y106280D01*
X102988Y106345D01*
X103286Y106289D01*
X103539Y106122D01*
X103834Y105826D01*
X107166Y105826D01*
X108524Y107184D01*
X108524Y119216D01*
X107166Y120574D01*
X105506Y120574D01*
X105242Y120621D01*
X104984Y120780D01*
X104809Y121028D01*
X104744Y121324D01*
X104799Y121622D01*
X104967Y121875D01*
X106540Y123448D01*
X106540Y127476D01*
X94460Y127476D01*
X94460Y123448D01*
X96033Y121875D01*
X96186Y121655D01*
X96256Y121360D01*
X96205Y121061D01*
X96042Y120806D01*
X95792Y120634D01*
X95494Y120574D01*
X93834Y120574D01*
X93539Y120278D01*
X93308Y120120D01*
X93012Y120055D01*
X92714Y120111D01*
X92461Y120278D01*
X92166Y120574D01*
X88834Y120574D01*
X88539Y120278D01*
X88308Y120120D01*
X88012Y120055D01*
X87714Y120111D01*
X87461Y120278D01*
X87166Y120574D01*
X83918Y120574D01*
X83632Y120630D01*
X83379Y120797D01*
X82586Y121590D01*
X82000Y121590D01*
X82000Y104810D01*
X82586Y104810D01*
X83379Y105603D01*
X83621Y105766D01*
X83918Y105826D01*
X86698Y105826D01*
X86973Y105775D01*
X87228Y105611D01*
X87400Y105361D01*
X87460Y105064D01*
X87460Y102279D01*
X87404Y101993D01*
X87237Y101741D01*
X84694Y99198D01*
X84694Y94802D01*
X87802Y91694D01*
G37*
G36*
X162735Y121303D02*
X171752Y121303D01*
X171752Y125022D01*
X170264Y126510D01*
X162735Y126510D01*
X162735Y121303D01*
G37*
G36*
X150670Y121303D02*
X159687Y121303D01*
X159687Y126510D01*
X152158Y126510D01*
X150670Y125022D01*
X150670Y121303D01*
G37*
G36*
X119810Y106917D02*
X130190Y106917D01*
X131083Y107810D01*
X131083Y113675D01*
X131139Y113961D01*
X131306Y114214D01*
X135019Y117927D01*
X135250Y118085D01*
X135546Y118150D01*
X135844Y118095D01*
X136097Y117927D01*
X137149Y116876D01*
X144851Y116876D01*
X145744Y117768D01*
X145744Y124382D01*
X144851Y125275D01*
X137149Y125275D01*
X136256Y124382D01*
X136256Y124377D01*
X136205Y124102D01*
X136041Y123847D01*
X135791Y123675D01*
X135494Y123615D01*
X133523Y123615D01*
X133400Y123492D01*
X133180Y123339D01*
X132885Y123269D01*
X132586Y123320D01*
X132331Y123483D01*
X132159Y123734D01*
X132099Y124031D01*
X132099Y124976D01*
X126524Y124976D01*
X126524Y120901D01*
X128969Y120901D01*
X129233Y120854D01*
X129491Y120695D01*
X129666Y120447D01*
X129731Y120151D01*
X129676Y119853D01*
X129508Y119600D01*
X126214Y116306D01*
X125973Y116143D01*
X125675Y116083D01*
X119810Y116083D01*
X118917Y115190D01*
X118917Y107810D01*
X119810Y106917D01*
G37*
G36*
X119389Y120901D02*
X123476Y120901D01*
X123476Y124976D01*
X117901Y124976D01*
X117901Y122389D01*
X119389Y120901D01*
G37*
G36*
X152158Y113048D02*
X159687Y113048D01*
X159687Y118255D01*
X150670Y118255D01*
X150670Y114536D01*
X152158Y113048D01*
G37*
G36*
X162735Y113048D02*
X170264Y113048D01*
X171752Y114536D01*
X171752Y118255D01*
X162735Y118255D01*
X162735Y113048D01*
G37*
G36*
X39024Y107960D02*
X42052Y107960D01*
X43540Y109448D01*
X43540Y113476D01*
X39024Y113476D01*
X39024Y107960D01*
G37*
G36*
X7960Y92024D02*
X13476Y92024D01*
X13476Y96540D01*
X9448Y96540D01*
X7960Y95052D01*
X7960Y92024D01*
G37*
G36*
X16524Y92024D02*
X22040Y92024D01*
X22040Y95052D01*
X20552Y96540D01*
X16524Y96540D01*
X16524Y92024D01*
G37*
G36*
X113184Y41476D02*
X125216Y41476D01*
X126574Y42834D01*
X126574Y46166D01*
X126278Y46461D01*
X126120Y46692D01*
X126055Y46988D01*
X126111Y47286D01*
X126278Y47539D01*
X126574Y47834D01*
X126574Y51166D01*
X126278Y51461D01*
X126120Y51692D01*
X126055Y51988D01*
X126111Y52286D01*
X126278Y52539D01*
X126574Y52834D01*
X126574Y56166D01*
X126278Y56461D01*
X126120Y56692D01*
X126055Y56988D01*
X126111Y57286D01*
X126278Y57539D01*
X126574Y57834D01*
X126574Y61166D01*
X126278Y61461D01*
X126120Y61692D01*
X126055Y61988D01*
X126111Y62286D01*
X126278Y62539D01*
X126574Y62834D01*
X126574Y66166D01*
X126278Y66461D01*
X126120Y66692D01*
X126055Y66988D01*
X126111Y67286D01*
X126278Y67539D01*
X126574Y67834D01*
X126574Y71166D01*
X126278Y71461D01*
X126120Y71692D01*
X126055Y71988D01*
X126111Y72286D01*
X126278Y72539D01*
X126574Y72834D01*
X126574Y76166D01*
X126278Y76461D01*
X126120Y76692D01*
X126055Y76988D01*
X126111Y77286D01*
X126278Y77539D01*
X126574Y77834D01*
X126574Y81166D01*
X126278Y81461D01*
X126120Y81692D01*
X126055Y81988D01*
X126111Y82286D01*
X126278Y82539D01*
X126574Y82834D01*
X126574Y86166D01*
X126278Y86461D01*
X126120Y86692D01*
X126055Y86988D01*
X126111Y87286D01*
X126278Y87539D01*
X126574Y87834D01*
X126574Y91082D01*
X126630Y91368D01*
X126797Y91621D01*
X127590Y92414D01*
X127590Y93000D01*
X110491Y93000D01*
X110356Y92905D01*
X110060Y92840D01*
X109762Y92895D01*
X109509Y93063D01*
X106198Y96374D01*
X101802Y96374D01*
X98694Y93266D01*
X98694Y88870D01*
X99723Y87841D01*
X99876Y87621D01*
X99946Y87326D01*
X99895Y87027D01*
X99732Y86772D01*
X99482Y86600D01*
X99185Y86540D01*
X95279Y86540D01*
X94993Y86596D01*
X94741Y86763D01*
X92198Y89306D01*
X87802Y89306D01*
X84694Y86198D01*
X84694Y81802D01*
X87802Y78694D01*
X92198Y78694D01*
X94741Y81237D01*
X94982Y81400D01*
X95279Y81460D01*
X111064Y81460D01*
X111339Y81409D01*
X111594Y81245D01*
X111766Y80995D01*
X111826Y80698D01*
X111826Y77834D01*
X112122Y77539D01*
X112280Y77308D01*
X112345Y77012D01*
X112289Y76714D01*
X112122Y76461D01*
X111826Y76166D01*
X111826Y72834D01*
X112122Y72539D01*
X112280Y72308D01*
X112345Y72012D01*
X112289Y71714D01*
X112122Y71461D01*
X111826Y71166D01*
X111826Y67834D01*
X112122Y67539D01*
X112280Y67308D01*
X112345Y67012D01*
X112289Y66714D01*
X112122Y66461D01*
X111826Y66166D01*
X111826Y62834D01*
X112122Y62539D01*
X112280Y62308D01*
X112345Y62012D01*
X112289Y61714D01*
X112122Y61461D01*
X111826Y61166D01*
X111826Y57834D01*
X112122Y57539D01*
X112280Y57308D01*
X112345Y57012D01*
X112289Y56714D01*
X112122Y56461D01*
X111826Y56166D01*
X111826Y52834D01*
X112122Y52539D01*
X112280Y52308D01*
X112345Y52012D01*
X112289Y51714D01*
X112122Y51461D01*
X111826Y51166D01*
X111826Y47834D01*
X112122Y47539D01*
X112280Y47308D01*
X112345Y47012D01*
X112289Y46714D01*
X112122Y46461D01*
X111826Y46166D01*
X111826Y42834D01*
X113184Y41476D01*
G37*
G36*
X16524Y84460D02*
X20552Y84460D01*
X22040Y85948D01*
X22040Y88976D01*
X16524Y88976D01*
X16524Y84460D01*
G37*
G36*
X9448Y84460D02*
X13476Y84460D01*
X13476Y88976D01*
X7960Y88976D01*
X7960Y85948D01*
X9448Y84460D01*
G37*
G36*
X128960Y83024D02*
X134476Y83024D01*
X134476Y87540D01*
X130448Y87540D01*
X128960Y86052D01*
X128960Y83024D01*
G37*
G36*
X137524Y83024D02*
X143040Y83024D01*
X143040Y86052D01*
X141552Y87540D01*
X137524Y87540D01*
X137524Y83024D01*
G37*
G36*
X30784Y41476D02*
X42816Y41476D01*
X44174Y42834D01*
X44174Y46168D01*
X44027Y46379D01*
X43958Y46674D01*
X44008Y46973D01*
X44172Y47228D01*
X44422Y47400D01*
X44719Y47460D01*
X44721Y47460D01*
X45007Y47404D01*
X45259Y47237D01*
X47802Y44694D01*
X52198Y44694D01*
X55306Y47802D01*
X55306Y52198D01*
X52198Y55306D01*
X47802Y55306D01*
X45475Y52979D01*
X45255Y52826D01*
X44960Y52756D01*
X44661Y52807D01*
X44406Y52970D01*
X44234Y53220D01*
X44174Y53517D01*
X44174Y56166D01*
X43878Y56461D01*
X43720Y56692D01*
X43655Y56988D01*
X43711Y57286D01*
X43878Y57539D01*
X44174Y57834D01*
X44174Y61166D01*
X43878Y61461D01*
X43720Y61692D01*
X43655Y61988D01*
X43711Y62286D01*
X43878Y62539D01*
X44174Y62834D01*
X44174Y66166D01*
X43878Y66461D01*
X43720Y66692D01*
X43655Y66988D01*
X43711Y67286D01*
X43878Y67539D01*
X44174Y67834D01*
X44174Y71166D01*
X43878Y71461D01*
X43720Y71692D01*
X43655Y71988D01*
X43711Y72286D01*
X43878Y72539D01*
X44174Y72834D01*
X44174Y76082D01*
X44230Y76368D01*
X44397Y76621D01*
X45190Y77414D01*
X45190Y78000D01*
X28410Y78000D01*
X28410Y77802D01*
X28359Y77527D01*
X28195Y77272D01*
X27945Y77100D01*
X27648Y77040D01*
X25695Y77040D01*
X25616Y77024D01*
X21786Y77024D01*
X21511Y77075D01*
X21256Y77239D01*
X21084Y77489D01*
X21024Y77786D01*
X21024Y81631D01*
X20131Y82524D01*
X9869Y82524D01*
X8976Y81631D01*
X8976Y73369D01*
X9869Y72476D01*
X11698Y72476D01*
X11973Y72425D01*
X12228Y72261D01*
X12400Y72011D01*
X12460Y71714D01*
X12460Y70286D01*
X12409Y70011D01*
X12245Y69756D01*
X11995Y69584D01*
X11698Y69524D01*
X9369Y69524D01*
X8476Y68631D01*
X8476Y56369D01*
X9369Y55476D01*
X20631Y55476D01*
X21524Y56369D01*
X21524Y68631D01*
X20631Y69524D01*
X18302Y69524D01*
X18027Y69575D01*
X17772Y69739D01*
X17600Y69989D01*
X17540Y70286D01*
X17540Y71214D01*
X17591Y71489D01*
X17755Y71744D01*
X18005Y71916D01*
X18302Y71976D01*
X25616Y71976D01*
X25698Y71960D01*
X28664Y71960D01*
X28939Y71909D01*
X29194Y71745D01*
X29366Y71495D01*
X29426Y71198D01*
X29426Y67834D01*
X29722Y67539D01*
X29880Y67308D01*
X29945Y67012D01*
X29889Y66714D01*
X29722Y66461D01*
X29426Y66166D01*
X29426Y62834D01*
X29722Y62539D01*
X29880Y62308D01*
X29945Y62012D01*
X29889Y61714D01*
X29722Y61461D01*
X29426Y61166D01*
X29426Y57834D01*
X29722Y57539D01*
X29880Y57308D01*
X29945Y57012D01*
X29889Y56714D01*
X29722Y56461D01*
X29426Y56166D01*
X29426Y52834D01*
X29722Y52539D01*
X29880Y52308D01*
X29945Y52012D01*
X29889Y51714D01*
X29722Y51461D01*
X29426Y51166D01*
X29426Y47834D01*
X29722Y47539D01*
X29880Y47308D01*
X29945Y47012D01*
X29889Y46714D01*
X29722Y46461D01*
X29426Y46166D01*
X29426Y42834D01*
X30784Y41476D01*
G37*
G36*
X191678Y21620D02*
X193456Y21620D01*
X193456Y41700D01*
X191678Y41700D01*
X190885Y40907D01*
X190644Y40744D01*
X190346Y40684D01*
X185753Y40684D01*
X185490Y40731D01*
X185232Y40890D01*
X185056Y41138D01*
X184991Y41434D01*
X185047Y41732D01*
X185214Y41985D01*
X186102Y42873D01*
X186444Y43070D01*
X187803Y43434D01*
X188000Y43460D01*
X193494Y43460D01*
X198103Y45369D01*
X201631Y48897D01*
X202181Y50224D01*
X202337Y50462D01*
X202587Y50634D01*
X202885Y50694D01*
X203198Y50694D01*
X206306Y53802D01*
X206306Y58198D01*
X203198Y61306D01*
X198802Y61306D01*
X196539Y59043D01*
X196308Y58885D01*
X196012Y58820D01*
X195714Y58875D01*
X195461Y59043D01*
X193198Y61306D01*
X188802Y61306D01*
X185694Y58198D01*
X185694Y53760D01*
X185821Y53547D01*
X185850Y53245D01*
X185758Y52956D01*
X185561Y52726D01*
X185289Y52591D01*
X185197Y52566D01*
X185000Y52540D01*
X180304Y52540D01*
X176620Y50413D01*
X176263Y50311D01*
X175964Y50362D01*
X175709Y50525D01*
X175537Y50775D01*
X175477Y51073D01*
X175477Y54556D01*
X170961Y54556D01*
X170961Y49040D01*
X173851Y49040D01*
X174211Y48950D01*
X174445Y48756D01*
X174584Y48487D01*
X174608Y48185D01*
X174511Y47897D01*
X172940Y45176D01*
X172940Y42055D01*
X172893Y41792D01*
X172734Y41534D01*
X172486Y41358D01*
X172190Y41293D01*
X171892Y41349D01*
X171639Y41516D01*
X165416Y47739D01*
X165263Y47959D01*
X165193Y48254D01*
X165244Y48553D01*
X165408Y48808D01*
X165658Y48980D01*
X165955Y49040D01*
X167913Y49040D01*
X167913Y63120D01*
X164885Y63120D01*
X163825Y62060D01*
X163605Y61907D01*
X163310Y61837D01*
X163011Y61888D01*
X162756Y62051D01*
X162584Y62302D01*
X162524Y62599D01*
X162524Y64714D01*
X162575Y64989D01*
X162739Y65244D01*
X162989Y65416D01*
X163286Y65476D01*
X170964Y65476D01*
X171283Y65506D01*
X171556Y65585D01*
X171803Y65710D01*
X172108Y65953D01*
X173052Y66897D01*
X173257Y67144D01*
X173394Y67392D01*
X173480Y67656D01*
X173524Y68043D01*
X173524Y78964D01*
X173494Y79283D01*
X173415Y79556D01*
X173287Y79810D01*
X173114Y80035D01*
X172902Y80224D01*
X172659Y80371D01*
X172406Y80464D01*
X171950Y80524D01*
X151036Y80524D01*
X150717Y80494D01*
X150444Y80415D01*
X150190Y80287D01*
X149965Y80114D01*
X149776Y79902D01*
X149629Y79659D01*
X149536Y79406D01*
X149476Y78950D01*
X149476Y52036D01*
X149506Y51717D01*
X149585Y51444D01*
X149710Y51197D01*
X149953Y50892D01*
X151897Y48948D01*
X152144Y48743D01*
X152392Y48606D01*
X152656Y48520D01*
X153043Y48476D01*
X155053Y48476D01*
X155339Y48420D01*
X155592Y48253D01*
X160750Y43095D01*
X160900Y42881D01*
X160973Y42586D01*
X160924Y42287D01*
X160763Y42030D01*
X160514Y41857D01*
X160217Y41794D01*
X159920Y41852D01*
X159079Y42200D01*
X155504Y42200D01*
X155504Y26120D01*
X159079Y26120D01*
X162034Y27344D01*
X163905Y29215D01*
X164125Y29368D01*
X164420Y29438D01*
X164719Y29387D01*
X164974Y29223D01*
X165146Y28973D01*
X165206Y28676D01*
X165206Y23529D01*
X166099Y22636D01*
X166187Y22636D01*
X166452Y22589D01*
X166595Y22536D01*
X167050Y22476D01*
X170964Y22476D01*
X171283Y22506D01*
X171625Y22604D01*
X171630Y22586D01*
X171839Y22636D01*
X171977Y22636D01*
X172218Y22689D01*
X172502Y22636D01*
X178477Y22636D01*
X178718Y22689D01*
X179002Y22636D01*
X184977Y22636D01*
X185218Y22689D01*
X185502Y22636D01*
X190346Y22636D01*
X190632Y22580D01*
X190885Y22413D01*
X191678Y21620D01*
G37*
G36*
X137524Y75460D02*
X141552Y75460D01*
X143040Y76948D01*
X143040Y79976D01*
X137524Y79976D01*
X137524Y75460D01*
G37*
G36*
X130448Y75460D02*
X134476Y75460D01*
X134476Y79976D01*
X128960Y79976D01*
X128960Y76948D01*
X130448Y75460D01*
G37*
G36*
X170961Y57604D02*
X175477Y57604D01*
X175477Y61632D01*
X173989Y63120D01*
X170961Y63120D01*
X170961Y57604D01*
G37*
G36*
X77000Y22410D02*
X77586Y22410D01*
X78379Y23203D01*
X78621Y23366D01*
X78918Y23426D01*
X82166Y23426D01*
X82461Y23722D01*
X82692Y23880D01*
X82988Y23945D01*
X83286Y23889D01*
X83539Y23722D01*
X83834Y23426D01*
X87166Y23426D01*
X87461Y23722D01*
X87692Y23880D01*
X87988Y23945D01*
X88286Y23889D01*
X88539Y23722D01*
X88834Y23426D01*
X92166Y23426D01*
X92461Y23722D01*
X92692Y23880D01*
X92988Y23945D01*
X93286Y23889D01*
X93539Y23722D01*
X93834Y23426D01*
X97166Y23426D01*
X97461Y23722D01*
X97692Y23880D01*
X97988Y23945D01*
X98286Y23889D01*
X98539Y23722D01*
X98834Y23426D01*
X102166Y23426D01*
X102461Y23722D01*
X102692Y23880D01*
X102988Y23945D01*
X103286Y23889D01*
X103539Y23722D01*
X103834Y23426D01*
X107166Y23426D01*
X108524Y24784D01*
X108524Y36816D01*
X107166Y38174D01*
X103834Y38174D01*
X103539Y37878D01*
X103308Y37720D01*
X103012Y37655D01*
X102714Y37711D01*
X102461Y37878D01*
X102166Y38174D01*
X98834Y38174D01*
X98539Y37878D01*
X98308Y37720D01*
X98012Y37655D01*
X97714Y37711D01*
X97461Y37878D01*
X97166Y38174D01*
X93802Y38174D01*
X93527Y38225D01*
X93272Y38389D01*
X93100Y38639D01*
X93040Y38936D01*
X93040Y41132D01*
X93096Y41418D01*
X93263Y41671D01*
X98505Y46913D01*
X98736Y47071D01*
X99032Y47136D01*
X99330Y47081D01*
X99583Y46913D01*
X101802Y44694D01*
X106198Y44694D01*
X109306Y47802D01*
X109306Y52198D01*
X106198Y55306D01*
X101802Y55306D01*
X99259Y52763D01*
X99018Y52600D01*
X98721Y52540D01*
X96948Y52540D01*
X92607Y48199D01*
X92387Y48046D01*
X92092Y47976D01*
X91793Y48027D01*
X91538Y48190D01*
X91366Y48441D01*
X91306Y48738D01*
X91306Y52198D01*
X88198Y55306D01*
X83802Y55306D01*
X80694Y52198D01*
X80694Y47738D01*
X80647Y47474D01*
X80488Y47216D01*
X80240Y47041D01*
X79944Y46976D01*
X79646Y47031D01*
X79393Y47199D01*
X78529Y48063D01*
X78366Y48305D01*
X78306Y48602D01*
X78306Y52198D01*
X75198Y55306D01*
X70802Y55306D01*
X67694Y52198D01*
X67694Y47802D01*
X70802Y44694D01*
X74398Y44694D01*
X74684Y44638D01*
X74937Y44471D01*
X77737Y41671D01*
X77900Y41430D01*
X77960Y41132D01*
X77960Y39952D01*
X77909Y39677D01*
X77745Y39422D01*
X77495Y39250D01*
X77198Y39190D01*
X77000Y39190D01*
X77000Y22410D01*
G37*
G36*
X12802Y27694D02*
X17198Y27694D01*
X20306Y30802D01*
X20306Y35198D01*
X18329Y37175D01*
X18176Y37395D01*
X18106Y37690D01*
X18157Y37989D01*
X18320Y38244D01*
X18570Y38416D01*
X18867Y38476D01*
X20631Y38476D01*
X21524Y39369D01*
X21524Y51631D01*
X20631Y52524D01*
X9369Y52524D01*
X8476Y51631D01*
X8476Y39369D01*
X9369Y38476D01*
X11133Y38476D01*
X11396Y38429D01*
X11654Y38270D01*
X11829Y38022D01*
X11894Y37726D01*
X11839Y37428D01*
X11671Y37175D01*
X9694Y35198D01*
X9694Y30802D01*
X12802Y27694D01*
G37*
G36*
X142440Y35684D02*
X152456Y35684D01*
X152456Y42200D01*
X148881Y42200D01*
X145926Y40976D01*
X143664Y38714D01*
X142440Y35759D01*
X142440Y35684D01*
G37*
G36*
X196504Y21620D02*
X198282Y21620D01*
X199770Y23108D01*
X199770Y27660D01*
X199817Y27923D01*
X199976Y28181D01*
X200224Y28357D01*
X200520Y28422D01*
X200818Y28366D01*
X201071Y28199D01*
X201926Y27344D01*
X204881Y26120D01*
X208456Y26120D01*
X208456Y42200D01*
X204881Y42200D01*
X201926Y40976D01*
X201005Y40055D01*
X200774Y39897D01*
X200478Y39832D01*
X200180Y39888D01*
X199927Y40055D01*
X198282Y41700D01*
X196504Y41700D01*
X196504Y21620D01*
G37*
G36*
X211504Y35684D02*
X221520Y35684D01*
X221520Y35759D01*
X220296Y38714D01*
X218034Y40976D01*
X215079Y42200D01*
X211504Y42200D01*
X211504Y35684D01*
G37*
G36*
X66369Y7976D02*
X74631Y7976D01*
X75524Y8869D01*
X75524Y19131D01*
X74631Y20024D01*
X74310Y20024D01*
X74035Y20075D01*
X73780Y20239D01*
X73608Y20489D01*
X73548Y20786D01*
X73548Y21648D01*
X73599Y21923D01*
X73763Y22178D01*
X74000Y22341D01*
X74000Y39190D01*
X73414Y39190D01*
X72621Y38397D01*
X72379Y38234D01*
X72082Y38174D01*
X68834Y38174D01*
X68539Y37878D01*
X68308Y37720D01*
X68012Y37655D01*
X67714Y37711D01*
X67461Y37878D01*
X67166Y38174D01*
X63834Y38174D01*
X63539Y37878D01*
X63308Y37720D01*
X63012Y37655D01*
X62714Y37711D01*
X62461Y37878D01*
X62166Y38174D01*
X58834Y38174D01*
X58539Y37878D01*
X58308Y37720D01*
X58012Y37655D01*
X57714Y37711D01*
X57461Y37878D01*
X57166Y38174D01*
X53834Y38174D01*
X53539Y37878D01*
X53308Y37720D01*
X53012Y37655D01*
X52714Y37711D01*
X52461Y37878D01*
X52166Y38174D01*
X48834Y38174D01*
X47476Y36816D01*
X47476Y24784D01*
X48834Y23426D01*
X52166Y23426D01*
X52461Y23722D01*
X52692Y23880D01*
X52988Y23945D01*
X53286Y23889D01*
X53539Y23722D01*
X53834Y23426D01*
X57166Y23426D01*
X57461Y23722D01*
X57692Y23880D01*
X57988Y23945D01*
X58286Y23889D01*
X58539Y23722D01*
X58834Y23426D01*
X62166Y23426D01*
X62461Y23722D01*
X62692Y23880D01*
X62988Y23945D01*
X63286Y23889D01*
X63539Y23722D01*
X63834Y23426D01*
X66690Y23426D01*
X66965Y23375D01*
X67220Y23211D01*
X67392Y22961D01*
X67452Y22664D01*
X67452Y20786D01*
X67401Y20511D01*
X67237Y20256D01*
X66987Y20084D01*
X66690Y20024D01*
X66369Y20024D01*
X65476Y19131D01*
X65476Y17810D01*
X65425Y17535D01*
X65261Y17280D01*
X65011Y17108D01*
X64714Y17048D01*
X63771Y17048D01*
X63485Y17104D01*
X63233Y17271D01*
X61198Y19306D01*
X56802Y19306D01*
X53694Y16198D01*
X53694Y11802D01*
X56802Y8694D01*
X61198Y8694D01*
X63233Y10729D01*
X63474Y10892D01*
X63771Y10952D01*
X64714Y10952D01*
X64989Y10901D01*
X65244Y10737D01*
X65416Y10487D01*
X65476Y10190D01*
X65476Y8869D01*
X66369Y7976D01*
G37*
G36*
X211504Y26120D02*
X215079Y26120D01*
X218034Y27344D01*
X220296Y29606D01*
X221520Y32561D01*
X221520Y32636D01*
X211504Y32636D01*
X211504Y26120D01*
G37*
G36*
X148881Y26120D02*
X152456Y26120D01*
X152456Y32636D01*
X142440Y32636D01*
X142440Y32561D01*
X143664Y29606D01*
X145926Y27344D01*
X148881Y26120D01*
G37*
G36*
X77460Y15524D02*
X81976Y15524D01*
X81976Y21040D01*
X78948Y21040D01*
X77460Y19552D01*
X77460Y15524D01*
G37*
G36*
X85024Y15524D02*
X89540Y15524D01*
X89540Y19552D01*
X88052Y21040D01*
X85024Y21040D01*
X85024Y15524D01*
G37*
G36*
X168440Y14184D02*
X180456Y14184D01*
X180456Y20700D01*
X174881Y20700D01*
X171926Y19476D01*
X169664Y17214D01*
X168440Y14259D01*
X168440Y14184D01*
G37*
G36*
X183504Y14184D02*
X195520Y14184D01*
X195520Y14259D01*
X194296Y17214D01*
X192034Y19476D01*
X189079Y20700D01*
X183504Y20700D01*
X183504Y14184D01*
G37*
G36*
X85024Y6960D02*
X88052Y6960D01*
X89540Y8448D01*
X89540Y12476D01*
X85024Y12476D01*
X85024Y6960D01*
G37*
G36*
X78948Y6960D02*
X81976Y6960D01*
X81976Y12476D01*
X77460Y12476D01*
X77460Y8448D01*
X78948Y6960D01*
G37*
G36*
X183504Y4620D02*
X189079Y4620D01*
X192034Y5844D01*
X194296Y8106D01*
X195520Y11061D01*
X195520Y11136D01*
X183504Y11136D01*
X183504Y4620D01*
G37*
G36*
X174881Y4620D02*
X180456Y4620D01*
X180456Y11136D01*
X168440Y11136D01*
X168440Y11061D01*
X169664Y8106D01*
X171926Y5844D01*
X174881Y4620D01*
G37*
%LPD*%
G36*
X233975Y79080D02*
X233579Y79000D01*
X187421Y79000D01*
X187040Y79074D01*
X186702Y79298D01*
X175040Y90960D01*
X175008Y90985D01*
X174997Y90990D01*
X174929Y91000D01*
X153421Y91000D01*
X153040Y91074D01*
X152702Y91298D01*
X152298Y91702D01*
X152080Y92025D01*
X152000Y92421D01*
X152000Y99579D01*
X152074Y99961D01*
X152298Y100298D01*
X153702Y101702D01*
X154025Y101920D01*
X154421Y102000D01*
X174943Y102000D01*
X174984Y102005D01*
X174995Y102009D01*
X175051Y102051D01*
X186702Y113702D01*
X187025Y113920D01*
X187421Y114000D01*
X233579Y114000D01*
X233961Y113926D01*
X234298Y113702D01*
X234702Y113298D01*
X234920Y112975D01*
X235000Y112579D01*
X235000Y80421D01*
X234926Y80040D01*
X234702Y79702D01*
X234298Y79298D01*
X233975Y79080D01*
G37*
G36*
X170535Y24060D02*
X170238Y24000D01*
X167762Y24000D01*
X167487Y24051D01*
X167232Y24215D01*
X167060Y24465D01*
X167000Y24762D01*
X167000Y38912D01*
X166975Y39017D01*
X166956Y39044D01*
X156062Y49938D01*
X155970Y49995D01*
X155938Y50000D01*
X153316Y50000D01*
X153030Y50056D01*
X152777Y50223D01*
X151223Y51777D01*
X151060Y52018D01*
X151000Y52316D01*
X151000Y78238D01*
X151051Y78513D01*
X151215Y78768D01*
X151465Y78940D01*
X151762Y79000D01*
X171238Y79000D01*
X171513Y78949D01*
X171768Y78785D01*
X171940Y78535D01*
X172000Y78238D01*
X172000Y68316D01*
X171944Y68030D01*
X171777Y67777D01*
X171223Y67223D01*
X170982Y67060D01*
X170684Y67000D01*
X162088Y67000D01*
X161983Y66975D01*
X161956Y66956D01*
X161062Y66062D01*
X161005Y65970D01*
X161000Y65938D01*
X161000Y50088D01*
X161025Y49983D01*
X161044Y49956D01*
X170777Y40223D01*
X170940Y39982D01*
X171000Y39684D01*
X171000Y24762D01*
X170949Y24487D01*
X170785Y24232D01*
X170535Y24060D01*
G37*
D10*
X86360Y169362D03*
X86360Y179512D03*
D11*
X103826Y177015D03*
X111826Y177015D03*
X119826Y177015D03*
X127826Y177015D03*
X135826Y177015D03*
X143826Y177015D03*
D12*
X144826Y166015D03*
D11*
X143826Y155015D03*
X135826Y155015D03*
X127826Y155015D03*
X119826Y155015D03*
X111826Y155015D03*
X103826Y155015D03*
D12*
X102826Y166015D03*
D13*
X161211Y119779D03*
X161211Y96665D03*
X161211Y73551D03*
D14*
X225219Y96665D03*
D15*
X168980Y31660D03*
X175480Y31660D03*
X181980Y31660D03*
X188480Y31660D03*
X194980Y31660D03*
D16*
X206480Y34160D02*
X213480Y34160D01*
X187480Y12660D02*
X176480Y12660D01*
X157480Y34160D02*
X150480Y34160D01*
D17*
X156437Y56080D03*
X169437Y56080D03*
D18*
X41855Y100205D02*
X31745Y100205D01*
X41855Y100205D02*
X41855Y98795D01*
X31745Y98795D01*
X31745Y100205D01*
X31745Y95205D02*
X41855Y95205D01*
X41855Y93795D01*
X31745Y93795D01*
X31745Y95205D01*
X31745Y90205D02*
X41855Y90205D01*
X41855Y88795D01*
X31745Y88795D01*
X31745Y90205D01*
X31745Y85205D02*
X41855Y85205D01*
X41855Y83795D01*
X31745Y83795D01*
X31745Y85205D01*
X31745Y80205D02*
X41855Y80205D01*
X41855Y78795D01*
X31745Y78795D01*
X31745Y80205D01*
X31745Y75205D02*
X41855Y75205D01*
X41855Y73795D01*
X31745Y73795D01*
X31745Y75205D01*
X31745Y70205D02*
X41855Y70205D01*
X41855Y68795D01*
X31745Y68795D01*
X31745Y70205D01*
X31745Y65205D02*
X41855Y65205D01*
X41855Y63795D01*
X31745Y63795D01*
X31745Y65205D01*
X31745Y60205D02*
X41855Y60205D01*
X41855Y58795D01*
X31745Y58795D01*
X31745Y60205D01*
X31745Y55205D02*
X41855Y55205D01*
X41855Y53795D01*
X31745Y53795D01*
X31745Y55205D01*
X31745Y50205D02*
X41855Y50205D01*
X41855Y48795D01*
X31745Y48795D01*
X31745Y50205D01*
X31745Y45205D02*
X41855Y45205D01*
X41855Y43795D01*
X31745Y43795D01*
X31745Y45205D01*
X49795Y35855D02*
X49795Y25745D01*
X49795Y35855D02*
X51205Y35855D01*
X51205Y25745D01*
X49795Y25745D01*
X49795Y27255D02*
X51205Y27255D01*
X51205Y28765D02*
X49795Y28765D01*
X49795Y30275D02*
X51205Y30275D01*
X51205Y31785D02*
X49795Y31785D01*
X49795Y33295D02*
X51205Y33295D01*
X51205Y34805D02*
X49795Y34805D01*
X54795Y35855D02*
X54795Y25745D01*
X54795Y35855D02*
X56205Y35855D01*
X56205Y25745D01*
X54795Y25745D01*
X54795Y27255D02*
X56205Y27255D01*
X56205Y28765D02*
X54795Y28765D01*
X54795Y30275D02*
X56205Y30275D01*
X56205Y31785D02*
X54795Y31785D01*
X54795Y33295D02*
X56205Y33295D01*
X56205Y34805D02*
X54795Y34805D01*
X59795Y35855D02*
X59795Y25745D01*
X59795Y35855D02*
X61205Y35855D01*
X61205Y25745D01*
X59795Y25745D01*
X59795Y27255D02*
X61205Y27255D01*
X61205Y28765D02*
X59795Y28765D01*
X59795Y30275D02*
X61205Y30275D01*
X61205Y31785D02*
X59795Y31785D01*
X59795Y33295D02*
X61205Y33295D01*
X61205Y34805D02*
X59795Y34805D01*
X64795Y35855D02*
X64795Y25745D01*
X64795Y35855D02*
X66205Y35855D01*
X66205Y25745D01*
X64795Y25745D01*
X64795Y27255D02*
X66205Y27255D01*
X66205Y28765D02*
X64795Y28765D01*
X64795Y30275D02*
X66205Y30275D01*
X66205Y31785D02*
X64795Y31785D01*
X64795Y33295D02*
X66205Y33295D01*
X66205Y34805D02*
X64795Y34805D01*
X69795Y35855D02*
X69795Y25745D01*
X69795Y35855D02*
X71205Y35855D01*
X71205Y25745D01*
X69795Y25745D01*
X69795Y27255D02*
X71205Y27255D01*
X71205Y28765D02*
X69795Y28765D01*
X69795Y30275D02*
X71205Y30275D01*
X71205Y31785D02*
X69795Y31785D01*
X69795Y33295D02*
X71205Y33295D01*
X71205Y34805D02*
X69795Y34805D01*
X74795Y35855D02*
X74795Y25745D01*
X74795Y35855D02*
X76205Y35855D01*
X76205Y25745D01*
X74795Y25745D01*
X74795Y27255D02*
X76205Y27255D01*
X76205Y28765D02*
X74795Y28765D01*
X74795Y30275D02*
X76205Y30275D01*
X76205Y31785D02*
X74795Y31785D01*
X74795Y33295D02*
X76205Y33295D01*
X76205Y34805D02*
X74795Y34805D01*
X79795Y35855D02*
X79795Y25745D01*
X79795Y35855D02*
X81205Y35855D01*
X81205Y25745D01*
X79795Y25745D01*
X79795Y27255D02*
X81205Y27255D01*
X81205Y28765D02*
X79795Y28765D01*
X79795Y30275D02*
X81205Y30275D01*
X81205Y31785D02*
X79795Y31785D01*
X79795Y33295D02*
X81205Y33295D01*
X81205Y34805D02*
X79795Y34805D01*
X84795Y35855D02*
X84795Y25745D01*
X84795Y35855D02*
X86205Y35855D01*
X86205Y25745D01*
X84795Y25745D01*
X84795Y27255D02*
X86205Y27255D01*
X86205Y28765D02*
X84795Y28765D01*
X84795Y30275D02*
X86205Y30275D01*
X86205Y31785D02*
X84795Y31785D01*
X84795Y33295D02*
X86205Y33295D01*
X86205Y34805D02*
X84795Y34805D01*
X89795Y35855D02*
X89795Y25745D01*
X89795Y35855D02*
X91205Y35855D01*
X91205Y25745D01*
X89795Y25745D01*
X89795Y27255D02*
X91205Y27255D01*
X91205Y28765D02*
X89795Y28765D01*
X89795Y30275D02*
X91205Y30275D01*
X91205Y31785D02*
X89795Y31785D01*
X89795Y33295D02*
X91205Y33295D01*
X91205Y34805D02*
X89795Y34805D01*
X94795Y35855D02*
X94795Y25745D01*
X94795Y35855D02*
X96205Y35855D01*
X96205Y25745D01*
X94795Y25745D01*
X94795Y27255D02*
X96205Y27255D01*
X96205Y28765D02*
X94795Y28765D01*
X94795Y30275D02*
X96205Y30275D01*
X96205Y31785D02*
X94795Y31785D01*
X94795Y33295D02*
X96205Y33295D01*
X96205Y34805D02*
X94795Y34805D01*
X99795Y35855D02*
X99795Y25745D01*
X99795Y35855D02*
X101205Y35855D01*
X101205Y25745D01*
X99795Y25745D01*
X99795Y27255D02*
X101205Y27255D01*
X101205Y28765D02*
X99795Y28765D01*
X99795Y30275D02*
X101205Y30275D01*
X101205Y31785D02*
X99795Y31785D01*
X99795Y33295D02*
X101205Y33295D01*
X101205Y34805D02*
X99795Y34805D01*
X104795Y35855D02*
X104795Y25745D01*
X104795Y35855D02*
X106205Y35855D01*
X106205Y25745D01*
X104795Y25745D01*
X104795Y27255D02*
X106205Y27255D01*
X106205Y28765D02*
X104795Y28765D01*
X104795Y30275D02*
X106205Y30275D01*
X106205Y31785D02*
X104795Y31785D01*
X104795Y33295D02*
X106205Y33295D01*
X106205Y34805D02*
X104795Y34805D01*
X114145Y43795D02*
X124255Y43795D01*
X114145Y43795D02*
X114145Y45205D01*
X124255Y45205D01*
X124255Y43795D01*
X124255Y48795D02*
X114145Y48795D01*
X114145Y50205D01*
X124255Y50205D01*
X124255Y48795D01*
X124255Y53795D02*
X114145Y53795D01*
X114145Y55205D01*
X124255Y55205D01*
X124255Y53795D01*
X124255Y58795D02*
X114145Y58795D01*
X114145Y60205D01*
X124255Y60205D01*
X124255Y58795D01*
X124255Y63795D02*
X114145Y63795D01*
X114145Y65205D01*
X124255Y65205D01*
X124255Y63795D01*
X124255Y68795D02*
X114145Y68795D01*
X114145Y70205D01*
X124255Y70205D01*
X124255Y68795D01*
X124255Y73795D02*
X114145Y73795D01*
X114145Y75205D01*
X124255Y75205D01*
X124255Y73795D01*
X124255Y78795D02*
X114145Y78795D01*
X114145Y80205D01*
X124255Y80205D01*
X124255Y78795D01*
X124255Y83795D02*
X114145Y83795D01*
X114145Y85205D01*
X124255Y85205D01*
X124255Y83795D01*
X124255Y88795D02*
X114145Y88795D01*
X114145Y90205D01*
X124255Y90205D01*
X124255Y88795D01*
X124255Y93795D02*
X114145Y93795D01*
X114145Y95205D01*
X124255Y95205D01*
X124255Y93795D01*
X124255Y98795D02*
X114145Y98795D01*
X114145Y100205D01*
X124255Y100205D01*
X124255Y98795D01*
X106205Y108145D02*
X106205Y118255D01*
X106205Y108145D02*
X104795Y108145D01*
X104795Y118255D01*
X106205Y118255D01*
X106205Y109655D02*
X104795Y109655D01*
X104795Y111165D02*
X106205Y111165D01*
X106205Y112675D02*
X104795Y112675D01*
X104795Y114185D02*
X106205Y114185D01*
X106205Y115695D02*
X104795Y115695D01*
X104795Y117205D02*
X106205Y117205D01*
X101205Y118255D02*
X101205Y108145D01*
X99795Y108145D01*
X99795Y118255D01*
X101205Y118255D01*
X101205Y109655D02*
X99795Y109655D01*
X99795Y111165D02*
X101205Y111165D01*
X101205Y112675D02*
X99795Y112675D01*
X99795Y114185D02*
X101205Y114185D01*
X101205Y115695D02*
X99795Y115695D01*
X99795Y117205D02*
X101205Y117205D01*
X96205Y118255D02*
X96205Y108145D01*
X94795Y108145D01*
X94795Y118255D01*
X96205Y118255D01*
X96205Y109655D02*
X94795Y109655D01*
X94795Y111165D02*
X96205Y111165D01*
X96205Y112675D02*
X94795Y112675D01*
X94795Y114185D02*
X96205Y114185D01*
X96205Y115695D02*
X94795Y115695D01*
X94795Y117205D02*
X96205Y117205D01*
X91205Y118255D02*
X91205Y108145D01*
X89795Y108145D01*
X89795Y118255D01*
X91205Y118255D01*
X91205Y109655D02*
X89795Y109655D01*
X89795Y111165D02*
X91205Y111165D01*
X91205Y112675D02*
X89795Y112675D01*
X89795Y114185D02*
X91205Y114185D01*
X91205Y115695D02*
X89795Y115695D01*
X89795Y117205D02*
X91205Y117205D01*
X86205Y118255D02*
X86205Y108145D01*
X84795Y108145D01*
X84795Y118255D01*
X86205Y118255D01*
X86205Y109655D02*
X84795Y109655D01*
X84795Y111165D02*
X86205Y111165D01*
X86205Y112675D02*
X84795Y112675D01*
X84795Y114185D02*
X86205Y114185D01*
X86205Y115695D02*
X84795Y115695D01*
X84795Y117205D02*
X86205Y117205D01*
X81205Y118255D02*
X81205Y108145D01*
X79795Y108145D01*
X79795Y118255D01*
X81205Y118255D01*
X81205Y109655D02*
X79795Y109655D01*
X79795Y111165D02*
X81205Y111165D01*
X81205Y112675D02*
X79795Y112675D01*
X79795Y114185D02*
X81205Y114185D01*
X81205Y115695D02*
X79795Y115695D01*
X79795Y117205D02*
X81205Y117205D01*
X76205Y118255D02*
X76205Y108145D01*
X74795Y108145D01*
X74795Y118255D01*
X76205Y118255D01*
X76205Y109655D02*
X74795Y109655D01*
X74795Y111165D02*
X76205Y111165D01*
X76205Y112675D02*
X74795Y112675D01*
X74795Y114185D02*
X76205Y114185D01*
X76205Y115695D02*
X74795Y115695D01*
X74795Y117205D02*
X76205Y117205D01*
X71205Y118255D02*
X71205Y108145D01*
X69795Y108145D01*
X69795Y118255D01*
X71205Y118255D01*
X71205Y109655D02*
X69795Y109655D01*
X69795Y111165D02*
X71205Y111165D01*
X71205Y112675D02*
X69795Y112675D01*
X69795Y114185D02*
X71205Y114185D01*
X71205Y115695D02*
X69795Y115695D01*
X69795Y117205D02*
X71205Y117205D01*
X66205Y118255D02*
X66205Y108145D01*
X64795Y108145D01*
X64795Y118255D01*
X66205Y118255D01*
X66205Y109655D02*
X64795Y109655D01*
X64795Y111165D02*
X66205Y111165D01*
X66205Y112675D02*
X64795Y112675D01*
X64795Y114185D02*
X66205Y114185D01*
X66205Y115695D02*
X64795Y115695D01*
X64795Y117205D02*
X66205Y117205D01*
X61205Y118255D02*
X61205Y108145D01*
X59795Y108145D01*
X59795Y118255D01*
X61205Y118255D01*
X61205Y109655D02*
X59795Y109655D01*
X59795Y111165D02*
X61205Y111165D01*
X61205Y112675D02*
X59795Y112675D01*
X59795Y114185D02*
X61205Y114185D01*
X61205Y115695D02*
X59795Y115695D01*
X59795Y117205D02*
X61205Y117205D01*
X56205Y118255D02*
X56205Y108145D01*
X54795Y108145D01*
X54795Y118255D01*
X56205Y118255D01*
X56205Y109655D02*
X54795Y109655D01*
X54795Y111165D02*
X56205Y111165D01*
X56205Y112675D02*
X54795Y112675D01*
X54795Y114185D02*
X56205Y114185D01*
X56205Y115695D02*
X54795Y115695D01*
X54795Y117205D02*
X56205Y117205D01*
X51205Y118255D02*
X51205Y108145D01*
X49795Y108145D01*
X49795Y118255D01*
X51205Y118255D01*
X51205Y109655D02*
X49795Y109655D01*
X49795Y111165D02*
X51205Y111165D01*
X51205Y112675D02*
X49795Y112675D01*
X49795Y114185D02*
X51205Y114185D01*
X51205Y115695D02*
X49795Y115695D01*
X49795Y117205D02*
X51205Y117205D01*
D19*
X15000Y62500D03*
X15000Y45500D03*
D20*
X164000Y179500D03*
X164000Y166500D03*
D17*
X169500Y137000D03*
X156500Y137000D03*
D20*
X15000Y77500D03*
X15000Y90500D03*
D17*
X87500Y129000D03*
X100500Y129000D03*
D20*
X136000Y94500D03*
X136000Y81500D03*
D17*
X70500Y14000D03*
X83500Y14000D03*
X68500Y129000D03*
X55500Y129000D03*
D21*
X11000Y127000D03*
X11000Y113000D03*
D17*
X24500Y127000D03*
X37500Y127000D03*
X24500Y115000D03*
X37500Y115000D03*
D22*
X125000Y126500D03*
X125000Y111500D03*
D10*
X141000Y121075D03*
X141000Y110925D03*
D23*
X216000Y56000D03*
X227000Y56000D03*
X207000Y125000D03*
X218000Y125000D03*
X229000Y125000D03*
X15000Y19000D03*
X26000Y19000D03*
X37000Y19000D03*
D24*
X175480Y31660D02*
X175480Y42480D01*
X175482Y42662D01*
X175489Y42843D01*
X175500Y43025D01*
X175515Y43206D01*
X175535Y43386D01*
X175559Y43567D01*
X175587Y43746D01*
X175620Y43925D01*
X175657Y44103D01*
X175699Y44280D01*
X175744Y44456D01*
X175794Y44630D01*
X175848Y44804D01*
X175906Y44976D01*
X175969Y45147D01*
X176035Y45316D01*
X176106Y45483D01*
X176180Y45649D01*
X176259Y45813D01*
X176341Y45975D01*
X176428Y46135D01*
X176518Y46292D01*
X176612Y46448D01*
X176710Y46601D01*
X176811Y46752D01*
X176916Y46900D01*
X177025Y47046D01*
X177137Y47189D01*
X177252Y47329D01*
X177371Y47467D01*
X177493Y47601D01*
X177619Y47733D01*
X177747Y47861D01*
X177879Y47987D01*
X178013Y48109D01*
X178151Y48228D01*
X178291Y48343D01*
X178434Y48455D01*
X178580Y48564D01*
X178728Y48669D01*
X178879Y48770D01*
X179032Y48868D01*
X179188Y48962D01*
X179345Y49052D01*
X179505Y49139D01*
X179667Y49221D01*
X179831Y49300D01*
X179997Y49374D01*
X180164Y49445D01*
X180333Y49511D01*
X180504Y49574D01*
X180676Y49632D01*
X180850Y49686D01*
X181024Y49736D01*
X181200Y49781D01*
X181377Y49823D01*
X181555Y49860D01*
X181734Y49893D01*
X181913Y49921D01*
X182094Y49945D01*
X182274Y49965D01*
X182455Y49980D01*
X182637Y49991D01*
X182818Y49998D01*
X183000Y50000D01*
X185000Y50000D01*
X185152Y50002D01*
X185304Y50008D01*
X185456Y50017D01*
X185607Y50031D01*
X185758Y50048D01*
X185909Y50069D01*
X186059Y50094D01*
X186208Y50123D01*
X186356Y50155D01*
X186504Y50192D01*
X186651Y50231D01*
X186796Y50275D01*
X186941Y50323D01*
X187084Y50373D01*
X187226Y50428D01*
X187366Y50486D01*
X187505Y50548D01*
X187642Y50613D01*
X187778Y50682D01*
X187912Y50754D01*
X188044Y50829D01*
X188174Y50908D01*
X188302Y50990D01*
X188428Y51075D01*
X188551Y51164D01*
X188673Y51255D01*
X188792Y51350D01*
X188908Y51447D01*
X189022Y51548D01*
X189134Y51651D01*
X189243Y51757D01*
X189349Y51866D01*
X189452Y51978D01*
X189553Y52092D01*
X189650Y52208D01*
X189745Y52327D01*
X189836Y52449D01*
X189925Y52572D01*
X190010Y52698D01*
X190092Y52826D01*
X190171Y52956D01*
X190246Y53088D01*
X190318Y53222D01*
X190387Y53358D01*
X190452Y53495D01*
X190514Y53634D01*
X190572Y53774D01*
X190627Y53916D01*
X190677Y54059D01*
X190725Y54204D01*
X190769Y54349D01*
X190808Y54496D01*
X190845Y54644D01*
X190877Y54792D01*
X190906Y54941D01*
X190931Y55091D01*
X190952Y55242D01*
X190969Y55393D01*
X190983Y55544D01*
X190992Y55696D01*
X190998Y55848D01*
X191000Y56000D01*
D23*
X191000Y56000D03*
X90000Y84000D03*
D24*
X118700Y84000D01*
D25*
X118744Y84002D01*
X118787Y84008D01*
X118829Y84017D01*
X118871Y84030D01*
X118911Y84047D01*
X118950Y84067D01*
X118987Y84090D01*
X119021Y84117D01*
X119054Y84146D01*
X119083Y84179D01*
X119110Y84213D01*
X119133Y84250D01*
X119153Y84289D01*
X119170Y84329D01*
X119183Y84371D01*
X119192Y84413D01*
X119198Y84456D01*
X119200Y84500D01*
D24*
X181980Y39980D02*
X181980Y31660D01*
X181980Y39980D02*
X181982Y40133D01*
X181988Y40285D01*
X181997Y40437D01*
X182011Y40589D01*
X182028Y40741D01*
X182049Y40892D01*
X182074Y41042D01*
X182103Y41192D01*
X182136Y41341D01*
X182172Y41489D01*
X182212Y41636D01*
X182256Y41782D01*
X182304Y41927D01*
X182355Y42071D01*
X182410Y42213D01*
X182468Y42354D01*
X182530Y42493D01*
X182595Y42631D01*
X182664Y42767D01*
X182736Y42902D01*
X182812Y43034D01*
X182891Y43164D01*
X182973Y43293D01*
X183059Y43419D01*
X183148Y43543D01*
X183240Y43665D01*
X183334Y43784D01*
X183432Y43901D01*
X183533Y44016D01*
X183637Y44128D01*
X183743Y44237D01*
X183852Y44343D01*
X183964Y44447D01*
X184079Y44548D01*
X184196Y44646D01*
X184315Y44740D01*
X184437Y44832D01*
X184561Y44921D01*
X184687Y45007D01*
X184816Y45089D01*
X184946Y45168D01*
X185078Y45244D01*
X185213Y45316D01*
X185349Y45385D01*
X185487Y45450D01*
X185626Y45512D01*
X185767Y45570D01*
X185909Y45625D01*
X186053Y45676D01*
X186198Y45724D01*
X186344Y45768D01*
X186491Y45808D01*
X186639Y45844D01*
X186788Y45877D01*
X186938Y45906D01*
X187088Y45931D01*
X187239Y45952D01*
X187391Y45969D01*
X187543Y45983D01*
X187695Y45992D01*
X187847Y45998D01*
X188000Y46000D01*
X191000Y46000D01*
X191242Y46003D01*
X191483Y46012D01*
X191724Y46026D01*
X191965Y46047D01*
X192205Y46073D01*
X192445Y46105D01*
X192684Y46143D01*
X192921Y46186D01*
X193158Y46236D01*
X193393Y46291D01*
X193627Y46351D01*
X193859Y46418D01*
X194090Y46489D01*
X194319Y46567D01*
X194546Y46650D01*
X194771Y46738D01*
X194994Y46832D01*
X195214Y46931D01*
X195432Y47036D01*
X195647Y47145D01*
X195860Y47260D01*
X196070Y47380D01*
X196276Y47505D01*
X196480Y47635D01*
X196681Y47770D01*
X196878Y47910D01*
X197072Y48054D01*
X197262Y48203D01*
X197448Y48357D01*
X197631Y48515D01*
X197810Y48677D01*
X197985Y48844D01*
X198156Y49015D01*
X198323Y49190D01*
X198485Y49369D01*
X198643Y49552D01*
X198797Y49738D01*
X198946Y49928D01*
X199090Y50122D01*
X199230Y50319D01*
X199365Y50520D01*
X199495Y50724D01*
X199620Y50930D01*
X199740Y51140D01*
X199855Y51353D01*
X199964Y51568D01*
X200069Y51786D01*
X200168Y52006D01*
X200262Y52229D01*
X200350Y52454D01*
X200433Y52681D01*
X200511Y52910D01*
X200582Y53141D01*
X200649Y53373D01*
X200709Y53607D01*
X200764Y53842D01*
X200814Y54079D01*
X200857Y54316D01*
X200895Y54555D01*
X200927Y54795D01*
X200953Y55035D01*
X200974Y55276D01*
X200988Y55517D01*
X200997Y55758D01*
X201000Y56000D01*
D23*
X201000Y56000D03*
X104000Y91068D03*
D24*
X105568Y89500D02*
X119200Y89500D01*
X105568Y89500D02*
X105491Y89502D01*
X105414Y89508D01*
X105338Y89517D01*
X105262Y89530D01*
X105187Y89547D01*
X105113Y89568D01*
X105040Y89592D01*
X104968Y89619D01*
X104898Y89651D01*
X104829Y89685D01*
X104762Y89723D01*
X104697Y89764D01*
X104634Y89809D01*
X104573Y89856D01*
X104515Y89906D01*
X104459Y89959D01*
X104406Y90015D01*
X104356Y90073D01*
X104309Y90134D01*
X104264Y90197D01*
X104223Y90262D01*
X104185Y90329D01*
X104151Y90398D01*
X104119Y90468D01*
X104092Y90540D01*
X104068Y90613D01*
X104047Y90687D01*
X104030Y90762D01*
X104017Y90838D01*
X104008Y90914D01*
X104002Y90991D01*
X104000Y91068D01*
X37300Y50000D02*
X36800Y49500D01*
X37300Y50000D02*
X50000Y50000D01*
D23*
X50000Y50000D03*
X74000Y161000D03*
D24*
X86360Y169362D02*
X99387Y169362D01*
X100274Y168475D01*
X100366Y168475D01*
X102826Y166015D01*
X84000Y161000D02*
X74000Y161000D01*
X84000Y161000D02*
X86360Y163360D01*
X86360Y169362D01*
D23*
X131000Y141000D03*
X104000Y50000D03*
D24*
X98000Y50000D01*
X90500Y42500D01*
X90500Y30800D01*
X131000Y141000D02*
X136000Y146000D01*
X136000Y154841D02*
X135826Y155015D01*
X136000Y154841D02*
X136000Y146000D01*
X80500Y42500D02*
X80500Y30800D01*
X80500Y42500D02*
X73000Y50000D01*
D23*
X73000Y50000D03*
X143000Y141000D03*
D24*
X143000Y154189D01*
X143826Y155015D01*
X144826Y166015D02*
X148985Y166015D01*
X154000Y161000D01*
X154000Y154000D01*
D23*
X154000Y154000D03*
X86000Y50000D03*
D24*
X85500Y49500D01*
X85500Y30800D01*
D26*
X70500Y30800D02*
X70500Y14000D01*
X70500Y113200D02*
X70500Y127000D01*
X68500Y129000D01*
X75500Y126500D02*
X75500Y113200D01*
X75500Y126500D02*
X78000Y129000D01*
X87500Y129000D01*
X119200Y99500D02*
X131000Y99500D01*
X136000Y94500D01*
D23*
X191000Y107000D03*
X204000Y107000D03*
X191000Y89000D03*
X204000Y89000D03*
D26*
X183000Y137000D02*
X169500Y137000D01*
X183000Y137000D02*
X191000Y129000D01*
X191000Y107000D01*
X159046Y94500D02*
X136000Y94500D01*
X159046Y94500D02*
X161211Y96665D01*
D23*
X15000Y33000D03*
X59000Y14000D03*
X69000Y141000D03*
X85000Y141000D03*
D26*
X68500Y140500D02*
X68500Y129000D01*
X68500Y140500D02*
X69000Y141000D01*
X87000Y129500D02*
X87500Y129000D01*
X87000Y139000D02*
X85000Y141000D01*
X87000Y139000D02*
X87000Y129500D01*
D23*
X74000Y179000D03*
D24*
X74512Y179512D01*
D26*
X86360Y179512D01*
X101330Y179512D01*
X103826Y177015D01*
D23*
X177000Y179000D03*
D26*
X164500Y179000D01*
X164000Y179500D01*
X146311Y179500D01*
X143826Y177015D01*
X70500Y14000D02*
X59000Y14000D01*
X15000Y33000D02*
X15000Y45500D01*
D24*
X139000Y97500D02*
X139000Y108925D01*
X139000Y97500D02*
X136000Y94500D01*
X139000Y108925D02*
X141000Y110925D01*
X15000Y77500D02*
X15000Y62500D01*
X27000Y74500D02*
X36800Y74500D01*
D27*
X18000Y74500D02*
X15000Y77500D01*
X18000Y74500D02*
X27000Y74500D01*
D23*
X68000Y97000D03*
D24*
X65436Y113136D02*
X65500Y113200D01*
X65436Y113136D02*
X65436Y99564D01*
X68000Y97000D01*
D23*
X68000Y84000D03*
D24*
X60500Y91500D01*
X60500Y113200D01*
D23*
X50000Y97000D03*
X90000Y97000D03*
D24*
X90000Y112700D01*
X90500Y113200D01*
D27*
X24500Y127000D02*
X11000Y127000D01*
X31000Y105300D02*
X36800Y99500D01*
X31000Y105300D02*
X31000Y121000D01*
X25000Y127000D01*
X24500Y127000D01*
X28500Y94500D02*
X36800Y94500D01*
X28500Y94500D02*
X24000Y99000D01*
X24000Y114500D01*
X24500Y115000D01*
X22500Y113000D01*
X11000Y113000D01*
D24*
X125000Y111500D02*
X134575Y121075D01*
X141000Y121075D01*
M02*
