M48
;GenerationSoftware,Autodesk,EAGLE,9.7.0*%
;CreationDate,2025-09-23T14:22:56Z*%
FMAT,2
ICI,OFF
METRIC,TZ,000.000
T2C0.350
T1C3.124
%
G90
M71
T1
X21590Y16510
X2540Y16510
T2
X20700Y12500
X21800Y12500
X22900Y12500
X1500Y1900
X2600Y1900
X3700Y1900
X19100Y5600
X9000Y8400
X20100Y5600
X10400Y9107
X5000Y5000
X7400Y16100
X13100Y14100
X10400Y5000
X7300Y5000
X14300Y14100
X21600Y5600
X8600Y5000
X19100Y10700
X20400Y10700
X19100Y8900
X20400Y8900
X1500Y3300
X5900Y1400
X6900Y14100
X8500Y14100
X7400Y17900
X17700Y17900
X6800Y9700
X6800Y8400
X5000Y9700
X9000Y9700
X22700Y5600
X15400Y15400
M30