G04 EAGLE Gerber RS-274X export*
G75*
%MOMM*%
%FSLAX34Y34*%
%LPD*%
%IN*%
%IPPOS*%
%AMOC8*
5,1,8,0,0,1.08239X$1,22.5*%
G01*
G04 Define Apertures*
%ADD10C,0.254000*%
D10*
X0Y25400D02*
X97Y23186D01*
X386Y20989D01*
X865Y18826D01*
X1532Y16713D01*
X2380Y14666D01*
X3403Y12700D01*
X4594Y10831D01*
X5942Y9073D01*
X7440Y7440D01*
X9073Y5942D01*
X10831Y4594D01*
X12700Y3403D01*
X14666Y2380D01*
X16713Y1532D01*
X18826Y865D01*
X20989Y386D01*
X23186Y97D01*
X25400Y0D01*
X215900Y0D01*
X218114Y97D01*
X220311Y386D01*
X222474Y865D01*
X224587Y1532D01*
X226635Y2380D01*
X228600Y3403D01*
X230469Y4594D01*
X232227Y5942D01*
X233861Y7440D01*
X235358Y9073D01*
X236706Y10831D01*
X237897Y12700D01*
X238920Y14666D01*
X239768Y16713D01*
X240435Y18826D01*
X240914Y20989D01*
X241203Y23186D01*
X241300Y25400D01*
X241300Y165100D01*
X241203Y167314D01*
X240914Y169511D01*
X240435Y171674D01*
X239768Y173787D01*
X238920Y175835D01*
X237897Y177800D01*
X236706Y179669D01*
X235358Y181427D01*
X233861Y183061D01*
X232227Y184558D01*
X230469Y185906D01*
X228600Y187097D01*
X226635Y188120D01*
X224587Y188968D01*
X222474Y189635D01*
X220311Y190114D01*
X218114Y190403D01*
X215900Y190500D01*
X25400Y190500D01*
X23186Y190403D01*
X20989Y190114D01*
X18826Y189635D01*
X16713Y188968D01*
X14666Y188120D01*
X12700Y187097D01*
X10831Y185906D01*
X9073Y184558D01*
X7440Y183061D01*
X5942Y181427D01*
X4594Y179669D01*
X3403Y177800D01*
X2380Y175835D01*
X1532Y173787D01*
X865Y171674D01*
X386Y169511D01*
X97Y167314D01*
X0Y165100D01*
X0Y25400D01*
M02*
