G04 EAGLE Gerber RS-274X export*
G75*
%MOMM*%
%FSLAX34Y34*%
%LPD*%
%INSoldermask Bottom*%
%IPPOS*%
%AMOC8*
5,1,8,0,0,1.08239X$1,22.5*%
G01*
G04 Define Apertures*
%ADD10C,3.327400*%
%ADD11R,0.018700X0.018738*%
%ADD12R,0.112500X0.018763*%
%ADD13R,0.037500X0.018763*%
%ADD14R,0.412500X0.018750*%
%ADD15R,0.056300X0.018750*%
%ADD16R,0.506300X0.018738*%
%ADD17R,0.093700X0.018738*%
%ADD18R,0.581300X0.018763*%
%ADD19R,0.656300X0.018738*%
%ADD20R,0.131300X0.018738*%
%ADD21R,0.731300X0.018763*%
%ADD22R,0.168700X0.018763*%
%ADD23R,0.806300X0.018750*%
%ADD24R,0.168700X0.018750*%
%ADD25R,0.037500X0.018738*%
%ADD26R,0.918800X0.018738*%
%ADD27R,0.206300X0.018738*%
%ADD28R,1.068800X0.018763*%
%ADD29R,0.243700X0.018763*%
%ADD30R,1.068800X0.018738*%
%ADD31R,0.243700X0.018738*%
%ADD32R,0.281300X0.018763*%
%ADD33R,1.068800X0.018750*%
%ADD34R,0.300000X0.018750*%
%ADD35R,0.318700X0.018738*%
%ADD36R,0.356300X0.018763*%
%ADD37R,0.693800X0.018738*%
%ADD38R,0.393700X0.018738*%
%ADD39R,0.618800X0.018763*%
%ADD40R,0.431300X0.018763*%
%ADD41R,0.525000X0.018750*%
%ADD42R,0.468700X0.018750*%
%ADD43R,0.468800X0.018738*%
%ADD44R,0.468700X0.018738*%
%ADD45R,0.375000X0.018763*%
%ADD46R,0.506300X0.018763*%
%ADD47R,0.300000X0.018738*%
%ADD48R,0.543700X0.018738*%
%ADD49R,0.150000X0.018763*%
%ADD50R,0.600000X0.018763*%
%ADD51R,0.656300X0.018750*%
%ADD52R,0.693700X0.018738*%
%ADD53R,0.168800X0.018763*%
%ADD54R,0.150000X0.018738*%
%ADD55R,0.337500X0.018738*%
%ADD56R,0.768700X0.018738*%
%ADD57R,0.318700X0.018763*%
%ADD58R,0.300000X0.018763*%
%ADD59R,0.487500X0.018763*%
%ADD60R,0.825000X0.018763*%
%ADD61R,0.431300X0.018750*%
%ADD62R,0.562500X0.018750*%
%ADD63R,0.881300X0.018750*%
%ADD64R,0.281200X0.018738*%
%ADD65R,0.637500X0.018738*%
%ADD66R,0.450000X0.018738*%
%ADD67R,0.281200X0.018763*%
%ADD68R,0.693800X0.018763*%
%ADD69R,0.468700X0.018763*%
%ADD70R,0.768800X0.018738*%
%ADD71R,0.487500X0.018738*%
%ADD72R,0.675000X0.018763*%
%ADD73R,0.806200X0.018763*%
%ADD74R,0.731300X0.018750*%
%ADD75R,0.281300X0.018750*%
%ADD76R,0.281200X0.018750*%
%ADD77R,0.843800X0.018750*%
%ADD78R,0.506300X0.018750*%
%ADD79R,0.487500X0.018750*%
%ADD80R,0.750000X0.018738*%
%ADD81R,0.881200X0.018738*%
%ADD82R,0.731200X0.018763*%
%ADD83R,0.918800X0.018763*%
%ADD84R,0.506200X0.018763*%
%ADD85R,0.731300X0.018738*%
%ADD86R,0.956200X0.018738*%
%ADD87R,0.337500X0.018763*%
%ADD88R,0.975000X0.018763*%
%ADD89R,0.450000X0.018763*%
%ADD90R,0.525000X0.018763*%
%ADD91R,0.318800X0.018750*%
%ADD92R,0.112500X0.018750*%
%ADD93R,1.012500X0.018750*%
%ADD94R,0.393700X0.018750*%
%ADD95R,0.281300X0.018738*%
%ADD96R,0.075000X0.018738*%
%ADD97R,0.431200X0.018738*%
%ADD98R,0.375000X0.018738*%
%ADD99R,0.525000X0.018738*%
%ADD100R,0.018700X0.018763*%
%ADD101R,0.393700X0.018763*%
%ADD102R,0.393800X0.018763*%
%ADD103R,0.356200X0.018763*%
%ADD104R,0.262500X0.018738*%
%ADD105R,0.356300X0.018738*%
%ADD106R,0.543800X0.018738*%
%ADD107R,0.262500X0.018763*%
%ADD108R,0.543800X0.018763*%
%ADD109R,0.243800X0.018750*%
%ADD110R,0.356200X0.018750*%
%ADD111R,0.337500X0.018750*%
%ADD112R,0.225000X0.018750*%
%ADD113R,0.543700X0.018750*%
%ADD114R,0.206200X0.018738*%
%ADD115R,1.031200X0.018763*%
%ADD116R,0.318800X0.018763*%
%ADD117R,1.031200X0.018738*%
%ADD118R,0.318800X0.018738*%
%ADD119R,0.131200X0.018738*%
%ADD120R,0.225000X0.018763*%
%ADD121R,0.093800X0.018763*%
%ADD122R,0.993800X0.018750*%
%ADD123R,0.318700X0.018750*%
%ADD124R,0.956300X0.018738*%
%ADD125R,0.993800X0.018738*%
%ADD126R,0.018800X0.018738*%
%ADD127R,0.956300X0.018763*%
%ADD128R,0.956200X0.018763*%
%ADD129R,0.956300X0.018750*%
%ADD130R,0.937500X0.018750*%
%ADD131R,0.918800X0.018750*%
%ADD132R,0.506200X0.018750*%
%ADD133R,0.937500X0.018738*%
%ADD134R,0.900000X0.018738*%
%ADD135R,0.243700X0.018750*%
%ADD136R,0.262500X0.018750*%
%ADD137R,0.468800X0.018750*%
%ADD138R,0.225000X0.018738*%
%ADD139R,0.243800X0.018763*%
%ADD140R,0.450000X0.018750*%
%ADD141R,0.431200X0.018750*%
%ADD142R,0.675000X0.018750*%
%ADD143R,0.637500X0.018763*%
%ADD144R,0.431200X0.018763*%
%ADD145R,0.581300X0.018750*%
%ADD146R,0.412500X0.018738*%
%ADD147R,0.412500X0.018763*%
%ADD148R,0.150000X0.018750*%
%ADD149R,0.393800X0.018738*%
%ADD150R,0.393800X0.018750*%
%ADD151R,0.375000X0.018750*%
%ADD152R,0.356200X0.018738*%
%ADD153R,0.356300X0.018750*%
%ADD154R,1.012500X0.018738*%
%ADD155R,0.975000X0.018750*%
%ADD156R,0.881200X0.018750*%
%ADD157R,0.843800X0.018738*%
%ADD158R,0.806200X0.018750*%
%ADD159R,0.562500X0.018763*%
%ADD160R,0.768800X0.018763*%
%ADD161R,0.581200X0.018750*%
%ADD162R,0.712500X0.018750*%
%ADD163R,0.618800X0.018750*%
%ADD164R,0.637500X0.018750*%
%ADD165R,0.243800X0.018738*%
%ADD166R,0.581200X0.018738*%
%ADD167R,0.656200X0.018763*%
%ADD168R,0.206200X0.018763*%
%ADD169R,0.075000X0.018750*%
%ADD170R,0.187500X0.018750*%
%ADD171R,0.187500X0.018738*%
%ADD172R,0.187500X0.018763*%
%ADD173R,0.131300X0.018763*%
%ADD174R,0.468800X0.018763*%
%ADD175R,3.206200X0.018763*%
%ADD176R,1.256300X0.018763*%
%ADD177R,3.243800X0.018750*%
%ADD178R,1.275000X0.018750*%
%ADD179R,3.281200X0.018750*%
%ADD180R,3.300000X0.018750*%
%ADD181R,1.293700X0.018750*%
%ADD182R,3.318700X0.018738*%
%ADD183R,1.275000X0.018738*%
%ADD184R,3.318800X0.018750*%
%ADD185R,3.318700X0.018763*%
%ADD186R,0.206300X0.018750*%
%ADD187R,0.206200X0.018750*%
%ADD188R,0.206300X0.018763*%
%ADD189R,0.112500X0.018738*%
%ADD190R,0.056300X0.018763*%
%ADD191R,0.075000X0.018763*%
%ADD192R,1.162500X0.018750*%
%ADD193R,3.037500X0.018750*%
%ADD194R,1.143800X0.018738*%
%ADD195R,3.075000X0.018738*%
%ADD196R,1.125000X0.018750*%
%ADD197R,3.075000X0.018750*%
%ADD198R,1.106300X0.018750*%
%ADD199R,3.093700X0.018750*%
%ADD200R,1.087500X0.018763*%
%ADD201R,3.075000X0.018763*%
%ADD202R,1.050000X0.018763*%
%ADD203R,3.056200X0.018763*%
%ADD204R,3.018700X0.018738*%
%ADD205R,0.168800X0.018750*%
%ADD206R,0.168700X0.018738*%
%ADD207R,2.343800X0.018750*%
%ADD208R,2.381200X0.018763*%
%ADD209R,2.400000X0.018738*%
%ADD210R,2.418700X0.018763*%
%ADD211R,2.437500X0.018738*%
%ADD212R,2.456200X0.018750*%
%ADD213R,2.456300X0.018763*%
%ADD214R,1.293800X0.018738*%
%ADD215R,2.137500X0.018738*%
%ADD216R,1.331200X0.018750*%
%ADD217R,2.156300X0.018750*%
%ADD218R,1.350000X0.018750*%
%ADD219R,2.175000X0.018750*%
%ADD220R,1.368700X0.018763*%
%ADD221R,2.193700X0.018763*%
%ADD222R,1.387500X0.018750*%
%ADD223R,1.406200X0.018738*%
%ADD224R,2.156300X0.018738*%
%ADD225R,1.406300X0.018750*%
%ADD226R,2.137500X0.018750*%
%ADD227R,0.431300X0.018738*%
%ADD228R,0.093800X0.018750*%
%ADD229R,0.618700X0.018750*%
%ADD230R,0.618700X0.018763*%
%ADD231R,0.506200X0.018738*%
%ADD232R,0.806200X0.018738*%
%ADD233R,0.900000X0.018750*%
%ADD234R,0.787500X0.018750*%
%ADD235R,0.956200X0.018750*%
%ADD236R,0.843700X0.018750*%
%ADD237R,1.031200X0.018750*%
%ADD238R,0.918700X0.018750*%
%ADD239R,1.068700X0.018763*%
%ADD240R,1.125000X0.018738*%
%ADD241R,1.181200X0.018763*%
%ADD242R,1.237500X0.018738*%
%ADD243R,1.143700X0.018738*%
%ADD244R,1.181200X0.018750*%
%ADD245R,1.331200X0.018763*%
%ADD246R,1.237500X0.018763*%
%ADD247R,1.350000X0.018738*%
%ADD248R,1.406300X0.018763*%
%ADD249R,1.068700X0.018738*%
%ADD250R,0.056200X0.018763*%
%ADD251R,0.862500X0.018763*%
%ADD252R,0.881300X0.018763*%
%ADD253R,0.862500X0.018738*%
%ADD254R,0.806300X0.018738*%
%ADD255R,0.768800X0.018750*%
%ADD256R,0.768700X0.018750*%
%ADD257R,0.768700X0.018763*%
%ADD258R,0.731200X0.018738*%
%ADD259R,0.750000X0.018763*%
%ADD260R,0.712500X0.018738*%
%ADD261R,0.693800X0.018750*%
%ADD262R,0.675000X0.018738*%
%ADD263R,0.656300X0.018763*%
%ADD264R,0.618700X0.018738*%
%ADD265R,0.600000X0.018738*%
%ADD266R,0.618800X0.018738*%
%ADD267R,1.162500X0.018738*%
%ADD268R,1.068700X0.018750*%
%ADD269R,1.012500X0.018763*%
%ADD270R,0.543700X0.018763*%
%ADD271R,0.093700X0.018750*%
%ADD272C,1.303200*%
%ADD273C,1.003200*%
%ADD274C,0.959600*%
D10*
X25400Y165100D03*
X215900Y165100D03*
D11*
X133563Y68375D03*
D12*
X141532Y68563D03*
D13*
X133469Y68563D03*
D14*
X141532Y68750D03*
D15*
X133563Y68750D03*
D16*
X141813Y68938D03*
D17*
X133563Y68938D03*
D18*
X142188Y69125D03*
D12*
X133469Y69125D03*
D19*
X142563Y69313D03*
D20*
X133563Y69313D03*
D21*
X142938Y69500D03*
D22*
X133563Y69500D03*
D23*
X143313Y69688D03*
D24*
X133563Y69688D03*
D25*
X149782Y69875D03*
D26*
X143875Y69875D03*
D27*
X133563Y69875D03*
D28*
X144625Y70063D03*
D29*
X133563Y70063D03*
D30*
X144625Y70250D03*
D31*
X133563Y70250D03*
D28*
X144625Y70438D03*
D32*
X133563Y70438D03*
D33*
X144625Y70625D03*
D34*
X133469Y70625D03*
D30*
X144625Y70813D03*
D35*
X133563Y70813D03*
D28*
X144625Y71000D03*
D36*
X133563Y71000D03*
D37*
X146500Y71188D03*
D25*
X139469Y71188D03*
D38*
X133563Y71188D03*
D39*
X146875Y71375D03*
D40*
X133563Y71375D03*
D41*
X147344Y71563D03*
D42*
X133563Y71563D03*
D43*
X147625Y71750D03*
D44*
X133563Y71750D03*
D45*
X148094Y71938D03*
D46*
X133563Y71938D03*
D47*
X148469Y72125D03*
D48*
X133563Y72125D03*
D49*
X148844Y72313D03*
D50*
X133656Y72313D03*
D51*
X133563Y72500D03*
D52*
X133563Y72688D03*
D53*
X147250Y72875D03*
D21*
X133563Y72875D03*
D54*
X173031Y73063D03*
D55*
X147157Y73063D03*
D56*
X133563Y73063D03*
D57*
X172938Y73250D03*
D32*
X164688Y73250D03*
D58*
X154656Y73250D03*
D59*
X147157Y73250D03*
D60*
X133656Y73250D03*
D61*
X172938Y73438D03*
D34*
X164594Y73438D03*
X154844Y73438D03*
D62*
X147157Y73438D03*
D63*
X133563Y73438D03*
D16*
X172938Y73625D03*
D64*
X164500Y73625D03*
D47*
X154844Y73625D03*
D65*
X147157Y73625D03*
D43*
X136000Y73625D03*
D66*
X131219Y73625D03*
D18*
X172938Y73813D03*
D67*
X164500Y73813D03*
D57*
X154938Y73813D03*
D68*
X147250Y73813D03*
D69*
X136188Y73813D03*
X130938Y73813D03*
D65*
X172844Y74000D03*
D47*
X164406Y74000D03*
X155031Y74000D03*
D70*
X147250Y74000D03*
D71*
X136469Y74000D03*
D43*
X130750Y74000D03*
D72*
X172844Y74188D03*
D32*
X164313Y74188D03*
D58*
X155031Y74188D03*
D73*
X147250Y74188D03*
D59*
X136657Y74188D03*
X130469Y74188D03*
D74*
X172938Y74375D03*
D75*
X164313Y74375D03*
D76*
X155125Y74375D03*
D77*
X147250Y74375D03*
D78*
X136938Y74375D03*
D79*
X130282Y74375D03*
D80*
X173031Y74563D03*
D64*
X164125Y74563D03*
D47*
X155219Y74563D03*
D81*
X147250Y74563D03*
D16*
X137313Y74563D03*
D71*
X129907Y74563D03*
D82*
X173125Y74750D03*
D67*
X164125Y74750D03*
D58*
X155219Y74750D03*
D83*
X147250Y74750D03*
D84*
X137500Y74750D03*
X129625Y74750D03*
D85*
X173313Y74938D03*
D64*
X164125Y74938D03*
D47*
X155406Y74938D03*
D86*
X147250Y74938D03*
D43*
X137500Y74938D03*
D16*
X129438Y74938D03*
D87*
X175469Y75125D03*
D53*
X170875Y75125D03*
D32*
X163938Y75125D03*
D58*
X155406Y75125D03*
D88*
X147156Y75125D03*
D89*
X137594Y75125D03*
D90*
X129156Y75125D03*
D91*
X175750Y75313D03*
D92*
X170782Y75313D03*
D75*
X163938Y75313D03*
D34*
X155406Y75313D03*
D93*
X147157Y75313D03*
D94*
X137688Y75313D03*
D41*
X128969Y75313D03*
D95*
X175938Y75500D03*
D96*
X170781Y75500D03*
D95*
X163938Y75500D03*
D47*
X155594Y75500D03*
D66*
X150156Y75500D03*
D97*
X144250Y75500D03*
D98*
X137781Y75500D03*
D99*
X128594Y75500D03*
D67*
X176125Y75688D03*
D100*
X170688Y75688D03*
D67*
X163750Y75688D03*
D58*
X155594Y75688D03*
D101*
X150438Y75688D03*
D102*
X143875Y75688D03*
D103*
X137875Y75688D03*
D90*
X128406Y75688D03*
D104*
X176219Y75875D03*
D64*
X163750Y75875D03*
D47*
X155594Y75875D03*
D98*
X150719Y75875D03*
D105*
X143688Y75875D03*
D47*
X137969Y75875D03*
D106*
X128125Y75875D03*
D107*
X176407Y76063D03*
D67*
X163750Y76063D03*
D58*
X155781Y76063D03*
D36*
X150813Y76063D03*
D103*
X143500Y76063D03*
D32*
X138063Y76063D03*
D108*
X127750Y76063D03*
D109*
X176500Y76250D03*
D75*
X163563Y76250D03*
D34*
X155781Y76250D03*
D110*
X151000Y76250D03*
D111*
X143407Y76250D03*
D112*
X138156Y76250D03*
D113*
X127563Y76250D03*
D31*
X176688Y76438D03*
D95*
X163563Y76438D03*
D47*
X155969Y76438D03*
D55*
X151094Y76438D03*
X143219Y76438D03*
D114*
X138250Y76438D03*
D48*
X127188Y76438D03*
D29*
X176688Y76625D03*
D115*
X159625Y76625D03*
D87*
X151282Y76625D03*
D116*
X143125Y76625D03*
D22*
X138438Y76625D03*
D108*
X127000Y76625D03*
D31*
X176688Y76813D03*
D117*
X159625Y76813D03*
D118*
X151375Y76813D03*
D35*
X142938Y76813D03*
D119*
X138625Y76813D03*
D106*
X126625Y76813D03*
D120*
X176781Y77000D03*
D115*
X159625Y77000D03*
D87*
X151469Y77000D03*
D57*
X142938Y77000D03*
D121*
X138625Y77000D03*
D90*
X126344Y77000D03*
D112*
X176781Y77188D03*
D122*
X159625Y77188D03*
D123*
X151563Y77188D03*
D34*
X142844Y77188D03*
D15*
X138813Y77188D03*
D113*
X126063Y77188D03*
D124*
X173313Y77375D03*
D125*
X159625Y77375D03*
D35*
X151563Y77375D03*
D47*
X142844Y77375D03*
D126*
X139000Y77375D03*
D99*
X125781Y77375D03*
D127*
X173313Y77563D03*
D88*
X159719Y77563D03*
D58*
X151656Y77563D03*
D116*
X142750Y77563D03*
D90*
X125406Y77563D03*
D124*
X173313Y77750D03*
D86*
X159625Y77750D03*
D47*
X151656Y77750D03*
X142656Y77750D03*
D99*
X125219Y77750D03*
D127*
X173313Y77938D03*
D128*
X159625Y77938D03*
D116*
X151750Y77938D03*
D58*
X142656Y77938D03*
D46*
X124938Y77938D03*
D129*
X173313Y78125D03*
D130*
X159719Y78125D03*
D34*
X151844Y78125D03*
X142656Y78125D03*
D41*
X124656Y78125D03*
D129*
X173313Y78313D03*
D131*
X159625Y78313D03*
D34*
X151844Y78313D03*
D123*
X142563Y78313D03*
D132*
X124375Y78313D03*
D129*
X173313Y78500D03*
D131*
X159625Y78500D03*
D34*
X151844Y78500D03*
X142469Y78500D03*
D78*
X124188Y78500D03*
D133*
X173219Y78688D03*
D134*
X159719Y78688D03*
D35*
X151938Y78688D03*
D47*
X142469Y78688D03*
D71*
X123907Y78688D03*
D120*
X176781Y78875D03*
X169844Y78875D03*
D107*
X162719Y78875D03*
D58*
X156719Y78875D03*
D57*
X151938Y78875D03*
D58*
X142469Y78875D03*
D59*
X123532Y78875D03*
D112*
X176781Y79063D03*
X169844Y79063D03*
D76*
X162625Y79063D03*
X156625Y79063D03*
D123*
X151938Y79063D03*
D34*
X142469Y79063D03*
D79*
X123344Y79063D03*
D112*
X176781Y79250D03*
X169844Y79250D03*
D76*
X162625Y79250D03*
D75*
X156813Y79250D03*
D34*
X152031Y79250D03*
X142469Y79250D03*
D42*
X123063Y79250D03*
D135*
X176688Y79438D03*
D112*
X169844Y79438D03*
D136*
X162532Y79438D03*
D75*
X156813Y79438D03*
D34*
X152031Y79438D03*
X142469Y79438D03*
D137*
X122875Y79438D03*
D138*
X176594Y79625D03*
X170031Y79625D03*
D104*
X162532Y79625D03*
D64*
X157000Y79625D03*
D47*
X152031Y79625D03*
D64*
X142375Y79625D03*
D71*
X122594Y79625D03*
D139*
X176500Y79813D03*
X170125Y79813D03*
D107*
X162344Y79813D03*
D67*
X157000Y79813D03*
D58*
X152031Y79813D03*
D67*
X142375Y79813D03*
D69*
X122313Y79813D03*
D135*
X176313Y80000D03*
D109*
X170125Y80000D03*
D136*
X162344Y80000D03*
D76*
X157000Y80000D03*
D34*
X152031Y80000D03*
D76*
X142375Y80000D03*
D137*
X122125Y80000D03*
D135*
X176313Y80188D03*
X170313Y80188D03*
D76*
X162250Y80188D03*
D136*
X157094Y80188D03*
D34*
X152031Y80188D03*
D76*
X142375Y80188D03*
D140*
X121844Y80188D03*
D104*
X176219Y80375D03*
X170407Y80375D03*
X162157Y80375D03*
D95*
X157188Y80375D03*
D47*
X152031Y80375D03*
D64*
X142375Y80375D03*
D66*
X121656Y80375D03*
D136*
X176032Y80562D03*
X170594Y80562D03*
X162157Y80562D03*
D75*
X157188Y80562D03*
D34*
X152031Y80562D03*
D76*
X142375Y80562D03*
D140*
X121469Y80562D03*
D67*
X175750Y80750D03*
D58*
X170781Y80750D03*
D107*
X162157Y80750D03*
D67*
X157375Y80750D03*
D58*
X152031Y80750D03*
D67*
X142375Y80750D03*
D89*
X121281Y80750D03*
D110*
X175375Y80938D03*
D111*
X171157Y80938D03*
D136*
X161969Y80938D03*
D76*
X157375Y80938D03*
D34*
X152031Y80938D03*
D76*
X142375Y80938D03*
D141*
X121000Y80938D03*
D74*
X173313Y81125D03*
D136*
X161969Y81125D03*
D76*
X157375Y81125D03*
D34*
X152031Y81125D03*
D76*
X142375Y81125D03*
D61*
X120813Y81125D03*
D52*
X173313Y81313D03*
D64*
X161875Y81313D03*
D104*
X157469Y81313D03*
D47*
X152031Y81313D03*
D64*
X142375Y81313D03*
D97*
X120625Y81313D03*
D142*
X173219Y81500D03*
D136*
X161782Y81500D03*
D75*
X157563Y81500D03*
D34*
X152031Y81500D03*
D76*
X142375Y81500D03*
D61*
X120438Y81500D03*
D143*
X173219Y81688D03*
D107*
X161782Y81688D03*
X157657Y81688D03*
D58*
X152031Y81688D03*
X142469Y81688D03*
D144*
X120250Y81688D03*
D145*
X173313Y81875D03*
D135*
X161688Y81875D03*
D136*
X157657Y81875D03*
D34*
X152031Y81875D03*
X142469Y81875D03*
D14*
X119969Y81875D03*
D41*
X173219Y82063D03*
D136*
X161594Y82063D03*
D76*
X157750Y82063D03*
D34*
X152031Y82063D03*
X142469Y82063D03*
D14*
X119782Y82063D03*
D44*
X173313Y82250D03*
D104*
X161594Y82250D03*
D64*
X157750Y82250D03*
D47*
X152031Y82250D03*
X142469Y82250D03*
D146*
X119594Y82250D03*
D94*
X173313Y82437D03*
D109*
X161500Y82437D03*
D136*
X157844Y82437D03*
D123*
X151938Y82437D03*
D34*
X142469Y82437D03*
D14*
X119407Y82437D03*
D58*
X173219Y82625D03*
D107*
X161407Y82625D03*
X157844Y82625D03*
D57*
X151938Y82625D03*
D58*
X142469Y82625D03*
D147*
X119219Y82625D03*
D148*
X173219Y82813D03*
D136*
X161407Y82813D03*
X158032Y82813D03*
D34*
X151844Y82813D03*
D123*
X142563Y82813D03*
D14*
X119032Y82813D03*
D135*
X161313Y83000D03*
D136*
X158032Y83000D03*
D34*
X151844Y83000D03*
D123*
X142563Y83000D03*
D14*
X118844Y83000D03*
D31*
X161313Y83188D03*
D104*
X158032Y83188D03*
D47*
X151844Y83188D03*
X142656Y83188D03*
D149*
X118750Y83188D03*
D135*
X161313Y83375D03*
D109*
X158125Y83375D03*
D34*
X151844Y83375D03*
X142656Y83375D03*
D94*
X118563Y83375D03*
D120*
X161219Y83563D03*
D139*
X158125Y83563D03*
D116*
X151750Y83563D03*
D58*
X142656Y83563D03*
D102*
X118375Y83563D03*
D109*
X161125Y83750D03*
D136*
X158219Y83750D03*
D34*
X151656Y83750D03*
D91*
X142750Y83750D03*
D94*
X118188Y83750D03*
D112*
X161031Y83938D03*
D135*
X158313Y83938D03*
D123*
X151563Y83938D03*
D34*
X142844Y83938D03*
D150*
X118000Y83938D03*
D138*
X161031Y84125D03*
D31*
X158313Y84125D03*
D35*
X151563Y84125D03*
X142938Y84125D03*
D38*
X117813Y84125D03*
D112*
X161031Y84312D03*
D135*
X158313Y84312D03*
D123*
X151563Y84312D03*
X142938Y84312D03*
D151*
X117719Y84312D03*
D29*
X160938Y84500D03*
D120*
X158406Y84500D03*
D116*
X151375Y84500D03*
D87*
X143032Y84500D03*
D45*
X117531Y84500D03*
D137*
X159625Y84688D03*
D111*
X151282Y84688D03*
X143219Y84688D03*
D151*
X117344Y84688D03*
D140*
X159719Y84875D03*
D111*
X151094Y84875D03*
X143219Y84875D03*
D151*
X117156Y84875D03*
D97*
X159625Y85063D03*
D152*
X151000Y85063D03*
D55*
X143407Y85063D03*
D105*
X117063Y85063D03*
D141*
X159625Y85250D03*
D153*
X150813Y85250D03*
D110*
X143500Y85250D03*
D151*
X116969Y85250D03*
D144*
X159625Y85438D03*
D45*
X150719Y85438D03*
D36*
X143688Y85438D03*
D45*
X116781Y85438D03*
D150*
X159625Y85625D03*
D151*
X150531Y85625D03*
D150*
X143875Y85625D03*
D153*
X116688Y85625D03*
D150*
X159625Y85813D03*
D141*
X150250Y85813D03*
D14*
X144157Y85813D03*
D110*
X116500Y85813D03*
D98*
X159719Y86000D03*
D154*
X147157Y86000D03*
D105*
X116313Y86000D03*
D110*
X159625Y86187D03*
D155*
X147156Y86187D03*
D111*
X116219Y86187D03*
D103*
X159625Y86375D03*
D128*
X147250Y86375D03*
D103*
X116125Y86375D03*
D111*
X159719Y86563D03*
D131*
X147250Y86563D03*
D153*
X115938Y86563D03*
D91*
X159625Y86750D03*
D156*
X147250Y86750D03*
D111*
X115844Y86750D03*
D118*
X159625Y86938D03*
D157*
X147250Y86938D03*
D152*
X115750Y86938D03*
D137*
X168625Y87125D03*
D76*
X159625Y87125D03*
D158*
X147250Y87125D03*
D111*
X115657Y87125D03*
D159*
X168532Y87313D03*
D67*
X159625Y87313D03*
D160*
X147250Y87313D03*
D87*
X115469Y87313D03*
D161*
X168625Y87500D03*
D136*
X159719Y87500D03*
D162*
X147157Y87500D03*
D110*
X115375Y87500D03*
D163*
X168625Y87688D03*
D109*
X159625Y87688D03*
D164*
X147157Y87688D03*
D111*
X115282Y87688D03*
D65*
X168719Y87875D03*
D165*
X159625Y87875D03*
D166*
X147250Y87875D03*
D55*
X115094Y87875D03*
D51*
X168813Y88062D03*
D112*
X159719Y88062D03*
D79*
X147157Y88062D03*
D111*
X115094Y88062D03*
D167*
X169000Y88250D03*
D168*
X159625Y88250D03*
D45*
X147156Y88250D03*
D87*
X114907Y88250D03*
D51*
X169188Y88438D03*
D169*
X147156Y88438D03*
D123*
X114813Y88438D03*
D170*
X171719Y88625D03*
D111*
X114719Y88625D03*
D170*
X171907Y88813D03*
D91*
X114625Y88813D03*
D171*
X172094Y89000D03*
D55*
X114532Y89000D03*
D172*
X172282Y89188D03*
D57*
X114438Y89188D03*
D171*
X172469Y89375D03*
D55*
X114344Y89375D03*
D172*
X172657Y89563D03*
D116*
X114250Y89563D03*
D170*
X172844Y89750D03*
D111*
X114157Y89750D03*
D171*
X173032Y89938D03*
D35*
X114063Y89938D03*
D172*
X173219Y90125D03*
D87*
X113969Y90125D03*
D171*
X173407Y90313D03*
D118*
X113875Y90313D03*
D172*
X173594Y90500D03*
D57*
X113688Y90500D03*
D170*
X173782Y90688D03*
D123*
X113688Y90688D03*
D171*
X173969Y90875D03*
D35*
X113688Y90875D03*
D172*
X174157Y91063D03*
D173*
X131688Y91063D03*
D116*
X113500Y91063D03*
D171*
X174344Y91250D03*
D31*
X131688Y91250D03*
D118*
X113500Y91250D03*
D172*
X174532Y91438D03*
D58*
X131781Y91438D03*
D57*
X113313Y91438D03*
D170*
X177157Y91625D03*
X174719Y91625D03*
D153*
X131688Y91625D03*
D123*
X113313Y91625D03*
D66*
X176219Y91813D03*
D38*
X131688Y91813D03*
D47*
X113219Y91813D03*
D174*
X176500Y92000D03*
D147*
X131782Y92000D03*
D116*
X113125Y92000D03*
D44*
X176688Y92188D03*
D66*
X131781Y92188D03*
D118*
X113125Y92188D03*
D174*
X176875Y92375D03*
D69*
X131688Y92375D03*
D58*
X113031Y92375D03*
D140*
X176969Y92563D03*
D42*
X131688Y92563D03*
D123*
X112938Y92563D03*
D66*
X177156Y92750D03*
D16*
X131688Y92750D03*
D47*
X112844Y92750D03*
D69*
X177063Y92938D03*
D175*
X152875Y92938D03*
D176*
X127938Y92938D03*
D58*
X112844Y92938D03*
D79*
X177157Y93125D03*
D177*
X152875Y93125D03*
D178*
X127844Y93125D03*
D91*
X112750Y93125D03*
D79*
X177157Y93313D03*
D179*
X152875Y93313D03*
D178*
X127844Y93313D03*
D34*
X112656Y93313D03*
D79*
X177157Y93500D03*
D180*
X152969Y93500D03*
D181*
X127938Y93500D03*
D34*
X112656Y93500D03*
D99*
X177156Y93688D03*
D182*
X153063Y93688D03*
D183*
X127844Y93688D03*
D35*
X112563Y93688D03*
D41*
X177156Y93875D03*
D184*
X153250Y93875D03*
D178*
X127844Y93875D03*
D34*
X112469Y93875D03*
D90*
X177156Y94063D03*
D185*
X153438Y94063D03*
D176*
X127938Y94063D03*
D58*
X112469Y94063D03*
D41*
X177156Y94250D03*
D186*
X169188Y94250D03*
D78*
X131688Y94250D03*
D34*
X112469Y94250D03*
D78*
X177063Y94438D03*
D187*
X169375Y94438D03*
D42*
X131688Y94438D03*
D34*
X112281Y94438D03*
D71*
X177157Y94625D03*
D27*
X169563Y94625D03*
D44*
X131688Y94625D03*
D47*
X112281Y94625D03*
D79*
X177157Y94812D03*
D187*
X169750Y94812D03*
D140*
X131781Y94812D03*
D34*
X112281Y94812D03*
D69*
X177063Y95000D03*
D188*
X169938Y95000D03*
D147*
X131782Y95000D03*
D57*
X112188Y95000D03*
D140*
X177156Y95188D03*
D187*
X170125Y95188D03*
D94*
X131688Y95188D03*
D34*
X112094Y95188D03*
D140*
X177156Y95375D03*
D186*
X170313Y95375D03*
D153*
X131688Y95375D03*
D34*
X112094Y95375D03*
D146*
X177157Y95563D03*
D114*
X170500Y95563D03*
D35*
X131688Y95563D03*
D47*
X112094Y95563D03*
D45*
X177156Y95750D03*
D188*
X170688Y95750D03*
D29*
X131688Y95750D03*
D67*
X112000Y95750D03*
D111*
X177157Y95938D03*
D187*
X170875Y95938D03*
D148*
X131781Y95938D03*
D76*
X112000Y95938D03*
D47*
X177156Y96125D03*
D27*
X171063Y96125D03*
D64*
X112000Y96125D03*
D120*
X177156Y96313D03*
D168*
X171250Y96313D03*
D67*
X112000Y96313D03*
D189*
X177157Y96500D03*
D27*
X171438Y96500D03*
D64*
X112000Y96500D03*
D190*
X181563Y96688D03*
D168*
X171625Y96688D03*
D191*
X164219Y96688D03*
D107*
X111907Y96688D03*
D186*
X181563Y96875D03*
X171813Y96875D03*
D112*
X164219Y96875D03*
D136*
X111907Y96875D03*
D75*
X181563Y97063D03*
D187*
X172000Y97063D03*
D76*
X164125Y97063D03*
D136*
X111907Y97063D03*
D105*
X181563Y97250D03*
D27*
X172188Y97250D03*
D55*
X164219Y97250D03*
D31*
X111813Y97250D03*
D94*
X181563Y97437D03*
D187*
X172375Y97437D03*
D151*
X164219Y97437D03*
D135*
X111813Y97437D03*
D101*
X181563Y97625D03*
D188*
X172563Y97625D03*
D147*
X164219Y97625D03*
D29*
X111813Y97625D03*
D61*
X181563Y97813D03*
D187*
X172750Y97813D03*
D141*
X164125Y97813D03*
D135*
X111813Y97813D03*
D44*
X181563Y98000D03*
D27*
X172938Y98000D03*
D66*
X164219Y98000D03*
D31*
X111813Y98000D03*
D42*
X181563Y98187D03*
D187*
X173125Y98187D03*
D137*
X164125Y98187D03*
D112*
X111719Y98187D03*
D69*
X181563Y98375D03*
D188*
X173313Y98375D03*
D59*
X164219Y98375D03*
D120*
X111719Y98375D03*
D192*
X178282Y98563D03*
D193*
X151469Y98563D03*
D112*
X111719Y98563D03*
D194*
X178375Y98750D03*
D195*
X151281Y98750D03*
D138*
X111719Y98750D03*
D196*
X178469Y98937D03*
D197*
X151281Y98937D03*
D112*
X111719Y98937D03*
D198*
X178563Y99125D03*
D199*
X151188Y99125D03*
D187*
X111625Y99125D03*
D200*
X178657Y99313D03*
D201*
X151281Y99313D03*
D168*
X111625Y99313D03*
D30*
X178750Y99500D03*
D195*
X151281Y99500D03*
D114*
X111625Y99500D03*
D202*
X178844Y99688D03*
D203*
X151375Y99688D03*
D168*
X111625Y99688D03*
D125*
X179125Y99875D03*
D204*
X151563Y99875D03*
D114*
X111625Y99875D03*
D42*
X181563Y100062D03*
D79*
X164219Y100062D03*
D187*
X111625Y100062D03*
D69*
X181563Y100250D03*
D174*
X164125Y100250D03*
D168*
X111625Y100250D03*
D44*
X181563Y100438D03*
D66*
X164219Y100438D03*
D114*
X111625Y100438D03*
D61*
X181563Y100625D03*
D141*
X164125Y100625D03*
D170*
X111532Y100625D03*
D94*
X181563Y100812D03*
D150*
X164125Y100812D03*
D170*
X111532Y100812D03*
D36*
X181563Y101000D03*
D45*
X164219Y101000D03*
D172*
X111532Y101000D03*
D123*
X181563Y101188D03*
D91*
X164125Y101188D03*
D170*
X111532Y101188D03*
D95*
X181563Y101375D03*
D104*
X164219Y101375D03*
D171*
X111532Y101375D03*
D24*
X181563Y101562D03*
D205*
X164125Y101562D03*
D170*
X111532Y101562D03*
X111532Y101750D03*
D172*
X111532Y101938D03*
D24*
X111438Y102125D03*
D206*
X111438Y102313D03*
D24*
X111438Y102500D03*
X111438Y102687D03*
X111438Y102875D03*
D22*
X111438Y103063D03*
D206*
X111438Y103250D03*
D24*
X111438Y103437D03*
D22*
X111438Y103625D03*
D206*
X111438Y103813D03*
D22*
X111438Y104000D03*
D206*
X111438Y104188D03*
D207*
X154750Y104375D03*
D24*
X111438Y104375D03*
D208*
X154750Y104563D03*
D22*
X111438Y104563D03*
D209*
X154844Y104750D03*
D206*
X111438Y104750D03*
D210*
X154938Y104938D03*
D22*
X111438Y104938D03*
D211*
X155032Y105125D03*
D206*
X111438Y105125D03*
D212*
X155125Y105312D03*
D24*
X111438Y105312D03*
D213*
X155313Y105500D03*
D49*
X111344Y105500D03*
D171*
X166844Y105688D03*
D54*
X111344Y105688D03*
D172*
X167032Y105875D03*
D49*
X111344Y105875D03*
D171*
X167219Y106063D03*
D54*
X111344Y106063D03*
D170*
X167407Y106250D03*
D148*
X111344Y106250D03*
D172*
X167594Y106438D03*
D49*
X111344Y106438D03*
D171*
X167782Y106625D03*
D54*
X111344Y106625D03*
D172*
X167969Y106813D03*
D49*
X111344Y106813D03*
D171*
X168157Y107000D03*
D54*
X111344Y107000D03*
D170*
X168344Y107187D03*
D148*
X111344Y107187D03*
D170*
X168532Y107375D03*
D148*
X111344Y107375D03*
D170*
X168719Y107562D03*
D148*
X111344Y107562D03*
D172*
X168907Y107750D03*
D49*
X111344Y107750D03*
D170*
X169094Y107938D03*
D148*
X111344Y107938D03*
D171*
X169282Y108125D03*
D54*
X138156Y108125D03*
X111344Y108125D03*
D170*
X169469Y108312D03*
D112*
X138156Y108312D03*
D148*
X111344Y108312D03*
D170*
X169657Y108500D03*
D34*
X138156Y108500D03*
D148*
X111344Y108500D03*
D172*
X169844Y108688D03*
D87*
X138157Y108688D03*
D49*
X111344Y108688D03*
D170*
X170032Y108875D03*
D94*
X138063Y108875D03*
D148*
X111344Y108875D03*
D171*
X170219Y109063D03*
D146*
X138157Y109063D03*
D54*
X111344Y109063D03*
D170*
X170407Y109250D03*
D61*
X138063Y109250D03*
D148*
X111344Y109250D03*
X173031Y109437D03*
D170*
X170594Y109437D03*
D42*
X138063Y109437D03*
D148*
X111344Y109437D03*
D89*
X172094Y109625D03*
D69*
X138063Y109625D03*
D49*
X111344Y109625D03*
D140*
X172281Y109813D03*
D79*
X138157Y109813D03*
D148*
X111344Y109813D03*
D66*
X172469Y110000D03*
D214*
X154750Y110000D03*
D215*
X129907Y110000D03*
D54*
X111344Y110000D03*
D140*
X172656Y110187D03*
D216*
X154750Y110187D03*
D217*
X129813Y110187D03*
D24*
X111438Y110187D03*
D140*
X172844Y110375D03*
D218*
X154844Y110375D03*
D219*
X129719Y110375D03*
D24*
X111438Y110375D03*
D89*
X173031Y110563D03*
D220*
X154938Y110563D03*
D221*
X129813Y110563D03*
D22*
X111438Y110563D03*
D140*
X173031Y110750D03*
D222*
X155032Y110750D03*
D219*
X129719Y110750D03*
D24*
X111438Y110750D03*
D71*
X173032Y110938D03*
D223*
X155125Y110938D03*
D224*
X129813Y110938D03*
D206*
X111438Y110938D03*
D79*
X173032Y111125D03*
D225*
X155313Y111125D03*
D226*
X129907Y111125D03*
D24*
X111438Y111125D03*
D79*
X173032Y111312D03*
D187*
X161500Y111312D03*
D79*
X138157Y111312D03*
D24*
X111438Y111312D03*
D90*
X173031Y111500D03*
D188*
X161688Y111500D03*
D69*
X138063Y111500D03*
D22*
X111438Y111500D03*
D41*
X173031Y111688D03*
D187*
X161875Y111688D03*
D42*
X138063Y111688D03*
D24*
X111438Y111688D03*
D99*
X173031Y111875D03*
D27*
X162063Y111875D03*
D227*
X138063Y111875D03*
D206*
X111438Y111875D03*
D41*
X173031Y112062D03*
D187*
X162250Y112062D03*
D14*
X138157Y112062D03*
D24*
X111438Y112062D03*
D41*
X173031Y112250D03*
D186*
X162438Y112250D03*
D94*
X138063Y112250D03*
D24*
X111438Y112250D03*
D59*
X173032Y112438D03*
D168*
X162625Y112438D03*
D87*
X138157Y112438D03*
D22*
X111438Y112438D03*
D79*
X173032Y112625D03*
D186*
X162813Y112625D03*
D34*
X138156Y112625D03*
D24*
X111438Y112625D03*
D71*
X173032Y112813D03*
D114*
X163000Y112813D03*
D31*
X138063Y112813D03*
D206*
X111438Y112813D03*
D140*
X173031Y113000D03*
D186*
X163188Y113000D03*
D24*
X138063Y113000D03*
X111438Y113000D03*
D140*
X173031Y113187D03*
D187*
X163375Y113187D03*
D24*
X111438Y113187D03*
D147*
X173032Y113375D03*
D188*
X163563Y113375D03*
D22*
X111438Y113375D03*
D151*
X173031Y113563D03*
D187*
X163750Y113563D03*
D24*
X111438Y113563D03*
D55*
X173032Y113750D03*
D27*
X163938Y113750D03*
D206*
X111438Y113750D03*
D34*
X173031Y113937D03*
D187*
X164125Y113937D03*
D24*
X111438Y113937D03*
D112*
X173031Y114125D03*
D186*
X164313Y114125D03*
D24*
X111438Y114125D03*
D12*
X173032Y114313D03*
D168*
X164500Y114313D03*
D172*
X111532Y114313D03*
D186*
X164688Y114500D03*
D170*
X111532Y114500D03*
D114*
X164875Y114688D03*
D171*
X111532Y114688D03*
D186*
X165063Y114875D03*
D228*
X155125Y114875D03*
D170*
X111532Y114875D03*
D205*
X167500Y115062D03*
D187*
X165250Y115062D03*
D205*
X155500Y115062D03*
D170*
X111532Y115062D03*
D89*
X166656Y115250D03*
D32*
X156063Y115250D03*
D172*
X111532Y115250D03*
D140*
X166844Y115438D03*
D75*
X156063Y115438D03*
D170*
X111532Y115438D03*
D66*
X167031Y115625D03*
D95*
X156063Y115625D03*
D171*
X111532Y115625D03*
D140*
X167219Y115812D03*
D34*
X155969Y115812D03*
D170*
X111532Y115812D03*
D140*
X167406Y116000D03*
D34*
X155969Y116000D03*
D170*
X111532Y116000D03*
D89*
X167594Y116188D03*
D58*
X155969Y116188D03*
D172*
X111532Y116188D03*
D43*
X167500Y116375D03*
D47*
X155969Y116375D03*
D114*
X111625Y116375D03*
D79*
X167594Y116562D03*
D34*
X155969Y116562D03*
D187*
X111625Y116562D03*
D132*
X167500Y116750D03*
D41*
X154656Y116750D03*
D110*
X112375Y116750D03*
D132*
X167500Y116937D03*
D229*
X154188Y116937D03*
D79*
X113032Y116937D03*
D84*
X167500Y117125D03*
D82*
X153625Y117125D03*
D230*
X113688Y117125D03*
D231*
X167500Y117313D03*
D232*
X153250Y117313D03*
D52*
X114063Y117313D03*
D132*
X167500Y117500D03*
D233*
X152781Y117500D03*
D234*
X114532Y117500D03*
D132*
X167500Y117687D03*
D235*
X152500Y117687D03*
D236*
X114813Y117687D03*
D132*
X167500Y117875D03*
D237*
X152125Y117875D03*
D238*
X115188Y117875D03*
D84*
X167500Y118063D03*
D239*
X151938Y118063D03*
D128*
X115375Y118063D03*
D71*
X167594Y118250D03*
D240*
X151656Y118250D03*
D117*
X115750Y118250D03*
D174*
X167500Y118438D03*
D241*
X151375Y118438D03*
D239*
X115938Y118438D03*
D43*
X167500Y118625D03*
D242*
X151094Y118625D03*
D243*
X116313Y118625D03*
D141*
X167500Y118812D03*
D178*
X150906Y118812D03*
D244*
X116500Y118812D03*
D147*
X167594Y119000D03*
D245*
X150625Y119000D03*
D246*
X116782Y119000D03*
D98*
X167594Y119188D03*
D247*
X150344Y119188D03*
D183*
X116969Y119188D03*
D87*
X167594Y119375D03*
D248*
X150063Y119375D03*
D245*
X117250Y119375D03*
D64*
X167500Y119563D03*
D171*
X156157Y119563D03*
D125*
X147625Y119563D03*
D249*
X118938Y119563D03*
D114*
X111625Y119563D03*
D112*
X167594Y119750D03*
D228*
X156625Y119750D03*
D130*
X146782Y119750D03*
D155*
X119969Y119750D03*
D169*
X110969Y119750D03*
D250*
X167500Y119938D03*
D251*
X146032Y119938D03*
D252*
X120813Y119938D03*
D253*
X145469Y120125D03*
X121469Y120125D03*
D73*
X145000Y120313D03*
D60*
X122031Y120313D03*
D254*
X144438Y120500D03*
D232*
X122500Y120500D03*
D255*
X143875Y120687D03*
D256*
X123063Y120687D03*
D160*
X143500Y120875D03*
D257*
X123438Y120875D03*
D85*
X142938Y121063D03*
D258*
X124000Y121063D03*
D21*
X142563Y121250D03*
D259*
X124469Y121250D03*
D260*
X142094Y121438D03*
X125032Y121438D03*
D261*
X141625Y121625D03*
D162*
X125407Y121625D03*
D68*
X141250Y121813D03*
X125875Y121813D03*
D262*
X140781Y122000D03*
D37*
X126250Y122000D03*
D72*
X140406Y122188D03*
D167*
X126625Y122188D03*
D262*
X140031Y122375D03*
X127094Y122375D03*
D51*
X139563Y122562D03*
D164*
X127469Y122562D03*
D263*
X139188Y122750D03*
D143*
X127844Y122750D03*
D65*
X138907Y122938D03*
X128219Y122938D03*
D143*
X138532Y123125D03*
X128594Y123125D03*
D264*
X138063Y123313D03*
D65*
X128969Y123313D03*
D164*
X137782Y123500D03*
D163*
X129250Y123500D03*
D50*
X137406Y123688D03*
D39*
X129625Y123688D03*
D265*
X137031Y123875D03*
D266*
X130000Y123875D03*
D50*
X136656Y124063D03*
X130469Y124063D03*
D267*
X133469Y124250D03*
D268*
X133563Y124437D03*
D269*
X133469Y124625D03*
D133*
X133469Y124813D03*
D252*
X133563Y125000D03*
D254*
X133563Y125188D03*
D74*
X133563Y125375D03*
D263*
X133563Y125563D03*
D264*
X133563Y125750D03*
D270*
X133563Y125938D03*
D44*
X133563Y126125D03*
D94*
X133563Y126312D03*
D36*
X133563Y126500D03*
D95*
X133563Y126688D03*
D188*
X133563Y126875D03*
D206*
X133563Y127063D03*
D271*
X133563Y127250D03*
D100*
X133563Y127438D03*
D272*
X206480Y34160D02*
X213480Y34160D01*
X187480Y12660D02*
X176480Y12660D01*
X157480Y34160D02*
X150480Y34160D01*
D273*
X11000Y56000D03*
X11000Y69000D03*
X11000Y83000D03*
X11000Y97000D03*
X11000Y111000D03*
D274*
X216000Y56000D03*
X227000Y56000D03*
X207000Y125000D03*
X218000Y125000D03*
X229000Y125000D03*
X15000Y19000D03*
X26000Y19000D03*
X37000Y19000D03*
X191000Y56000D03*
X90000Y84000D03*
X201000Y56000D03*
X104000Y91068D03*
X50000Y50000D03*
X74000Y161000D03*
X131000Y141000D03*
X104000Y50000D03*
X73000Y50000D03*
X143000Y141000D03*
X154000Y154000D03*
X86000Y50000D03*
X191000Y107000D03*
X204000Y107000D03*
X191000Y89000D03*
X204000Y89000D03*
X15000Y33000D03*
X59000Y14000D03*
X69000Y141000D03*
X85000Y141000D03*
X74000Y179000D03*
X177000Y179000D03*
X68000Y97000D03*
X68000Y84000D03*
X50000Y97000D03*
X90000Y97000D03*
M02*
