G04 EAGLE Gerber RS-274X export*
G75*
%MOMM*%
%FSLAX34Y34*%
%LPD*%
%INCopper Layer 15*%
%IPPOS*%
%AMOC8*
5,1,8,0,0,1.08239X$1,22.5*%
G01*
G04 Define Apertures*
%ADD10C,0.756400*%
%ADD11C,0.203200*%
G36*
X216019Y1279D02*
X215900Y1270D01*
X25400Y1270D01*
X25281Y1279D01*
X18060Y2423D01*
X17833Y2497D01*
X11319Y5816D01*
X11126Y5956D01*
X5956Y11126D01*
X5816Y11319D01*
X2497Y17833D01*
X2423Y18060D01*
X1279Y25281D01*
X1270Y25400D01*
X1270Y165100D01*
X1279Y165219D01*
X2423Y172440D01*
X2497Y172667D01*
X5816Y179181D01*
X5956Y179374D01*
X11126Y184544D01*
X11319Y184684D01*
X17833Y188003D01*
X18060Y188077D01*
X25281Y189221D01*
X25400Y189230D01*
X215900Y189230D01*
X216019Y189221D01*
X223240Y188077D01*
X223467Y188003D01*
X229981Y184684D01*
X230174Y184544D01*
X235344Y179374D01*
X235484Y179181D01*
X238803Y172667D01*
X238877Y172440D01*
X240021Y165219D01*
X240030Y165100D01*
X240030Y25400D01*
X240021Y25281D01*
X238877Y18060D01*
X238803Y17833D01*
X235484Y11319D01*
X235344Y11126D01*
X230174Y5956D01*
X229981Y5816D01*
X223467Y2497D01*
X223240Y2423D01*
X216019Y1279D01*
G37*
%LPC*%
G36*
X212540Y148209D02*
X219260Y148209D01*
X225468Y150781D01*
X230220Y155532D01*
X232791Y161740D01*
X232791Y168460D01*
X230220Y174668D01*
X225468Y179420D01*
X219260Y181991D01*
X212540Y181991D01*
X206332Y179420D01*
X201581Y174668D01*
X199009Y168460D01*
X199009Y161740D01*
X201581Y155532D01*
X206332Y150781D01*
X212540Y148209D01*
G37*
G36*
X22040Y148209D02*
X28760Y148209D01*
X34968Y150781D01*
X39720Y155532D01*
X42291Y161740D01*
X42291Y168460D01*
X39720Y174668D01*
X34968Y179420D01*
X28760Y181991D01*
X22040Y181991D01*
X15832Y179420D01*
X11081Y174668D01*
X8509Y168460D01*
X8509Y161740D01*
X11081Y155532D01*
X15832Y150781D01*
X22040Y148209D01*
G37*
G36*
X71802Y155694D02*
X76198Y155694D01*
X79306Y158802D01*
X79306Y163198D01*
X76198Y166306D01*
X71802Y166306D01*
X68694Y163198D01*
X68694Y158802D01*
X71802Y155694D01*
G37*
G36*
X83948Y35460D02*
X109052Y35460D01*
X122540Y48948D01*
X122540Y116632D01*
X122596Y116918D01*
X122763Y117171D01*
X141063Y135471D01*
X141305Y135634D01*
X141602Y135694D01*
X145198Y135694D01*
X148306Y138802D01*
X148306Y143198D01*
X145198Y146306D01*
X140802Y146306D01*
X137539Y143043D01*
X137308Y142885D01*
X137012Y142820D01*
X136714Y142875D01*
X136461Y143043D01*
X133198Y146306D01*
X129738Y146306D01*
X129474Y146353D01*
X129216Y146512D01*
X129041Y146760D01*
X128976Y147056D01*
X129031Y147354D01*
X129199Y147607D01*
X132829Y151237D01*
X133071Y151400D01*
X133368Y151460D01*
X148721Y151460D01*
X149007Y151404D01*
X149259Y151237D01*
X151802Y148694D01*
X156198Y148694D01*
X159306Y151802D01*
X159306Y156198D01*
X156198Y159306D01*
X151802Y159306D01*
X149259Y156763D01*
X149018Y156600D01*
X148721Y156540D01*
X130948Y156540D01*
X80460Y106052D01*
X80460Y51948D01*
X80471Y51937D01*
X80634Y51696D01*
X80694Y51398D01*
X80694Y47738D01*
X80647Y47474D01*
X80488Y47216D01*
X80240Y47041D01*
X79944Y46976D01*
X79646Y47031D01*
X79393Y47199D01*
X78529Y48063D01*
X78366Y48305D01*
X78306Y48602D01*
X78306Y52198D01*
X75198Y55306D01*
X70802Y55306D01*
X67694Y52198D01*
X67694Y47802D01*
X70802Y44694D01*
X74398Y44694D01*
X74684Y44638D01*
X74937Y44471D01*
X83948Y35460D01*
G37*
G36*
X204802Y119694D02*
X209198Y119694D01*
X211961Y122457D01*
X212192Y122615D01*
X212488Y122680D01*
X212786Y122625D01*
X213039Y122457D01*
X215802Y119694D01*
X220198Y119694D01*
X222961Y122457D01*
X223192Y122615D01*
X223488Y122680D01*
X223786Y122625D01*
X224039Y122457D01*
X226802Y119694D01*
X231198Y119694D01*
X234306Y122802D01*
X234306Y127198D01*
X231198Y130306D01*
X226802Y130306D01*
X224039Y127543D01*
X223808Y127385D01*
X223512Y127320D01*
X223214Y127375D01*
X222961Y127543D01*
X220198Y130306D01*
X215802Y130306D01*
X213039Y127543D01*
X212808Y127385D01*
X212512Y127320D01*
X212214Y127375D01*
X211961Y127543D01*
X209198Y130306D01*
X204802Y130306D01*
X201694Y127198D01*
X201694Y122802D01*
X204802Y119694D01*
G37*
G36*
X65802Y91694D02*
X70198Y91694D01*
X73306Y94802D01*
X73306Y99198D01*
X70198Y102306D01*
X65802Y102306D01*
X62694Y99198D01*
X62694Y94802D01*
X65802Y91694D01*
G37*
G36*
X47802Y91694D02*
X52198Y91694D01*
X55306Y94802D01*
X55306Y99198D01*
X52198Y102306D01*
X47802Y102306D01*
X44694Y99198D01*
X44694Y94802D01*
X47802Y91694D01*
G37*
G36*
X65802Y78694D02*
X70198Y78694D01*
X73306Y81802D01*
X73306Y86198D01*
X70198Y89306D01*
X65802Y89306D01*
X62694Y86198D01*
X62694Y81802D01*
X65802Y78694D01*
G37*
G36*
X213802Y50694D02*
X218198Y50694D01*
X220961Y53457D01*
X221192Y53615D01*
X221488Y53680D01*
X221786Y53625D01*
X222039Y53457D01*
X224802Y50694D01*
X229198Y50694D01*
X232306Y53802D01*
X232306Y58198D01*
X229198Y61306D01*
X224802Y61306D01*
X222039Y58543D01*
X221808Y58385D01*
X221512Y58320D01*
X221214Y58375D01*
X220961Y58543D01*
X218198Y61306D01*
X213802Y61306D01*
X210694Y58198D01*
X210694Y53802D01*
X213802Y50694D01*
G37*
G36*
X188802Y50694D02*
X193198Y50694D01*
X195461Y52957D01*
X195692Y53115D01*
X195988Y53180D01*
X196286Y53125D01*
X196539Y52957D01*
X198802Y50694D01*
X203198Y50694D01*
X206306Y53802D01*
X206306Y58198D01*
X203198Y61306D01*
X198802Y61306D01*
X196539Y59043D01*
X196308Y58885D01*
X196012Y58820D01*
X195714Y58875D01*
X195461Y59043D01*
X193198Y61306D01*
X188802Y61306D01*
X185694Y58198D01*
X185694Y53802D01*
X188802Y50694D01*
G37*
G36*
X47802Y44694D02*
X52198Y44694D01*
X55306Y47802D01*
X55306Y52198D01*
X52198Y55306D01*
X47802Y55306D01*
X44694Y52198D01*
X44694Y47802D01*
X47802Y44694D01*
G37*
G36*
X12802Y13694D02*
X17198Y13694D01*
X19961Y16457D01*
X20192Y16615D01*
X20488Y16680D01*
X20786Y16625D01*
X21039Y16457D01*
X23802Y13694D01*
X28198Y13694D01*
X30961Y16457D01*
X31192Y16615D01*
X31488Y16680D01*
X31786Y16625D01*
X32039Y16457D01*
X34802Y13694D01*
X39198Y13694D01*
X42306Y16802D01*
X42306Y21198D01*
X39198Y24306D01*
X34802Y24306D01*
X32039Y21543D01*
X31808Y21385D01*
X31512Y21320D01*
X31214Y21375D01*
X30961Y21543D01*
X28198Y24306D01*
X23802Y24306D01*
X21039Y21543D01*
X20808Y21385D01*
X20512Y21320D01*
X20214Y21375D01*
X19961Y21543D01*
X17198Y24306D01*
X12802Y24306D01*
X9694Y21198D01*
X9694Y16802D01*
X12802Y13694D01*
G37*
%LPD*%
D10*
X216000Y56000D03*
X227000Y56000D03*
X207000Y125000D03*
X218000Y125000D03*
X229000Y125000D03*
X15000Y19000D03*
X26000Y19000D03*
X37000Y19000D03*
X191000Y56000D03*
X90000Y84000D03*
X201000Y56000D03*
X104000Y91068D03*
X50000Y50000D03*
X74000Y161000D03*
X131000Y141000D03*
D11*
X114000Y124000D01*
X114000Y60000D01*
X104000Y50000D01*
D10*
X104000Y50000D03*
X73000Y50000D03*
X143000Y141000D03*
D11*
X73000Y50000D02*
X85000Y38000D01*
X108000Y38000D01*
X120000Y50000D01*
X120000Y118000D01*
X143000Y141000D01*
D10*
X154000Y154000D03*
D11*
X132000Y154000D01*
X83000Y105000D01*
X83000Y53000D01*
X86000Y50000D01*
D10*
X86000Y50000D03*
X191000Y107000D03*
X204000Y107000D03*
X191000Y89000D03*
X204000Y89000D03*
X15000Y33000D03*
X59000Y14000D03*
X69000Y141000D03*
X85000Y141000D03*
X74000Y179000D03*
X177000Y179000D03*
X68000Y97000D03*
X68000Y84000D03*
X50000Y97000D03*
X90000Y97000D03*
M02*
