G04 EAGLE Gerber RS-274X export*
G75*
%MOMM*%
%FSLAX34Y34*%
%LPD*%
%INCopper Layer 2*%
%IPPOS*%
%AMOC8*
5,1,8,0,0,1.08239X$1,22.5*%
G01*
G04 Define Apertures*
%ADD10C,0.756400*%
%ADD11C,0.203200*%
G36*
X216019Y1279D02*
X215900Y1270D01*
X25400Y1270D01*
X25281Y1279D01*
X18060Y2423D01*
X17833Y2497D01*
X11319Y5816D01*
X11126Y5956D01*
X5956Y11126D01*
X5816Y11319D01*
X2497Y17833D01*
X2423Y18060D01*
X1279Y25281D01*
X1270Y25400D01*
X1270Y165100D01*
X1279Y165219D01*
X2423Y172440D01*
X2497Y172667D01*
X5816Y179181D01*
X5956Y179374D01*
X11126Y184544D01*
X11319Y184684D01*
X17833Y188003D01*
X18060Y188077D01*
X25281Y189221D01*
X25400Y189230D01*
X215900Y189230D01*
X216019Y189221D01*
X223240Y188077D01*
X223467Y188003D01*
X229981Y184684D01*
X230174Y184544D01*
X235344Y179374D01*
X235484Y179181D01*
X238803Y172667D01*
X238877Y172440D01*
X240021Y165219D01*
X240030Y165100D01*
X240030Y25400D01*
X240021Y25281D01*
X238877Y18060D01*
X238803Y17833D01*
X235484Y11319D01*
X235344Y11126D01*
X230174Y5956D01*
X229981Y5816D01*
X223467Y2497D01*
X223240Y2423D01*
X216019Y1279D01*
G37*
%LPC*%
G36*
X174802Y173694D02*
X179198Y173694D01*
X182306Y176802D01*
X182306Y181198D01*
X179198Y184306D01*
X174802Y184306D01*
X171694Y181198D01*
X171694Y176802D01*
X174802Y173694D01*
G37*
G36*
X71802Y173694D02*
X76198Y173694D01*
X79306Y176802D01*
X79306Y181198D01*
X76198Y184306D01*
X71802Y184306D01*
X68694Y181198D01*
X68694Y176802D01*
X71802Y173694D01*
G37*
G36*
X212540Y148209D02*
X219260Y148209D01*
X225468Y150781D01*
X230220Y155532D01*
X232791Y161740D01*
X232791Y168460D01*
X230220Y174668D01*
X225468Y179420D01*
X219260Y181991D01*
X212540Y181991D01*
X206332Y179420D01*
X201581Y174668D01*
X199009Y168460D01*
X199009Y161740D01*
X201581Y155532D01*
X206332Y150781D01*
X212540Y148209D01*
G37*
G36*
X22040Y148209D02*
X28760Y148209D01*
X34968Y150781D01*
X39720Y155532D01*
X42291Y161740D01*
X42291Y168460D01*
X39720Y174668D01*
X34968Y179420D01*
X28760Y181991D01*
X22040Y181991D01*
X15832Y179420D01*
X11081Y174668D01*
X8509Y168460D01*
X8509Y161740D01*
X11081Y155532D01*
X15832Y150781D01*
X22040Y148209D01*
G37*
G36*
X47802Y44694D02*
X52198Y44694D01*
X55306Y47802D01*
X55306Y52198D01*
X52198Y55306D01*
X48602Y55306D01*
X48316Y55362D01*
X48063Y55529D01*
X45763Y57829D01*
X45600Y58071D01*
X45540Y58368D01*
X45540Y92117D01*
X45587Y92380D01*
X45746Y92638D01*
X45994Y92813D01*
X46290Y92878D01*
X46588Y92823D01*
X46841Y92655D01*
X47802Y91694D01*
X52198Y91694D01*
X55306Y94802D01*
X55306Y99198D01*
X53587Y100917D01*
X53429Y101148D01*
X53364Y101444D01*
X53419Y101742D01*
X53587Y101995D01*
X56829Y105237D01*
X57071Y105400D01*
X57368Y105460D01*
X76632Y105460D01*
X76918Y105404D01*
X77171Y105237D01*
X84471Y97937D01*
X84634Y97696D01*
X84694Y97398D01*
X84694Y94802D01*
X87802Y91694D01*
X92198Y91694D01*
X95306Y94802D01*
X95306Y99198D01*
X92198Y102306D01*
X87602Y102306D01*
X87316Y102362D01*
X87063Y102529D01*
X79052Y110540D01*
X54972Y110540D01*
X54708Y110587D01*
X54450Y110746D01*
X54275Y110994D01*
X54210Y111290D01*
X54265Y111588D01*
X54433Y111841D01*
X55540Y112948D01*
X55540Y143632D01*
X55596Y143918D01*
X55763Y144171D01*
X69005Y157413D01*
X69236Y157571D01*
X69532Y157636D01*
X69830Y157581D01*
X70083Y157413D01*
X71802Y155694D01*
X76198Y155694D01*
X79306Y158802D01*
X79306Y163198D01*
X76198Y166306D01*
X71802Y166306D01*
X69259Y163763D01*
X69018Y163600D01*
X68721Y163540D01*
X67948Y163540D01*
X50460Y146052D01*
X50460Y115368D01*
X50404Y115082D01*
X50237Y114829D01*
X40460Y105052D01*
X40460Y55948D01*
X44471Y51937D01*
X44634Y51696D01*
X44694Y51398D01*
X44694Y47802D01*
X47802Y44694D01*
G37*
G36*
X151802Y148694D02*
X156198Y148694D01*
X159306Y151802D01*
X159306Y156198D01*
X156198Y159306D01*
X151802Y159306D01*
X148694Y156198D01*
X148694Y151802D01*
X151802Y148694D01*
G37*
G36*
X128802Y135694D02*
X133198Y135694D01*
X136461Y138957D01*
X136692Y139115D01*
X136988Y139180D01*
X137286Y139125D01*
X137539Y138957D01*
X140802Y135694D01*
X145198Y135694D01*
X148306Y138802D01*
X148306Y143198D01*
X145198Y146306D01*
X140802Y146306D01*
X137539Y143043D01*
X137308Y142885D01*
X137012Y142820D01*
X136714Y142875D01*
X136461Y143043D01*
X133198Y146306D01*
X128802Y146306D01*
X125694Y143198D01*
X125694Y138802D01*
X128802Y135694D01*
G37*
G36*
X82802Y135694D02*
X87198Y135694D01*
X90306Y138802D01*
X90306Y143198D01*
X87198Y146306D01*
X82802Y146306D01*
X79694Y143198D01*
X79694Y138802D01*
X82802Y135694D01*
G37*
G36*
X66802Y135694D02*
X71198Y135694D01*
X74306Y138802D01*
X74306Y143198D01*
X71198Y146306D01*
X66802Y146306D01*
X63694Y143198D01*
X63694Y138802D01*
X66802Y135694D01*
G37*
G36*
X201802Y101694D02*
X206198Y101694D01*
X209306Y104802D01*
X209306Y109198D01*
X206198Y112306D01*
X201802Y112306D01*
X198694Y109198D01*
X198694Y104802D01*
X201802Y101694D01*
G37*
G36*
X188802Y101694D02*
X193198Y101694D01*
X196306Y104802D01*
X196306Y109198D01*
X193198Y112306D01*
X188802Y112306D01*
X185694Y109198D01*
X185694Y104802D01*
X188802Y101694D01*
G37*
G36*
X65802Y91694D02*
X70198Y91694D01*
X73306Y94802D01*
X73306Y99198D01*
X70198Y102306D01*
X65802Y102306D01*
X62694Y99198D01*
X62694Y94802D01*
X65802Y91694D01*
G37*
G36*
X188802Y50694D02*
X193198Y50694D01*
X195461Y52957D01*
X195692Y53115D01*
X195988Y53180D01*
X196286Y53125D01*
X196539Y52957D01*
X198802Y50694D01*
X203198Y50694D01*
X206306Y53802D01*
X206306Y58198D01*
X203763Y60741D01*
X203600Y60982D01*
X203540Y61279D01*
X203540Y64091D01*
X201174Y69803D01*
X196803Y74174D01*
X191091Y76540D01*
X110000Y76540D01*
X109803Y76566D01*
X108454Y76927D01*
X108112Y77125D01*
X107125Y78112D01*
X106927Y78454D01*
X106566Y79803D01*
X106540Y80000D01*
X106540Y85789D01*
X106596Y86075D01*
X106763Y86327D01*
X109306Y88870D01*
X109306Y93266D01*
X106198Y96374D01*
X101802Y96374D01*
X98694Y93266D01*
X98694Y88870D01*
X101237Y86327D01*
X101400Y86086D01*
X101460Y85789D01*
X101460Y83003D01*
X101443Y82841D01*
X101321Y82563D01*
X101100Y82355D01*
X100816Y82250D01*
X100513Y82264D01*
X100239Y82395D01*
X100038Y82622D01*
X98788Y84788D01*
X95752Y86540D01*
X95279Y86540D01*
X94993Y86596D01*
X94741Y86763D01*
X92198Y89306D01*
X87802Y89306D01*
X84694Y86198D01*
X84694Y81802D01*
X87802Y78694D01*
X92198Y78694D01*
X94135Y80631D01*
X94453Y80821D01*
X94755Y80850D01*
X95044Y80758D01*
X95274Y80561D01*
X95409Y80289D01*
X95434Y80197D01*
X95460Y80000D01*
X95460Y77506D01*
X97369Y72897D01*
X100897Y69369D01*
X105506Y67460D01*
X181000Y67460D01*
X181197Y67434D01*
X184546Y66537D01*
X184888Y66339D01*
X187339Y63888D01*
X187537Y63546D01*
X188164Y61206D01*
X188190Y61021D01*
X188134Y60723D01*
X187966Y60470D01*
X185694Y58198D01*
X185694Y53802D01*
X188802Y50694D01*
G37*
G36*
X201802Y83694D02*
X206198Y83694D01*
X209306Y86802D01*
X209306Y91198D01*
X206198Y94306D01*
X201802Y94306D01*
X198694Y91198D01*
X198694Y86802D01*
X201802Y83694D01*
G37*
G36*
X188802Y83694D02*
X193198Y83694D01*
X196306Y86802D01*
X196306Y91198D01*
X193198Y94306D01*
X188802Y94306D01*
X185694Y91198D01*
X185694Y86802D01*
X188802Y83694D01*
G37*
G36*
X65802Y78694D02*
X70198Y78694D01*
X73306Y81802D01*
X73306Y86198D01*
X70198Y89306D01*
X65802Y89306D01*
X62694Y86198D01*
X62694Y81802D01*
X65802Y78694D01*
G37*
G36*
X101802Y44694D02*
X106198Y44694D01*
X109306Y47802D01*
X109306Y52198D01*
X106198Y55306D01*
X101802Y55306D01*
X98694Y52198D01*
X98694Y47802D01*
X101802Y44694D01*
G37*
G36*
X83802Y44694D02*
X88198Y44694D01*
X91306Y47802D01*
X91306Y52198D01*
X88198Y55306D01*
X83802Y55306D01*
X80694Y52198D01*
X80694Y47802D01*
X83802Y44694D01*
G37*
G36*
X70802Y44694D02*
X75198Y44694D01*
X78306Y47802D01*
X78306Y52198D01*
X75198Y55306D01*
X70802Y55306D01*
X67694Y52198D01*
X67694Y47802D01*
X70802Y44694D01*
G37*
G36*
X12802Y27694D02*
X17198Y27694D01*
X20306Y30802D01*
X20306Y35198D01*
X17198Y38306D01*
X12802Y38306D01*
X9694Y35198D01*
X9694Y30802D01*
X12802Y27694D01*
G37*
G36*
X56802Y8694D02*
X61198Y8694D01*
X64306Y11802D01*
X64306Y16198D01*
X61198Y19306D01*
X56802Y19306D01*
X53694Y16198D01*
X53694Y11802D01*
X56802Y8694D01*
G37*
%LPD*%
D10*
X216000Y56000D03*
X227000Y56000D03*
X207000Y125000D03*
X218000Y125000D03*
X229000Y125000D03*
X15000Y19000D03*
X26000Y19000D03*
X37000Y19000D03*
X191000Y56000D03*
D11*
X191000Y60000D01*
X190997Y60242D01*
X190988Y60483D01*
X190974Y60724D01*
X190953Y60965D01*
X190927Y61205D01*
X190895Y61445D01*
X190857Y61684D01*
X190814Y61921D01*
X190764Y62158D01*
X190709Y62393D01*
X190649Y62627D01*
X190582Y62859D01*
X190511Y63090D01*
X190433Y63319D01*
X190350Y63546D01*
X190262Y63771D01*
X190168Y63994D01*
X190069Y64214D01*
X189964Y64432D01*
X189855Y64647D01*
X189740Y64860D01*
X189620Y65070D01*
X189495Y65276D01*
X189365Y65480D01*
X189230Y65681D01*
X189090Y65878D01*
X188946Y66072D01*
X188797Y66262D01*
X188643Y66448D01*
X188485Y66631D01*
X188323Y66810D01*
X188156Y66985D01*
X187985Y67156D01*
X187810Y67323D01*
X187631Y67485D01*
X187448Y67643D01*
X187262Y67797D01*
X187072Y67946D01*
X186878Y68090D01*
X186681Y68230D01*
X186480Y68365D01*
X186276Y68495D01*
X186070Y68620D01*
X185860Y68740D01*
X185647Y68855D01*
X185432Y68964D01*
X185214Y69069D01*
X184994Y69168D01*
X184771Y69262D01*
X184546Y69350D01*
X184319Y69433D01*
X184090Y69511D01*
X183859Y69582D01*
X183627Y69649D01*
X183393Y69709D01*
X183158Y69764D01*
X182921Y69814D01*
X182684Y69857D01*
X182445Y69895D01*
X182205Y69927D01*
X181965Y69953D01*
X181724Y69974D01*
X181483Y69988D01*
X181242Y69997D01*
X181000Y70000D01*
X108000Y70000D01*
D10*
X90000Y84000D03*
D11*
X98000Y80000D02*
X98003Y79758D01*
X98012Y79517D01*
X98026Y79276D01*
X98047Y79035D01*
X98073Y78795D01*
X98105Y78555D01*
X98143Y78316D01*
X98186Y78079D01*
X98236Y77842D01*
X98291Y77607D01*
X98351Y77373D01*
X98418Y77141D01*
X98489Y76910D01*
X98567Y76681D01*
X98650Y76454D01*
X98738Y76229D01*
X98832Y76006D01*
X98931Y75786D01*
X99036Y75568D01*
X99145Y75353D01*
X99260Y75140D01*
X99380Y74930D01*
X99505Y74724D01*
X99635Y74520D01*
X99770Y74319D01*
X99910Y74122D01*
X100054Y73928D01*
X100203Y73738D01*
X100357Y73552D01*
X100515Y73369D01*
X100677Y73190D01*
X100844Y73015D01*
X101015Y72844D01*
X101190Y72677D01*
X101369Y72515D01*
X101552Y72357D01*
X101738Y72203D01*
X101928Y72054D01*
X102122Y71910D01*
X102319Y71770D01*
X102520Y71635D01*
X102724Y71505D01*
X102930Y71380D01*
X103140Y71260D01*
X103353Y71145D01*
X103568Y71036D01*
X103786Y70931D01*
X104006Y70832D01*
X104229Y70738D01*
X104454Y70650D01*
X104681Y70567D01*
X104910Y70489D01*
X105141Y70418D01*
X105373Y70351D01*
X105607Y70291D01*
X105842Y70236D01*
X106079Y70186D01*
X106316Y70143D01*
X106555Y70105D01*
X106795Y70073D01*
X107035Y70047D01*
X107276Y70026D01*
X107517Y70012D01*
X107758Y70003D01*
X108000Y70000D01*
X98000Y80000D02*
X97998Y80126D01*
X97992Y80251D01*
X97982Y80376D01*
X97968Y80501D01*
X97951Y80626D01*
X97929Y80750D01*
X97904Y80873D01*
X97874Y80995D01*
X97841Y81116D01*
X97804Y81236D01*
X97764Y81355D01*
X97719Y81472D01*
X97671Y81589D01*
X97619Y81703D01*
X97564Y81816D01*
X97505Y81927D01*
X97443Y82036D01*
X97377Y82143D01*
X97308Y82248D01*
X97236Y82351D01*
X97161Y82452D01*
X97082Y82550D01*
X97000Y82645D01*
X96916Y82738D01*
X96828Y82828D01*
X96738Y82916D01*
X96645Y83000D01*
X96550Y83082D01*
X96452Y83161D01*
X96351Y83236D01*
X96248Y83308D01*
X96143Y83377D01*
X96036Y83443D01*
X95927Y83505D01*
X95816Y83564D01*
X95703Y83619D01*
X95589Y83671D01*
X95472Y83719D01*
X95355Y83764D01*
X95236Y83804D01*
X95116Y83841D01*
X94995Y83874D01*
X94873Y83904D01*
X94750Y83929D01*
X94626Y83951D01*
X94501Y83968D01*
X94376Y83982D01*
X94251Y83992D01*
X94126Y83998D01*
X94000Y84000D01*
X90000Y84000D01*
D10*
X201000Y56000D03*
D11*
X201000Y61000D01*
X200996Y61314D01*
X200985Y61628D01*
X200966Y61942D01*
X200939Y62255D01*
X200905Y62567D01*
X200864Y62878D01*
X200814Y63189D01*
X200758Y63498D01*
X200694Y63805D01*
X200622Y64111D01*
X200543Y64415D01*
X200457Y64717D01*
X200364Y65017D01*
X200263Y65315D01*
X200155Y65610D01*
X200040Y65902D01*
X199918Y66192D01*
X199789Y66478D01*
X199654Y66761D01*
X199511Y67041D01*
X199362Y67318D01*
X199206Y67590D01*
X199043Y67859D01*
X198874Y68124D01*
X198699Y68385D01*
X198517Y68641D01*
X198330Y68893D01*
X198136Y69140D01*
X197936Y69383D01*
X197731Y69621D01*
X197519Y69853D01*
X197303Y70081D01*
X197081Y70303D01*
X196853Y70519D01*
X196621Y70731D01*
X196383Y70936D01*
X196140Y71136D01*
X195893Y71330D01*
X195641Y71517D01*
X195385Y71699D01*
X195124Y71874D01*
X194859Y72043D01*
X194590Y72206D01*
X194318Y72362D01*
X194041Y72511D01*
X193761Y72654D01*
X193478Y72789D01*
X193192Y72918D01*
X192902Y73040D01*
X192610Y73155D01*
X192315Y73263D01*
X192017Y73364D01*
X191717Y73457D01*
X191415Y73543D01*
X191111Y73622D01*
X190805Y73694D01*
X190498Y73758D01*
X190189Y73814D01*
X189878Y73864D01*
X189567Y73905D01*
X189255Y73939D01*
X188942Y73966D01*
X188628Y73985D01*
X188314Y73996D01*
X188000Y74000D01*
X110000Y74000D01*
X109848Y74002D01*
X109696Y74008D01*
X109544Y74017D01*
X109393Y74031D01*
X109242Y74048D01*
X109091Y74069D01*
X108941Y74094D01*
X108792Y74123D01*
X108644Y74155D01*
X108496Y74192D01*
X108349Y74231D01*
X108204Y74275D01*
X108059Y74323D01*
X107916Y74373D01*
X107774Y74428D01*
X107634Y74486D01*
X107495Y74548D01*
X107358Y74613D01*
X107222Y74682D01*
X107088Y74754D01*
X106956Y74829D01*
X106826Y74908D01*
X106698Y74990D01*
X106572Y75075D01*
X106449Y75164D01*
X106327Y75255D01*
X106208Y75350D01*
X106092Y75447D01*
X105978Y75548D01*
X105866Y75651D01*
X105757Y75757D01*
X105651Y75866D01*
X105548Y75978D01*
X105447Y76092D01*
X105350Y76208D01*
X105255Y76327D01*
X105164Y76449D01*
X105075Y76572D01*
X104990Y76698D01*
X104908Y76826D01*
X104829Y76956D01*
X104754Y77088D01*
X104682Y77222D01*
X104613Y77358D01*
X104548Y77495D01*
X104486Y77634D01*
X104428Y77774D01*
X104373Y77916D01*
X104323Y78059D01*
X104275Y78204D01*
X104231Y78349D01*
X104192Y78496D01*
X104155Y78644D01*
X104123Y78792D01*
X104094Y78941D01*
X104069Y79091D01*
X104048Y79242D01*
X104031Y79393D01*
X104017Y79544D01*
X104008Y79696D01*
X104002Y79848D01*
X104000Y80000D01*
D10*
X104000Y91068D03*
D11*
X104000Y80000D01*
D10*
X50000Y50000D03*
D11*
X43000Y57000D01*
X43000Y104000D01*
X53000Y114000D01*
X53000Y145000D01*
X69000Y161000D01*
D10*
X74000Y161000D03*
D11*
X69000Y161000D01*
D10*
X131000Y141000D03*
X104000Y50000D03*
X73000Y50000D03*
X143000Y141000D03*
X154000Y154000D03*
X86000Y50000D03*
X191000Y107000D03*
X204000Y107000D03*
X191000Y89000D03*
X204000Y89000D03*
X15000Y33000D03*
X59000Y14000D03*
X69000Y141000D03*
X85000Y141000D03*
X74000Y179000D03*
X177000Y179000D03*
X68000Y97000D03*
X68000Y84000D03*
X50000Y97000D03*
D11*
X50000Y102000D01*
X56000Y108000D01*
X78000Y108000D01*
X89000Y97000D01*
X90000Y97000D01*
D10*
X90000Y97000D03*
M02*
