G04 EAGLE Gerber RS-274X export*
G75*
%MOMM*%
%FSLAX34Y34*%
%LPD*%
%INSilkscreen Bottom*%
%IPPOS*%
%AMOC8*
5,1,8,0,0,1.08239X$1,22.5*%
G01*
G04 Define Apertures*
%ADD10C,0.050800*%
G36*
X79071Y34004D02*
X78063Y34004D01*
X78063Y36373D01*
X78069Y37064D01*
X78085Y37325D01*
X78057Y37325D01*
X77923Y37078D01*
X77759Y36864D01*
X77567Y36683D01*
X77346Y36535D01*
X77097Y36420D01*
X76818Y36338D01*
X76511Y36288D01*
X76176Y36272D01*
X75906Y36284D01*
X75653Y36322D01*
X75418Y36383D01*
X75201Y36470D01*
X75000Y36582D01*
X74818Y36718D01*
X74652Y36879D01*
X74504Y37064D01*
X74374Y37275D01*
X74260Y37510D01*
X74165Y37770D01*
X74086Y38055D01*
X74025Y38364D01*
X73982Y38699D01*
X73956Y39058D01*
X73947Y39442D01*
X73956Y39830D01*
X73982Y40192D01*
X74025Y40526D01*
X74086Y40835D01*
X74164Y41116D01*
X74259Y41370D01*
X74371Y41598D01*
X74501Y41799D01*
X74649Y41975D01*
X74814Y42127D01*
X74997Y42256D01*
X75197Y42362D01*
X75415Y42444D01*
X75651Y42503D01*
X75905Y42538D01*
X76176Y42550D01*
X76519Y42533D01*
X76828Y42484D01*
X77102Y42403D01*
X77341Y42289D01*
X77551Y42140D01*
X77740Y41954D01*
X77907Y41730D01*
X78052Y41469D01*
X78074Y41469D01*
X78088Y41861D01*
X78113Y42284D01*
X78130Y42443D01*
X79105Y42443D01*
X79079Y41983D01*
X79071Y41206D01*
X79071Y34004D01*
G37*
%LPC*%
G36*
X76445Y37017D02*
X76651Y37026D01*
X76843Y37052D01*
X77020Y37096D01*
X77182Y37158D01*
X77330Y37238D01*
X77462Y37335D01*
X77580Y37450D01*
X77682Y37582D01*
X77771Y37734D01*
X77849Y37904D01*
X77914Y38095D01*
X77968Y38305D01*
X78009Y38534D01*
X78039Y38784D01*
X78057Y39052D01*
X78063Y39341D01*
X78052Y39749D01*
X78019Y40117D01*
X77964Y40445D01*
X77887Y40732D01*
X77788Y40982D01*
X77670Y41196D01*
X77531Y41376D01*
X77371Y41519D01*
X77186Y41629D01*
X76967Y41708D01*
X76717Y41755D01*
X76433Y41771D01*
X76253Y41763D01*
X76086Y41737D01*
X75931Y41695D01*
X75789Y41635D01*
X75660Y41559D01*
X75543Y41466D01*
X75439Y41355D01*
X75347Y41228D01*
X75267Y41081D01*
X75198Y40911D01*
X75139Y40719D01*
X75091Y40504D01*
X75053Y40267D01*
X75027Y40007D01*
X75005Y39419D01*
X75027Y38816D01*
X75054Y38550D01*
X75092Y38307D01*
X75140Y38087D01*
X75199Y37891D01*
X75269Y37718D01*
X75350Y37568D01*
X75442Y37439D01*
X75547Y37327D01*
X75665Y37232D01*
X75796Y37155D01*
X75939Y37094D01*
X76095Y37051D01*
X76263Y37025D01*
X76445Y37017D01*
G37*
%LPD*%
G36*
X121133Y34004D02*
X120125Y34004D01*
X120125Y36373D01*
X120131Y37064D01*
X120148Y37325D01*
X120120Y37325D01*
X119985Y37078D01*
X119822Y36864D01*
X119630Y36683D01*
X119409Y36535D01*
X119159Y36420D01*
X118881Y36338D01*
X118574Y36288D01*
X118238Y36272D01*
X117968Y36284D01*
X117716Y36322D01*
X117481Y36383D01*
X117263Y36470D01*
X117063Y36582D01*
X116880Y36718D01*
X116715Y36879D01*
X116567Y37064D01*
X116436Y37275D01*
X116323Y37510D01*
X116227Y37770D01*
X116149Y38055D01*
X116088Y38364D01*
X116044Y38699D01*
X116018Y39058D01*
X116010Y39442D01*
X116018Y39830D01*
X116044Y40192D01*
X116087Y40526D01*
X116148Y40835D01*
X116226Y41116D01*
X116321Y41370D01*
X116434Y41598D01*
X116564Y41799D01*
X116711Y41975D01*
X116876Y42127D01*
X117059Y42256D01*
X117260Y42362D01*
X117478Y42444D01*
X117714Y42503D01*
X117967Y42538D01*
X118238Y42550D01*
X118582Y42533D01*
X118891Y42484D01*
X119164Y42403D01*
X119403Y42289D01*
X119613Y42140D01*
X119802Y41954D01*
X119969Y41730D01*
X120114Y41469D01*
X120137Y41469D01*
X120151Y41861D01*
X120176Y42284D01*
X120193Y42443D01*
X121167Y42443D01*
X121142Y41983D01*
X121133Y41206D01*
X121133Y34004D01*
G37*
%LPC*%
G36*
X118507Y37017D02*
X118714Y37026D01*
X118906Y37052D01*
X119083Y37096D01*
X119245Y37158D01*
X119392Y37238D01*
X119525Y37335D01*
X119642Y37450D01*
X119745Y37582D01*
X119834Y37734D01*
X119911Y37904D01*
X119977Y38095D01*
X120030Y38305D01*
X120072Y38534D01*
X120102Y38784D01*
X120120Y39052D01*
X120125Y39341D01*
X120114Y39749D01*
X120081Y40117D01*
X120026Y40445D01*
X119949Y40732D01*
X119851Y40982D01*
X119732Y41196D01*
X119593Y41376D01*
X119434Y41519D01*
X119248Y41629D01*
X119030Y41708D01*
X118779Y41755D01*
X118496Y41771D01*
X118316Y41763D01*
X118149Y41737D01*
X117994Y41695D01*
X117852Y41635D01*
X117722Y41559D01*
X117606Y41466D01*
X117501Y41355D01*
X117410Y41228D01*
X117329Y41081D01*
X117260Y40911D01*
X117201Y40719D01*
X117153Y40504D01*
X117116Y40267D01*
X117089Y40007D01*
X117068Y39419D01*
X117089Y38816D01*
X117116Y38550D01*
X117154Y38307D01*
X117202Y38087D01*
X117262Y37891D01*
X117332Y37718D01*
X117412Y37568D01*
X117505Y37439D01*
X117610Y37327D01*
X117728Y37232D01*
X117858Y37155D01*
X118001Y37094D01*
X118157Y37051D01*
X118326Y37025D01*
X118507Y37017D01*
G37*
%LPD*%
G36*
X127508Y34004D02*
X126500Y34004D01*
X126500Y36373D01*
X126506Y37064D01*
X126523Y37325D01*
X126495Y37325D01*
X126360Y37078D01*
X126197Y36864D01*
X126005Y36683D01*
X125784Y36535D01*
X125534Y36420D01*
X125256Y36338D01*
X124949Y36288D01*
X124613Y36272D01*
X124343Y36284D01*
X124091Y36322D01*
X123856Y36383D01*
X123638Y36470D01*
X123438Y36582D01*
X123255Y36718D01*
X123090Y36879D01*
X122942Y37064D01*
X122811Y37275D01*
X122698Y37510D01*
X122602Y37770D01*
X122524Y38055D01*
X122463Y38364D01*
X122419Y38699D01*
X122393Y39058D01*
X122385Y39442D01*
X122393Y39830D01*
X122419Y40192D01*
X122462Y40526D01*
X122523Y40835D01*
X122601Y41116D01*
X122696Y41370D01*
X122809Y41598D01*
X122939Y41799D01*
X123086Y41975D01*
X123251Y42127D01*
X123434Y42256D01*
X123635Y42362D01*
X123853Y42444D01*
X124089Y42503D01*
X124342Y42538D01*
X124613Y42550D01*
X124957Y42533D01*
X125266Y42484D01*
X125539Y42403D01*
X125778Y42289D01*
X125988Y42140D01*
X126177Y41954D01*
X126344Y41730D01*
X126489Y41469D01*
X126512Y41469D01*
X126526Y41861D01*
X126551Y42284D01*
X126568Y42443D01*
X127542Y42443D01*
X127517Y41983D01*
X127508Y41206D01*
X127508Y34004D01*
G37*
%LPC*%
G36*
X124882Y37017D02*
X125089Y37026D01*
X125281Y37052D01*
X125458Y37096D01*
X125620Y37158D01*
X125767Y37238D01*
X125900Y37335D01*
X126017Y37450D01*
X126120Y37582D01*
X126209Y37734D01*
X126286Y37904D01*
X126352Y38095D01*
X126405Y38305D01*
X126447Y38534D01*
X126477Y38784D01*
X126495Y39052D01*
X126500Y39341D01*
X126489Y39749D01*
X126456Y40117D01*
X126401Y40445D01*
X126324Y40732D01*
X126226Y40982D01*
X126107Y41196D01*
X125968Y41376D01*
X125809Y41519D01*
X125623Y41629D01*
X125405Y41708D01*
X125154Y41755D01*
X124871Y41771D01*
X124691Y41763D01*
X124524Y41737D01*
X124369Y41695D01*
X124227Y41635D01*
X124097Y41559D01*
X123981Y41466D01*
X123876Y41355D01*
X123785Y41228D01*
X123704Y41081D01*
X123635Y40911D01*
X123576Y40719D01*
X123528Y40504D01*
X123491Y40267D01*
X123464Y40007D01*
X123443Y39419D01*
X123464Y38816D01*
X123491Y38550D01*
X123529Y38307D01*
X123577Y38087D01*
X123637Y37891D01*
X123707Y37718D01*
X123787Y37568D01*
X123880Y37439D01*
X123985Y37327D01*
X124103Y37232D01*
X124233Y37155D01*
X124376Y37094D01*
X124532Y37051D01*
X124701Y37025D01*
X124882Y37017D01*
G37*
%LPD*%
G36*
X57676Y36272D02*
X57406Y36284D01*
X57153Y36322D01*
X56918Y36383D01*
X56701Y36470D01*
X56500Y36582D01*
X56318Y36718D01*
X56152Y36879D01*
X56004Y37064D01*
X55874Y37275D01*
X55760Y37510D01*
X55665Y37770D01*
X55586Y38055D01*
X55525Y38364D01*
X55482Y38699D01*
X55456Y39058D01*
X55447Y39442D01*
X55455Y39821D01*
X55481Y40176D01*
X55523Y40506D01*
X55582Y40811D01*
X55658Y41091D01*
X55751Y41346D01*
X55861Y41577D01*
X55987Y41782D01*
X56132Y41964D01*
X56296Y42120D01*
X56478Y42253D01*
X56680Y42362D01*
X56900Y42446D01*
X57140Y42507D01*
X57398Y42543D01*
X57676Y42555D01*
X58004Y42539D01*
X58304Y42492D01*
X58576Y42413D01*
X58821Y42303D01*
X59041Y42157D01*
X59237Y41969D01*
X59412Y41739D01*
X59563Y41469D01*
X59585Y41469D01*
X59563Y42326D01*
X59563Y44694D01*
X60571Y44694D01*
X60571Y37633D01*
X60579Y36847D01*
X60605Y36384D01*
X59630Y36384D01*
X59597Y36796D01*
X59574Y37325D01*
X59563Y37325D01*
X59410Y37067D01*
X59235Y36847D01*
X59039Y36665D01*
X58821Y36521D01*
X58578Y36412D01*
X58306Y36334D01*
X58006Y36288D01*
X57676Y36272D01*
G37*
%LPC*%
G36*
X57945Y37017D02*
X58151Y37026D01*
X58343Y37052D01*
X58520Y37097D01*
X58682Y37159D01*
X58830Y37239D01*
X58962Y37337D01*
X59080Y37452D01*
X59182Y37585D01*
X59271Y37737D01*
X59349Y37908D01*
X59414Y38099D01*
X59468Y38310D01*
X59509Y38540D01*
X59539Y38789D01*
X59557Y39058D01*
X59563Y39346D01*
X59557Y39652D01*
X59539Y39936D01*
X59508Y40200D01*
X59466Y40441D01*
X59411Y40662D01*
X59344Y40860D01*
X59265Y41038D01*
X59174Y41194D01*
X59069Y41331D01*
X58950Y41449D01*
X58817Y41549D01*
X58669Y41631D01*
X58507Y41695D01*
X58330Y41740D01*
X58139Y41768D01*
X57933Y41777D01*
X57751Y41768D01*
X57582Y41742D01*
X57425Y41700D01*
X57282Y41640D01*
X57152Y41562D01*
X57036Y41468D01*
X56932Y41357D01*
X56841Y41228D01*
X56763Y41079D01*
X56694Y40908D01*
X56637Y40715D01*
X56589Y40499D01*
X56553Y40260D01*
X56526Y39998D01*
X56505Y39408D01*
X56527Y38819D01*
X56553Y38558D01*
X56590Y38318D01*
X56638Y38101D01*
X56696Y37905D01*
X56765Y37731D01*
X56844Y37580D01*
X56936Y37448D01*
X57040Y37333D01*
X57158Y37237D01*
X57289Y37157D01*
X57433Y37096D01*
X57590Y37052D01*
X57761Y37026D01*
X57945Y37017D01*
G37*
%LPD*%
G36*
X137332Y11888D02*
X137062Y11900D01*
X136810Y11938D01*
X136575Y11999D01*
X136357Y12086D01*
X136157Y12198D01*
X135974Y12334D01*
X135808Y12495D01*
X135660Y12680D01*
X135530Y12891D01*
X135417Y13126D01*
X135321Y13386D01*
X135243Y13671D01*
X135182Y13980D01*
X135138Y14315D01*
X135112Y14674D01*
X135103Y15058D01*
X135112Y15437D01*
X135137Y15792D01*
X135179Y16122D01*
X135238Y16427D01*
X135314Y16707D01*
X135407Y16962D01*
X135517Y17193D01*
X135644Y17398D01*
X135788Y17580D01*
X135952Y17736D01*
X136134Y17869D01*
X136336Y17978D01*
X136556Y18062D01*
X136796Y18123D01*
X137055Y18159D01*
X137332Y18171D01*
X137660Y18155D01*
X137960Y18108D01*
X138232Y18029D01*
X138477Y17919D01*
X138697Y17773D01*
X138894Y17585D01*
X139068Y17355D01*
X139219Y17085D01*
X139242Y17085D01*
X139219Y17942D01*
X139219Y20310D01*
X140227Y20310D01*
X140227Y13249D01*
X140236Y12463D01*
X140261Y12000D01*
X139286Y12000D01*
X139253Y12412D01*
X139230Y12941D01*
X139219Y12941D01*
X139066Y12683D01*
X138891Y12463D01*
X138695Y12281D01*
X138477Y12137D01*
X138235Y12028D01*
X137963Y11950D01*
X137662Y11904D01*
X137332Y11888D01*
G37*
%LPC*%
G36*
X137601Y12633D02*
X137808Y12642D01*
X137999Y12668D01*
X138177Y12713D01*
X138339Y12775D01*
X138486Y12855D01*
X138618Y12953D01*
X138736Y13068D01*
X138838Y13201D01*
X138928Y13353D01*
X139005Y13524D01*
X139070Y13715D01*
X139124Y13926D01*
X139166Y14156D01*
X139195Y14405D01*
X139213Y14674D01*
X139219Y14962D01*
X139213Y15268D01*
X139195Y15552D01*
X139165Y15816D01*
X139122Y16057D01*
X139067Y16278D01*
X139000Y16476D01*
X138921Y16654D01*
X138830Y16810D01*
X138726Y16947D01*
X138607Y17065D01*
X138473Y17165D01*
X138325Y17247D01*
X138163Y17311D01*
X137986Y17356D01*
X137795Y17384D01*
X137590Y17393D01*
X137407Y17384D01*
X137238Y17358D01*
X137082Y17316D01*
X136939Y17256D01*
X136809Y17178D01*
X136692Y17084D01*
X136588Y16973D01*
X136498Y16844D01*
X136419Y16695D01*
X136351Y16524D01*
X136293Y16331D01*
X136246Y16115D01*
X136209Y15876D01*
X136183Y15614D01*
X136162Y15024D01*
X136183Y14435D01*
X136209Y14174D01*
X136246Y13934D01*
X136294Y13717D01*
X136352Y13521D01*
X136421Y13347D01*
X136500Y13196D01*
X136592Y13064D01*
X136696Y12949D01*
X136814Y12853D01*
X136945Y12773D01*
X137089Y12712D01*
X137246Y12668D01*
X137417Y12642D01*
X137601Y12633D01*
G37*
%LPD*%
G36*
X115352Y11888D02*
X115024Y11904D01*
X114724Y11951D01*
X114452Y12030D01*
X114207Y12140D01*
X113987Y12287D01*
X113790Y12475D01*
X113616Y12704D01*
X113465Y12974D01*
X113443Y12974D01*
X113423Y12414D01*
X113387Y12000D01*
X112423Y12000D01*
X112449Y12463D01*
X112457Y13249D01*
X112457Y20310D01*
X113465Y20310D01*
X113465Y17796D01*
X113454Y17118D01*
X113465Y17118D01*
X113616Y17374D01*
X113790Y17593D01*
X113986Y17775D01*
X114204Y17919D01*
X114448Y18029D01*
X114721Y18108D01*
X115022Y18155D01*
X115352Y18171D01*
X115622Y18159D01*
X115875Y18122D01*
X116110Y18060D01*
X116327Y17973D01*
X116527Y17862D01*
X116710Y17725D01*
X116876Y17564D01*
X117024Y17379D01*
X117154Y17168D01*
X117268Y16933D01*
X117363Y16673D01*
X117442Y16388D01*
X117503Y16079D01*
X117546Y15744D01*
X117572Y15385D01*
X117581Y15002D01*
X117572Y14622D01*
X117547Y14267D01*
X117505Y13937D01*
X117446Y13632D01*
X117370Y13352D01*
X117277Y13097D01*
X117167Y12866D01*
X117041Y12661D01*
X116896Y12480D01*
X116732Y12323D01*
X116550Y12190D01*
X116348Y12081D01*
X116128Y11997D01*
X115888Y11936D01*
X115630Y11900D01*
X115352Y11888D01*
G37*
%LPC*%
G36*
X115095Y12666D02*
X115277Y12675D01*
X115446Y12701D01*
X115602Y12744D01*
X115746Y12804D01*
X115875Y12881D01*
X115992Y12975D01*
X116096Y13087D01*
X116187Y13215D01*
X116265Y13364D01*
X116334Y13535D01*
X116391Y13728D01*
X116439Y13945D01*
X116475Y14183D01*
X116502Y14445D01*
X116523Y15035D01*
X116501Y15624D01*
X116475Y15886D01*
X116438Y16125D01*
X116390Y16343D01*
X116332Y16538D01*
X116263Y16712D01*
X116184Y16864D01*
X116092Y16995D01*
X115988Y17110D01*
X115870Y17207D01*
X115739Y17286D01*
X115595Y17347D01*
X115438Y17391D01*
X115267Y17418D01*
X115083Y17426D01*
X114879Y17418D01*
X114689Y17391D01*
X114514Y17348D01*
X114353Y17286D01*
X114206Y17208D01*
X114073Y17111D01*
X113955Y16998D01*
X113851Y16866D01*
X113761Y16716D01*
X113682Y16546D01*
X113616Y16356D01*
X113562Y16145D01*
X113519Y15915D01*
X113489Y15664D01*
X113471Y15393D01*
X113465Y15102D01*
X113471Y14800D01*
X113489Y14519D01*
X113519Y14258D01*
X113562Y14017D01*
X113616Y13797D01*
X113682Y13598D01*
X113761Y13419D01*
X113851Y13260D01*
X113864Y13243D01*
X113955Y13121D01*
X114074Y13000D01*
X114207Y12898D01*
X114355Y12815D01*
X114518Y12750D01*
X114696Y12703D01*
X114888Y12676D01*
X115095Y12666D01*
G37*
%LPD*%
G36*
X92586Y36272D02*
X92263Y36284D01*
X91959Y36321D01*
X91675Y36381D01*
X91411Y36467D01*
X91167Y36576D01*
X90943Y36710D01*
X90738Y36868D01*
X90553Y37050D01*
X90389Y37258D01*
X90247Y37490D01*
X90127Y37748D01*
X90028Y38032D01*
X89952Y38341D01*
X89897Y38675D01*
X89864Y39034D01*
X89853Y39419D01*
X89863Y39808D01*
X89894Y40170D01*
X89945Y40506D01*
X90017Y40816D01*
X90109Y41099D01*
X90222Y41356D01*
X90355Y41587D01*
X90508Y41791D01*
X90684Y41970D01*
X90882Y42125D01*
X91103Y42257D01*
X91347Y42364D01*
X91614Y42448D01*
X91904Y42507D01*
X92217Y42543D01*
X92552Y42555D01*
X92881Y42543D01*
X93189Y42506D01*
X93475Y42445D01*
X93741Y42359D01*
X93985Y42249D01*
X94208Y42114D01*
X94409Y41955D01*
X94589Y41771D01*
X94749Y41563D01*
X94886Y41330D01*
X95003Y41073D01*
X95099Y40791D01*
X95173Y40485D01*
X95226Y40154D01*
X95258Y39799D01*
X95268Y39419D01*
X95258Y39048D01*
X95226Y38700D01*
X95173Y38374D01*
X95099Y38070D01*
X95004Y37789D01*
X94887Y37531D01*
X94750Y37295D01*
X94591Y37081D01*
X94411Y36892D01*
X94211Y36727D01*
X93991Y36588D01*
X93751Y36474D01*
X93490Y36386D01*
X93209Y36323D01*
X92908Y36285D01*
X92586Y36272D01*
G37*
%LPC*%
G36*
X92597Y37017D02*
X92799Y37026D01*
X92987Y37054D01*
X93160Y37101D01*
X93320Y37167D01*
X93466Y37252D01*
X93598Y37355D01*
X93717Y37478D01*
X93821Y37619D01*
X93912Y37779D01*
X93991Y37957D01*
X94058Y38154D01*
X94113Y38370D01*
X94155Y38604D01*
X94186Y38857D01*
X94204Y39129D01*
X94210Y39419D01*
X94204Y39717D01*
X94185Y39994D01*
X94155Y40251D01*
X94111Y40488D01*
X94056Y40704D01*
X93988Y40900D01*
X93908Y41076D01*
X93815Y41231D01*
X93709Y41367D01*
X93587Y41484D01*
X93450Y41584D01*
X93298Y41665D01*
X93130Y41729D01*
X92947Y41774D01*
X92749Y41801D01*
X92536Y41810D01*
X92324Y41801D01*
X92128Y41775D01*
X91948Y41730D01*
X91783Y41668D01*
X91635Y41588D01*
X91502Y41491D01*
X91385Y41375D01*
X91284Y41242D01*
X91197Y41089D01*
X91121Y40915D01*
X91057Y40719D01*
X91005Y40502D01*
X90964Y40264D01*
X90935Y40004D01*
X90917Y39722D01*
X90912Y39419D01*
X90918Y39120D01*
X90936Y38841D01*
X90966Y38583D01*
X91009Y38345D01*
X91064Y38128D01*
X91131Y37931D01*
X91210Y37755D01*
X91301Y37599D01*
X91406Y37463D01*
X91528Y37344D01*
X91666Y37244D01*
X91820Y37162D01*
X91990Y37099D01*
X92176Y37053D01*
X92379Y37026D01*
X92597Y37017D01*
G37*
%LPD*%
G36*
X121930Y24080D02*
X121606Y24092D01*
X121303Y24129D01*
X121019Y24189D01*
X120755Y24275D01*
X120511Y24384D01*
X120287Y24518D01*
X120082Y24676D01*
X119897Y24858D01*
X119733Y25066D01*
X119591Y25298D01*
X119470Y25556D01*
X119372Y25840D01*
X119295Y26149D01*
X119241Y26483D01*
X119208Y26842D01*
X119197Y27227D01*
X119207Y27616D01*
X119238Y27978D01*
X119289Y28314D01*
X119361Y28624D01*
X119453Y28907D01*
X119566Y29164D01*
X119699Y29395D01*
X119852Y29599D01*
X120027Y29778D01*
X120226Y29933D01*
X120447Y30065D01*
X120691Y30172D01*
X120958Y30256D01*
X121248Y30315D01*
X121560Y30351D01*
X121896Y30363D01*
X122225Y30351D01*
X122533Y30314D01*
X122819Y30253D01*
X123084Y30167D01*
X123328Y30057D01*
X123551Y29922D01*
X123753Y29763D01*
X123933Y29579D01*
X124092Y29371D01*
X124230Y29138D01*
X124347Y28881D01*
X124442Y28599D01*
X124517Y28293D01*
X124570Y27962D01*
X124602Y27607D01*
X124612Y27227D01*
X124602Y26856D01*
X124570Y26508D01*
X124517Y26182D01*
X124443Y25878D01*
X124347Y25597D01*
X124231Y25339D01*
X124093Y25103D01*
X123935Y24889D01*
X123755Y24700D01*
X123555Y24535D01*
X123335Y24396D01*
X123095Y24282D01*
X122834Y24194D01*
X122553Y24131D01*
X122251Y24093D01*
X121930Y24080D01*
G37*
%LPC*%
G36*
X121941Y24825D02*
X122143Y24834D01*
X122330Y24862D01*
X122504Y24909D01*
X122664Y24975D01*
X122810Y25060D01*
X122942Y25163D01*
X123060Y25286D01*
X123165Y25427D01*
X123256Y25587D01*
X123335Y25765D01*
X123402Y25962D01*
X123456Y26178D01*
X123499Y26412D01*
X123529Y26665D01*
X123548Y26937D01*
X123554Y27227D01*
X123548Y27525D01*
X123529Y27802D01*
X123498Y28059D01*
X123455Y28296D01*
X123400Y28512D01*
X123332Y28708D01*
X123252Y28884D01*
X123159Y29039D01*
X123053Y29175D01*
X122931Y29292D01*
X122794Y29392D01*
X122642Y29473D01*
X122474Y29537D01*
X122291Y29582D01*
X122093Y29609D01*
X121879Y29618D01*
X121668Y29609D01*
X121471Y29583D01*
X121291Y29538D01*
X121127Y29476D01*
X120978Y29396D01*
X120846Y29299D01*
X120729Y29183D01*
X120628Y29050D01*
X120541Y28897D01*
X120465Y28723D01*
X120401Y28527D01*
X120349Y28310D01*
X120308Y28072D01*
X120279Y27812D01*
X120261Y27530D01*
X120255Y27227D01*
X120261Y26928D01*
X120280Y26649D01*
X120310Y26391D01*
X120353Y26153D01*
X120407Y25936D01*
X120474Y25739D01*
X120553Y25563D01*
X120645Y25407D01*
X120750Y25271D01*
X120872Y25152D01*
X121009Y25052D01*
X121163Y24970D01*
X121333Y24907D01*
X121520Y24861D01*
X121722Y24834D01*
X121941Y24825D01*
G37*
%LPD*%
G36*
X131461Y11888D02*
X131138Y11900D01*
X130834Y11937D01*
X130550Y11997D01*
X130286Y12083D01*
X130042Y12192D01*
X129818Y12326D01*
X129613Y12484D01*
X129428Y12666D01*
X129264Y12874D01*
X129122Y13106D01*
X129002Y13364D01*
X128903Y13648D01*
X128827Y13957D01*
X128772Y14291D01*
X128739Y14650D01*
X128728Y15035D01*
X128738Y15424D01*
X128769Y15786D01*
X128820Y16122D01*
X128892Y16432D01*
X128984Y16715D01*
X129097Y16972D01*
X129230Y17203D01*
X129383Y17407D01*
X129559Y17586D01*
X129757Y17741D01*
X129978Y17873D01*
X130222Y17980D01*
X130489Y18064D01*
X130779Y18123D01*
X131092Y18159D01*
X131427Y18171D01*
X131756Y18159D01*
X132064Y18122D01*
X132350Y18061D01*
X132616Y17975D01*
X132860Y17865D01*
X133083Y17730D01*
X133284Y17571D01*
X133464Y17387D01*
X133624Y17179D01*
X133761Y16946D01*
X133878Y16689D01*
X133974Y16407D01*
X134048Y16101D01*
X134101Y15770D01*
X134133Y15415D01*
X134143Y15035D01*
X134133Y14664D01*
X134101Y14316D01*
X134048Y13990D01*
X133974Y13686D01*
X133879Y13405D01*
X133762Y13147D01*
X133625Y12911D01*
X133466Y12697D01*
X133286Y12508D01*
X133086Y12343D01*
X132866Y12204D01*
X132626Y12090D01*
X132365Y12002D01*
X132084Y11939D01*
X131783Y11901D01*
X131461Y11888D01*
G37*
%LPC*%
G36*
X131472Y12633D02*
X131674Y12642D01*
X131862Y12670D01*
X132035Y12717D01*
X132195Y12783D01*
X132341Y12868D01*
X132473Y12971D01*
X132592Y13094D01*
X132696Y13235D01*
X132787Y13395D01*
X132866Y13573D01*
X132933Y13770D01*
X132988Y13986D01*
X133030Y14220D01*
X133061Y14473D01*
X133079Y14745D01*
X133085Y15035D01*
X133079Y15333D01*
X133060Y15610D01*
X133030Y15867D01*
X132986Y16104D01*
X132931Y16320D01*
X132863Y16516D01*
X132783Y16692D01*
X132690Y16847D01*
X132584Y16983D01*
X132462Y17100D01*
X132325Y17200D01*
X132173Y17281D01*
X132005Y17345D01*
X131822Y17390D01*
X131624Y17417D01*
X131411Y17426D01*
X131199Y17417D01*
X131003Y17391D01*
X130823Y17346D01*
X130658Y17284D01*
X130510Y17204D01*
X130377Y17107D01*
X130260Y16991D01*
X130159Y16858D01*
X130072Y16705D01*
X129996Y16531D01*
X129932Y16335D01*
X129880Y16118D01*
X129839Y15880D01*
X129810Y15620D01*
X129792Y15338D01*
X129787Y15035D01*
X129793Y14736D01*
X129811Y14457D01*
X129841Y14199D01*
X129884Y13961D01*
X129939Y13744D01*
X130006Y13547D01*
X130085Y13371D01*
X130176Y13215D01*
X130281Y13079D01*
X130403Y12960D01*
X130541Y12860D01*
X130695Y12778D01*
X130865Y12715D01*
X131051Y12669D01*
X131254Y12642D01*
X131472Y12633D01*
G37*
%LPD*%
G36*
X66025Y24080D02*
X65672Y24098D01*
X65347Y24152D01*
X65049Y24242D01*
X64779Y24368D01*
X64531Y24538D01*
X64298Y24758D01*
X64082Y25029D01*
X63881Y25351D01*
X63847Y25351D01*
X63816Y25058D01*
X63758Y24807D01*
X63672Y24598D01*
X63559Y24430D01*
X63412Y24301D01*
X63228Y24209D01*
X63005Y24154D01*
X62744Y24136D01*
X62350Y24158D01*
X61965Y24226D01*
X61965Y24853D01*
X62140Y24823D01*
X62296Y24814D01*
X62448Y24828D01*
X62573Y24870D01*
X62672Y24941D01*
X62744Y25040D01*
X62795Y25168D01*
X62832Y25322D01*
X62854Y25505D01*
X62861Y25715D01*
X62861Y28325D01*
X62870Y28565D01*
X62897Y28791D01*
X62943Y29002D01*
X63006Y29199D01*
X63087Y29381D01*
X63186Y29549D01*
X63303Y29701D01*
X63438Y29840D01*
X63591Y29962D01*
X63762Y30069D01*
X63950Y30159D01*
X64156Y30232D01*
X64380Y30290D01*
X64622Y30330D01*
X64881Y30355D01*
X65157Y30363D01*
X65422Y30357D01*
X65671Y30338D01*
X65905Y30306D01*
X66124Y30261D01*
X66328Y30203D01*
X66518Y30133D01*
X66692Y30050D01*
X66851Y29954D01*
X66996Y29846D01*
X67125Y29724D01*
X67240Y29590D01*
X67339Y29443D01*
X67424Y29284D01*
X67493Y29111D01*
X67548Y28926D01*
X67588Y28728D01*
X66535Y28633D01*
X66489Y28868D01*
X66412Y29068D01*
X66304Y29234D01*
X66165Y29366D01*
X65988Y29467D01*
X65765Y29539D01*
X65495Y29582D01*
X65180Y29596D01*
X64866Y29576D01*
X64597Y29516D01*
X64373Y29416D01*
X64194Y29277D01*
X64057Y29091D01*
X63959Y28853D01*
X63900Y28562D01*
X63881Y28218D01*
X63881Y27888D01*
X65241Y27866D01*
X65574Y27850D01*
X65883Y27819D01*
X66168Y27774D01*
X66429Y27714D01*
X66667Y27640D01*
X66881Y27551D01*
X67071Y27447D01*
X67238Y27328D01*
X67383Y27195D01*
X67509Y27049D01*
X67615Y26889D01*
X67702Y26715D01*
X67770Y26527D01*
X67818Y26326D01*
X67847Y26112D01*
X67857Y25883D01*
X67849Y25679D01*
X67828Y25486D01*
X67792Y25304D01*
X67742Y25133D01*
X67677Y24973D01*
X67598Y24825D01*
X67505Y24688D01*
X67397Y24562D01*
X67275Y24449D01*
X67139Y24351D01*
X66989Y24268D01*
X66825Y24200D01*
X66646Y24148D01*
X66453Y24110D01*
X66247Y24088D01*
X66025Y24080D01*
G37*
%LPC*%
G36*
X65796Y24836D02*
X66028Y24853D01*
X66232Y24903D01*
X66407Y24987D01*
X66555Y25105D01*
X66671Y25253D01*
X66754Y25430D01*
X66804Y25634D01*
X66821Y25866D01*
X66808Y26082D01*
X66772Y26277D01*
X66710Y26449D01*
X66625Y26600D01*
X66516Y26731D01*
X66386Y26844D01*
X66235Y26938D01*
X66062Y27014D01*
X65857Y27074D01*
X65609Y27118D01*
X65318Y27147D01*
X64984Y27160D01*
X63881Y27182D01*
X63881Y26684D01*
X63896Y26453D01*
X63943Y26225D01*
X64021Y26001D01*
X64130Y25780D01*
X64266Y25572D01*
X64424Y25387D01*
X64606Y25226D01*
X64810Y25088D01*
X65033Y24978D01*
X65272Y24899D01*
X65526Y24852D01*
X65796Y24836D01*
G37*
%LPD*%
G36*
X71150Y36272D02*
X70797Y36290D01*
X70472Y36344D01*
X70174Y36434D01*
X69904Y36560D01*
X69656Y36730D01*
X69423Y36950D01*
X69207Y37221D01*
X69006Y37543D01*
X68972Y37543D01*
X68941Y37250D01*
X68883Y36999D01*
X68797Y36790D01*
X68684Y36622D01*
X68537Y36493D01*
X68353Y36401D01*
X68130Y36346D01*
X67869Y36328D01*
X67475Y36350D01*
X67090Y36418D01*
X67090Y37045D01*
X67265Y37015D01*
X67421Y37006D01*
X67573Y37020D01*
X67698Y37062D01*
X67797Y37133D01*
X67869Y37232D01*
X67920Y37360D01*
X67957Y37514D01*
X67979Y37697D01*
X67986Y37907D01*
X67986Y40517D01*
X67995Y40757D01*
X68022Y40983D01*
X68068Y41194D01*
X68131Y41391D01*
X68212Y41573D01*
X68311Y41741D01*
X68428Y41893D01*
X68563Y42032D01*
X68716Y42154D01*
X68887Y42261D01*
X69075Y42351D01*
X69281Y42424D01*
X69505Y42482D01*
X69747Y42522D01*
X70006Y42547D01*
X70282Y42555D01*
X70547Y42549D01*
X70796Y42530D01*
X71030Y42498D01*
X71249Y42453D01*
X71453Y42395D01*
X71643Y42325D01*
X71817Y42242D01*
X71976Y42146D01*
X72121Y42038D01*
X72250Y41916D01*
X72365Y41782D01*
X72464Y41635D01*
X72549Y41476D01*
X72618Y41303D01*
X72673Y41118D01*
X72713Y40920D01*
X71660Y40825D01*
X71614Y41060D01*
X71537Y41260D01*
X71429Y41426D01*
X71290Y41558D01*
X71113Y41659D01*
X70890Y41731D01*
X70620Y41774D01*
X70305Y41788D01*
X69991Y41768D01*
X69722Y41708D01*
X69498Y41608D01*
X69319Y41469D01*
X69182Y41283D01*
X69084Y41045D01*
X69025Y40754D01*
X69006Y40410D01*
X69006Y40080D01*
X70366Y40058D01*
X70699Y40042D01*
X71008Y40011D01*
X71293Y39966D01*
X71554Y39906D01*
X71792Y39832D01*
X72006Y39743D01*
X72196Y39639D01*
X72363Y39520D01*
X72508Y39387D01*
X72634Y39241D01*
X72740Y39081D01*
X72827Y38907D01*
X72895Y38719D01*
X72943Y38518D01*
X72972Y38304D01*
X72982Y38075D01*
X72974Y37871D01*
X72953Y37678D01*
X72917Y37496D01*
X72867Y37325D01*
X72802Y37165D01*
X72723Y37017D01*
X72630Y36880D01*
X72522Y36754D01*
X72400Y36641D01*
X72264Y36543D01*
X72114Y36460D01*
X71950Y36392D01*
X71771Y36340D01*
X71578Y36302D01*
X71372Y36280D01*
X71150Y36272D01*
G37*
%LPC*%
G36*
X70921Y37028D02*
X71153Y37045D01*
X71357Y37095D01*
X71532Y37179D01*
X71680Y37297D01*
X71796Y37445D01*
X71879Y37622D01*
X71929Y37826D01*
X71946Y38058D01*
X71933Y38274D01*
X71897Y38469D01*
X71835Y38641D01*
X71750Y38792D01*
X71641Y38923D01*
X71511Y39036D01*
X71360Y39130D01*
X71187Y39206D01*
X70982Y39266D01*
X70734Y39310D01*
X70443Y39339D01*
X70109Y39352D01*
X69006Y39374D01*
X69006Y38876D01*
X69021Y38645D01*
X69068Y38417D01*
X69146Y38193D01*
X69255Y37972D01*
X69391Y37764D01*
X69549Y37579D01*
X69731Y37418D01*
X69935Y37280D01*
X70158Y37170D01*
X70397Y37091D01*
X70651Y37044D01*
X70921Y37028D01*
G37*
%LPD*%
G36*
X110025Y24080D02*
X109672Y24098D01*
X109347Y24152D01*
X109049Y24242D01*
X108779Y24368D01*
X108531Y24538D01*
X108298Y24758D01*
X108082Y25029D01*
X107881Y25351D01*
X107847Y25351D01*
X107816Y25058D01*
X107758Y24807D01*
X107672Y24598D01*
X107559Y24430D01*
X107412Y24301D01*
X107228Y24209D01*
X107005Y24154D01*
X106744Y24136D01*
X106350Y24158D01*
X105965Y24226D01*
X105965Y24853D01*
X106140Y24823D01*
X106296Y24814D01*
X106448Y24828D01*
X106573Y24870D01*
X106672Y24941D01*
X106744Y25040D01*
X106795Y25168D01*
X106832Y25322D01*
X106854Y25505D01*
X106861Y25715D01*
X106861Y28325D01*
X106870Y28565D01*
X106897Y28791D01*
X106943Y29002D01*
X107006Y29199D01*
X107087Y29381D01*
X107186Y29549D01*
X107303Y29701D01*
X107438Y29840D01*
X107591Y29962D01*
X107762Y30069D01*
X107950Y30159D01*
X108156Y30232D01*
X108380Y30290D01*
X108622Y30330D01*
X108881Y30355D01*
X109157Y30363D01*
X109422Y30357D01*
X109671Y30338D01*
X109905Y30306D01*
X110124Y30261D01*
X110328Y30203D01*
X110518Y30133D01*
X110692Y30050D01*
X110851Y29954D01*
X110996Y29846D01*
X111125Y29724D01*
X111240Y29590D01*
X111339Y29443D01*
X111424Y29284D01*
X111493Y29111D01*
X111548Y28926D01*
X111588Y28728D01*
X110535Y28633D01*
X110489Y28868D01*
X110412Y29068D01*
X110304Y29234D01*
X110165Y29366D01*
X109988Y29467D01*
X109765Y29539D01*
X109495Y29582D01*
X109180Y29596D01*
X108866Y29576D01*
X108597Y29516D01*
X108373Y29416D01*
X108194Y29277D01*
X108057Y29091D01*
X107959Y28853D01*
X107900Y28562D01*
X107881Y28218D01*
X107881Y27888D01*
X109241Y27866D01*
X109574Y27850D01*
X109883Y27819D01*
X110168Y27774D01*
X110429Y27714D01*
X110667Y27640D01*
X110881Y27551D01*
X111071Y27447D01*
X111238Y27328D01*
X111383Y27195D01*
X111509Y27049D01*
X111615Y26889D01*
X111702Y26715D01*
X111770Y26527D01*
X111818Y26326D01*
X111847Y26112D01*
X111857Y25883D01*
X111849Y25679D01*
X111828Y25486D01*
X111792Y25304D01*
X111742Y25133D01*
X111677Y24973D01*
X111598Y24825D01*
X111505Y24688D01*
X111397Y24562D01*
X111275Y24449D01*
X111139Y24351D01*
X110989Y24268D01*
X110825Y24200D01*
X110646Y24148D01*
X110453Y24110D01*
X110247Y24088D01*
X110025Y24080D01*
G37*
%LPC*%
G36*
X109796Y24836D02*
X110028Y24853D01*
X110232Y24903D01*
X110407Y24987D01*
X110555Y25105D01*
X110671Y25253D01*
X110754Y25430D01*
X110804Y25634D01*
X110821Y25866D01*
X110808Y26082D01*
X110772Y26277D01*
X110710Y26449D01*
X110625Y26600D01*
X110516Y26731D01*
X110386Y26844D01*
X110235Y26938D01*
X110062Y27014D01*
X109857Y27074D01*
X109609Y27118D01*
X109318Y27147D01*
X108984Y27160D01*
X107881Y27182D01*
X107881Y26684D01*
X107896Y26453D01*
X107943Y26225D01*
X108021Y26001D01*
X108130Y25780D01*
X108266Y25572D01*
X108424Y25387D01*
X108606Y25226D01*
X108810Y25088D01*
X109033Y24978D01*
X109272Y24899D01*
X109526Y24852D01*
X109796Y24836D01*
G37*
%LPD*%
G36*
X125932Y11888D02*
X125579Y11906D01*
X125253Y11960D01*
X124956Y12050D01*
X124686Y12176D01*
X124437Y12346D01*
X124205Y12566D01*
X123988Y12837D01*
X123787Y13159D01*
X123753Y13159D01*
X123723Y12866D01*
X123664Y12615D01*
X123578Y12406D01*
X123465Y12238D01*
X123318Y12109D01*
X123134Y12017D01*
X122911Y11962D01*
X122650Y11944D01*
X122257Y11966D01*
X121872Y12034D01*
X121872Y12661D01*
X122047Y12631D01*
X122202Y12622D01*
X122354Y12636D01*
X122479Y12678D01*
X122578Y12749D01*
X122650Y12848D01*
X122702Y12976D01*
X122738Y13130D01*
X122760Y13313D01*
X122768Y13523D01*
X122768Y16133D01*
X122777Y16373D01*
X122804Y16599D01*
X122849Y16810D01*
X122912Y17007D01*
X122993Y17189D01*
X123092Y17357D01*
X123209Y17509D01*
X123344Y17648D01*
X123497Y17770D01*
X123668Y17877D01*
X123857Y17967D01*
X124063Y18040D01*
X124286Y18098D01*
X124528Y18138D01*
X124787Y18163D01*
X125064Y18171D01*
X125328Y18165D01*
X125577Y18146D01*
X125811Y18114D01*
X126030Y18069D01*
X126235Y18011D01*
X126424Y17941D01*
X126598Y17858D01*
X126758Y17762D01*
X126902Y17654D01*
X127032Y17532D01*
X127146Y17398D01*
X127246Y17251D01*
X127330Y17092D01*
X127400Y16919D01*
X127454Y16734D01*
X127494Y16536D01*
X126441Y16441D01*
X126395Y16676D01*
X126318Y16876D01*
X126210Y17042D01*
X126072Y17174D01*
X125895Y17275D01*
X125671Y17347D01*
X125402Y17390D01*
X125086Y17404D01*
X124772Y17384D01*
X124504Y17324D01*
X124280Y17224D01*
X124100Y17085D01*
X123963Y16899D01*
X123865Y16661D01*
X123806Y16370D01*
X123787Y16026D01*
X123787Y15696D01*
X125148Y15674D01*
X125480Y15658D01*
X125789Y15627D01*
X126074Y15582D01*
X126336Y15522D01*
X126573Y15448D01*
X126787Y15359D01*
X126977Y15255D01*
X127144Y15136D01*
X127289Y15003D01*
X127415Y14857D01*
X127521Y14697D01*
X127608Y14523D01*
X127676Y14335D01*
X127724Y14134D01*
X127753Y13920D01*
X127763Y13691D01*
X127756Y13487D01*
X127734Y13294D01*
X127698Y13112D01*
X127648Y12941D01*
X127583Y12781D01*
X127505Y12633D01*
X127411Y12496D01*
X127304Y12370D01*
X127182Y12257D01*
X127046Y12159D01*
X126895Y12076D01*
X126731Y12008D01*
X126552Y11956D01*
X126360Y11918D01*
X126153Y11896D01*
X125932Y11888D01*
G37*
%LPC*%
G36*
X125702Y12644D02*
X125934Y12661D01*
X126138Y12711D01*
X126314Y12795D01*
X126461Y12913D01*
X126577Y13061D01*
X126660Y13238D01*
X126710Y13442D01*
X126727Y13674D01*
X126715Y13890D01*
X126678Y14085D01*
X126617Y14257D01*
X126531Y14408D01*
X126422Y14539D01*
X126292Y14652D01*
X126141Y14746D01*
X125968Y14822D01*
X125763Y14882D01*
X125515Y14926D01*
X125224Y14955D01*
X124890Y14968D01*
X123787Y14990D01*
X123787Y14492D01*
X123802Y14261D01*
X123849Y14033D01*
X123927Y13809D01*
X124036Y13588D01*
X124172Y13380D01*
X124331Y13195D01*
X124512Y13034D01*
X124716Y12896D01*
X124940Y12786D01*
X125178Y12707D01*
X125433Y12660D01*
X125702Y12644D01*
G37*
%LPD*%
G36*
X76481Y24192D02*
X75484Y24192D01*
X75484Y28230D01*
X75490Y28504D01*
X75510Y28758D01*
X75542Y28992D01*
X75588Y29207D01*
X75647Y29401D01*
X75718Y29576D01*
X75803Y29730D01*
X75901Y29865D01*
X76013Y29982D01*
X76141Y30083D01*
X76284Y30168D01*
X76443Y30239D01*
X76618Y30293D01*
X76809Y30332D01*
X77015Y30355D01*
X77237Y30363D01*
X77541Y30346D01*
X77822Y30296D01*
X78080Y30212D01*
X78315Y30094D01*
X78529Y29939D01*
X78727Y29740D01*
X78908Y29499D01*
X79073Y29215D01*
X79090Y29215D01*
X79184Y29494D01*
X79308Y29733D01*
X79462Y29931D01*
X79647Y30089D01*
X79866Y30209D01*
X80120Y30295D01*
X80410Y30346D01*
X80736Y30363D01*
X81027Y30347D01*
X81295Y30300D01*
X81540Y30221D01*
X81761Y30111D01*
X81965Y29961D01*
X82157Y29761D01*
X82338Y29513D01*
X82506Y29215D01*
X82523Y29215D01*
X82542Y29817D01*
X82556Y30100D01*
X82568Y30251D01*
X83520Y30251D01*
X83494Y29810D01*
X83486Y28958D01*
X83486Y24192D01*
X82484Y24192D01*
X82484Y27703D01*
X82478Y27921D01*
X82460Y28126D01*
X82431Y28318D01*
X82390Y28498D01*
X82337Y28666D01*
X82273Y28820D01*
X82196Y28962D01*
X82108Y29092D01*
X82010Y29207D01*
X81904Y29308D01*
X81789Y29392D01*
X81666Y29462D01*
X81534Y29515D01*
X81394Y29554D01*
X81246Y29577D01*
X81089Y29585D01*
X80800Y29564D01*
X80559Y29501D01*
X80366Y29396D01*
X80221Y29249D01*
X80116Y29047D01*
X80041Y28777D01*
X79996Y28439D01*
X79980Y28034D01*
X79980Y24192D01*
X78984Y24192D01*
X78984Y27703D01*
X78961Y28128D01*
X78892Y28502D01*
X78840Y28669D01*
X78777Y28824D01*
X78703Y28966D01*
X78617Y29095D01*
X78521Y29210D01*
X78415Y29309D01*
X78300Y29393D01*
X78177Y29462D01*
X78044Y29516D01*
X77901Y29554D01*
X77750Y29577D01*
X77589Y29585D01*
X77300Y29564D01*
X77059Y29501D01*
X76866Y29396D01*
X76721Y29249D01*
X76616Y29047D01*
X76541Y28777D01*
X76496Y28439D01*
X76481Y28034D01*
X76481Y24192D01*
G37*
G36*
X81574Y36384D02*
X80577Y36384D01*
X80577Y40422D01*
X80584Y40696D01*
X80604Y40950D01*
X80636Y41184D01*
X80682Y41399D01*
X80740Y41593D01*
X80812Y41768D01*
X80897Y41922D01*
X80995Y42057D01*
X81107Y42174D01*
X81235Y42275D01*
X81378Y42360D01*
X81537Y42431D01*
X81712Y42485D01*
X81902Y42524D01*
X82108Y42547D01*
X82330Y42555D01*
X82635Y42538D01*
X82916Y42488D01*
X83174Y42404D01*
X83408Y42286D01*
X83623Y42131D01*
X83821Y41932D01*
X84002Y41691D01*
X84167Y41407D01*
X84184Y41407D01*
X84277Y41686D01*
X84402Y41925D01*
X84556Y42123D01*
X84741Y42281D01*
X84959Y42401D01*
X85214Y42487D01*
X85504Y42538D01*
X85830Y42555D01*
X86121Y42539D01*
X86389Y42492D01*
X86633Y42413D01*
X86855Y42303D01*
X87059Y42153D01*
X87251Y41953D01*
X87431Y41705D01*
X87600Y41407D01*
X87617Y41407D01*
X87636Y42009D01*
X87650Y42292D01*
X87661Y42443D01*
X88613Y42443D01*
X88588Y42002D01*
X88580Y41150D01*
X88580Y36384D01*
X87577Y36384D01*
X87577Y39895D01*
X87572Y40113D01*
X87554Y40318D01*
X87525Y40510D01*
X87484Y40690D01*
X87431Y40858D01*
X87366Y41012D01*
X87290Y41154D01*
X87202Y41284D01*
X87104Y41399D01*
X86998Y41500D01*
X86883Y41584D01*
X86760Y41654D01*
X86628Y41707D01*
X86488Y41746D01*
X86340Y41769D01*
X86183Y41777D01*
X85894Y41756D01*
X85652Y41693D01*
X85460Y41588D01*
X85315Y41441D01*
X85210Y41239D01*
X85134Y40969D01*
X85089Y40631D01*
X85074Y40226D01*
X85074Y36384D01*
X84077Y36384D01*
X84077Y39895D01*
X84055Y40320D01*
X83986Y40694D01*
X83934Y40861D01*
X83871Y41016D01*
X83797Y41158D01*
X83711Y41287D01*
X83614Y41402D01*
X83509Y41501D01*
X83394Y41585D01*
X83270Y41654D01*
X83137Y41708D01*
X82995Y41746D01*
X82844Y41769D01*
X82683Y41777D01*
X82394Y41756D01*
X82152Y41693D01*
X81960Y41588D01*
X81815Y41441D01*
X81710Y41239D01*
X81634Y40969D01*
X81589Y40631D01*
X81574Y40226D01*
X81574Y36384D01*
G37*
G36*
X42794Y24080D02*
X42335Y24102D01*
X41918Y24170D01*
X41544Y24282D01*
X41214Y24438D01*
X40927Y24640D01*
X40683Y24886D01*
X40482Y25178D01*
X40325Y25514D01*
X41210Y25766D01*
X41296Y25573D01*
X41413Y25397D01*
X41563Y25240D01*
X41744Y25099D01*
X41958Y24984D01*
X42204Y24902D01*
X42483Y24852D01*
X42794Y24836D01*
X42995Y24845D01*
X43184Y24871D01*
X43360Y24916D01*
X43524Y24977D01*
X43675Y25057D01*
X43814Y25154D01*
X43940Y25269D01*
X44054Y25402D01*
X44156Y25550D01*
X44243Y25714D01*
X44317Y25893D01*
X44378Y26086D01*
X44425Y26295D01*
X44459Y26518D01*
X44479Y26756D01*
X44486Y27009D01*
X40163Y27009D01*
X40163Y27143D01*
X40173Y27533D01*
X40204Y27898D01*
X40256Y28237D01*
X40329Y28552D01*
X40423Y28841D01*
X40538Y29105D01*
X40674Y29344D01*
X40830Y29558D01*
X41008Y29747D01*
X41206Y29910D01*
X41425Y30049D01*
X41665Y30162D01*
X41926Y30250D01*
X42208Y30313D01*
X42510Y30351D01*
X42834Y30363D01*
X43150Y30351D01*
X43448Y30313D01*
X43728Y30251D01*
X43988Y30163D01*
X44230Y30050D01*
X44452Y29913D01*
X44656Y29750D01*
X44841Y29562D01*
X45006Y29351D01*
X45149Y29118D01*
X45270Y28863D01*
X45368Y28587D01*
X45445Y28288D01*
X45500Y27967D01*
X45533Y27625D01*
X45544Y27261D01*
X45533Y26878D01*
X45500Y26520D01*
X45445Y26186D01*
X45368Y25876D01*
X45270Y25591D01*
X45149Y25330D01*
X45006Y25093D01*
X44841Y24881D01*
X44656Y24693D01*
X44450Y24530D01*
X44224Y24393D01*
X43978Y24280D01*
X43712Y24193D01*
X43426Y24130D01*
X43120Y24093D01*
X42794Y24080D01*
G37*
%LPC*%
G36*
X44474Y27782D02*
X44460Y27990D01*
X44433Y28187D01*
X44394Y28373D01*
X44342Y28547D01*
X44278Y28709D01*
X44202Y28860D01*
X44113Y29000D01*
X44012Y29128D01*
X43901Y29243D01*
X43779Y29343D01*
X43648Y29427D01*
X43508Y29496D01*
X43358Y29549D01*
X43198Y29588D01*
X43029Y29611D01*
X42850Y29618D01*
X42667Y29612D01*
X42495Y29591D01*
X42333Y29557D01*
X42183Y29508D01*
X42043Y29447D01*
X41915Y29371D01*
X41798Y29282D01*
X41691Y29179D01*
X41595Y29061D01*
X41510Y28927D01*
X41434Y28776D01*
X41368Y28610D01*
X41266Y28228D01*
X41204Y27782D01*
X44474Y27782D01*
G37*
%LPD*%
G36*
X49169Y36272D02*
X48710Y36294D01*
X48293Y36362D01*
X47919Y36474D01*
X47589Y36630D01*
X47302Y36832D01*
X47058Y37078D01*
X46857Y37370D01*
X46700Y37706D01*
X47585Y37958D01*
X47671Y37765D01*
X47788Y37589D01*
X47938Y37432D01*
X48119Y37291D01*
X48333Y37176D01*
X48579Y37094D01*
X48858Y37044D01*
X49169Y37028D01*
X49370Y37037D01*
X49559Y37063D01*
X49735Y37108D01*
X49899Y37169D01*
X50050Y37249D01*
X50189Y37346D01*
X50315Y37461D01*
X50429Y37594D01*
X50531Y37742D01*
X50618Y37906D01*
X50692Y38085D01*
X50753Y38278D01*
X50800Y38487D01*
X50834Y38710D01*
X50854Y38948D01*
X50861Y39201D01*
X46538Y39201D01*
X46538Y39335D01*
X46548Y39725D01*
X46579Y40090D01*
X46631Y40429D01*
X46704Y40744D01*
X46798Y41033D01*
X46913Y41297D01*
X47049Y41536D01*
X47205Y41750D01*
X47383Y41939D01*
X47581Y42102D01*
X47800Y42241D01*
X48040Y42354D01*
X48301Y42442D01*
X48583Y42505D01*
X48885Y42543D01*
X49209Y42555D01*
X49525Y42543D01*
X49823Y42505D01*
X50103Y42443D01*
X50363Y42355D01*
X50605Y42242D01*
X50827Y42105D01*
X51031Y41942D01*
X51216Y41754D01*
X51381Y41543D01*
X51524Y41310D01*
X51645Y41055D01*
X51743Y40779D01*
X51820Y40480D01*
X51875Y40159D01*
X51908Y39817D01*
X51919Y39453D01*
X51908Y39070D01*
X51875Y38712D01*
X51820Y38378D01*
X51743Y38068D01*
X51645Y37783D01*
X51524Y37522D01*
X51381Y37285D01*
X51216Y37073D01*
X51031Y36885D01*
X50825Y36722D01*
X50599Y36585D01*
X50353Y36472D01*
X50087Y36385D01*
X49801Y36322D01*
X49495Y36285D01*
X49169Y36272D01*
G37*
%LPC*%
G36*
X50849Y39974D02*
X50835Y40182D01*
X50808Y40379D01*
X50769Y40565D01*
X50717Y40739D01*
X50653Y40901D01*
X50577Y41052D01*
X50488Y41192D01*
X50387Y41320D01*
X50276Y41435D01*
X50154Y41535D01*
X50023Y41619D01*
X49883Y41688D01*
X49733Y41741D01*
X49573Y41780D01*
X49404Y41803D01*
X49225Y41810D01*
X49042Y41804D01*
X48870Y41783D01*
X48708Y41749D01*
X48558Y41700D01*
X48418Y41639D01*
X48290Y41563D01*
X48173Y41474D01*
X48066Y41371D01*
X47970Y41253D01*
X47885Y41119D01*
X47809Y40968D01*
X47743Y40802D01*
X47641Y40420D01*
X47579Y39974D01*
X50849Y39974D01*
G37*
%LPD*%
G36*
X71482Y24080D02*
X71022Y24102D01*
X70605Y24170D01*
X70232Y24282D01*
X69901Y24438D01*
X69614Y24640D01*
X69370Y24886D01*
X69170Y25178D01*
X69012Y25514D01*
X69897Y25766D01*
X69983Y25573D01*
X70101Y25397D01*
X70251Y25240D01*
X70432Y25099D01*
X70646Y24984D01*
X70892Y24902D01*
X71171Y24852D01*
X71482Y24836D01*
X71683Y24845D01*
X71872Y24871D01*
X72048Y24916D01*
X72211Y24977D01*
X72363Y25057D01*
X72502Y25154D01*
X72628Y25269D01*
X72742Y25402D01*
X72843Y25550D01*
X72931Y25714D01*
X73005Y25893D01*
X73065Y26086D01*
X73113Y26295D01*
X73146Y26518D01*
X73166Y26756D01*
X73173Y27009D01*
X68850Y27009D01*
X68850Y27143D01*
X68860Y27533D01*
X68892Y27898D01*
X68944Y28237D01*
X69017Y28552D01*
X69111Y28841D01*
X69226Y29105D01*
X69361Y29344D01*
X69518Y29558D01*
X69695Y29747D01*
X69893Y29910D01*
X70113Y30049D01*
X70353Y30162D01*
X70613Y30250D01*
X70895Y30313D01*
X71198Y30351D01*
X71521Y30363D01*
X71838Y30351D01*
X72136Y30313D01*
X72415Y30251D01*
X72675Y30163D01*
X72917Y30050D01*
X73140Y29913D01*
X73344Y29750D01*
X73529Y29562D01*
X73694Y29351D01*
X73836Y29118D01*
X73957Y28863D01*
X74056Y28587D01*
X74133Y28288D01*
X74188Y27967D01*
X74221Y27625D01*
X74232Y27261D01*
X74221Y26878D01*
X74188Y26520D01*
X74133Y26186D01*
X74056Y25876D01*
X73957Y25591D01*
X73836Y25330D01*
X73694Y25093D01*
X73529Y24881D01*
X73343Y24693D01*
X73137Y24530D01*
X72912Y24393D01*
X72666Y24280D01*
X72400Y24193D01*
X72114Y24130D01*
X71808Y24093D01*
X71482Y24080D01*
G37*
%LPC*%
G36*
X73162Y27782D02*
X73147Y27990D01*
X73121Y28187D01*
X73081Y28373D01*
X73030Y28547D01*
X72966Y28709D01*
X72890Y28860D01*
X72801Y29000D01*
X72700Y29128D01*
X72588Y29243D01*
X72467Y29343D01*
X72336Y29427D01*
X72195Y29496D01*
X72045Y29549D01*
X71886Y29588D01*
X71717Y29611D01*
X71538Y29618D01*
X71355Y29612D01*
X71182Y29591D01*
X71021Y29557D01*
X70870Y29508D01*
X70731Y29447D01*
X70602Y29371D01*
X70485Y29282D01*
X70379Y29179D01*
X70283Y29061D01*
X70197Y28927D01*
X70121Y28776D01*
X70055Y28610D01*
X69954Y28228D01*
X69892Y27782D01*
X73162Y27782D01*
G37*
%LPD*%
G36*
X90607Y24080D02*
X90147Y24102D01*
X89730Y24170D01*
X89357Y24282D01*
X89026Y24438D01*
X88739Y24640D01*
X88495Y24886D01*
X88295Y25178D01*
X88137Y25514D01*
X89022Y25766D01*
X89108Y25573D01*
X89226Y25397D01*
X89376Y25240D01*
X89557Y25099D01*
X89771Y24984D01*
X90017Y24902D01*
X90296Y24852D01*
X90607Y24836D01*
X90808Y24845D01*
X90997Y24871D01*
X91173Y24916D01*
X91336Y24977D01*
X91488Y25057D01*
X91627Y25154D01*
X91753Y25269D01*
X91867Y25402D01*
X91968Y25550D01*
X92056Y25714D01*
X92130Y25893D01*
X92190Y26086D01*
X92238Y26295D01*
X92271Y26518D01*
X92291Y26756D01*
X92298Y27009D01*
X87975Y27009D01*
X87975Y27143D01*
X87985Y27533D01*
X88017Y27898D01*
X88069Y28237D01*
X88142Y28552D01*
X88236Y28841D01*
X88351Y29105D01*
X88486Y29344D01*
X88643Y29558D01*
X88820Y29747D01*
X89018Y29910D01*
X89238Y30049D01*
X89478Y30162D01*
X89738Y30250D01*
X90020Y30313D01*
X90323Y30351D01*
X90646Y30363D01*
X90963Y30351D01*
X91261Y30313D01*
X91540Y30251D01*
X91800Y30163D01*
X92042Y30050D01*
X92265Y29913D01*
X92469Y29750D01*
X92654Y29562D01*
X92819Y29351D01*
X92961Y29118D01*
X93082Y28863D01*
X93181Y28587D01*
X93258Y28288D01*
X93313Y27967D01*
X93346Y27625D01*
X93357Y27261D01*
X93346Y26878D01*
X93313Y26520D01*
X93258Y26186D01*
X93181Y25876D01*
X93082Y25591D01*
X92961Y25330D01*
X92819Y25093D01*
X92654Y24881D01*
X92468Y24693D01*
X92262Y24530D01*
X92037Y24393D01*
X91791Y24280D01*
X91525Y24193D01*
X91239Y24130D01*
X90933Y24093D01*
X90607Y24080D01*
G37*
%LPC*%
G36*
X92287Y27782D02*
X92272Y27990D01*
X92246Y28187D01*
X92206Y28373D01*
X92155Y28547D01*
X92091Y28709D01*
X92015Y28860D01*
X91926Y29000D01*
X91825Y29128D01*
X91713Y29243D01*
X91592Y29343D01*
X91461Y29427D01*
X91320Y29496D01*
X91170Y29549D01*
X91011Y29588D01*
X90842Y29611D01*
X90663Y29618D01*
X90480Y29612D01*
X90307Y29591D01*
X90146Y29557D01*
X89995Y29508D01*
X89856Y29447D01*
X89727Y29371D01*
X89610Y29282D01*
X89504Y29179D01*
X89408Y29061D01*
X89322Y28927D01*
X89246Y28776D01*
X89180Y28610D01*
X89079Y28228D01*
X89017Y27782D01*
X92287Y27782D01*
G37*
%LPD*%
G36*
X112263Y36272D02*
X111803Y36294D01*
X111386Y36362D01*
X111013Y36474D01*
X110683Y36630D01*
X110396Y36832D01*
X110152Y37078D01*
X109951Y37370D01*
X109794Y37706D01*
X110678Y37958D01*
X110764Y37765D01*
X110882Y37589D01*
X111032Y37432D01*
X111213Y37291D01*
X111427Y37176D01*
X111673Y37094D01*
X111952Y37044D01*
X112263Y37028D01*
X112464Y37037D01*
X112653Y37063D01*
X112829Y37108D01*
X112993Y37169D01*
X113144Y37249D01*
X113283Y37346D01*
X113409Y37461D01*
X113523Y37594D01*
X113624Y37742D01*
X113712Y37906D01*
X113786Y38085D01*
X113847Y38278D01*
X113894Y38487D01*
X113927Y38710D01*
X113948Y38948D01*
X113954Y39201D01*
X109631Y39201D01*
X109631Y39335D01*
X109642Y39725D01*
X109673Y40090D01*
X109725Y40429D01*
X109798Y40744D01*
X109892Y41033D01*
X110007Y41297D01*
X110143Y41536D01*
X110299Y41750D01*
X110476Y41939D01*
X110675Y42102D01*
X110894Y42241D01*
X111134Y42354D01*
X111395Y42442D01*
X111676Y42505D01*
X111979Y42543D01*
X112302Y42555D01*
X112619Y42543D01*
X112917Y42505D01*
X113196Y42443D01*
X113457Y42355D01*
X113698Y42242D01*
X113921Y42105D01*
X114125Y41942D01*
X114310Y41754D01*
X114475Y41543D01*
X114618Y41310D01*
X114738Y41055D01*
X114837Y40779D01*
X114914Y40480D01*
X114969Y40159D01*
X115002Y39817D01*
X115013Y39453D01*
X115002Y39070D01*
X114969Y38712D01*
X114914Y38378D01*
X114837Y38068D01*
X114738Y37783D01*
X114618Y37522D01*
X114475Y37285D01*
X114310Y37073D01*
X114124Y36885D01*
X113919Y36722D01*
X113693Y36585D01*
X113447Y36472D01*
X113181Y36385D01*
X112895Y36322D01*
X112589Y36285D01*
X112263Y36272D01*
G37*
%LPC*%
G36*
X113943Y39974D02*
X113929Y40182D01*
X113902Y40379D01*
X113863Y40565D01*
X113811Y40739D01*
X113747Y40901D01*
X113671Y41052D01*
X113582Y41192D01*
X113481Y41320D01*
X113369Y41435D01*
X113248Y41535D01*
X113117Y41619D01*
X112977Y41688D01*
X112827Y41741D01*
X112667Y41780D01*
X112498Y41803D01*
X112319Y41810D01*
X112136Y41804D01*
X111963Y41783D01*
X111802Y41749D01*
X111651Y41700D01*
X111512Y41639D01*
X111384Y41563D01*
X111266Y41474D01*
X111160Y41371D01*
X111064Y41253D01*
X110978Y41119D01*
X110903Y40968D01*
X110837Y40802D01*
X110735Y40420D01*
X110673Y39974D01*
X113943Y39974D01*
G37*
%LPD*%
G36*
X133951Y24080D02*
X133491Y24102D01*
X133074Y24170D01*
X132700Y24282D01*
X132370Y24438D01*
X132083Y24640D01*
X131839Y24886D01*
X131639Y25178D01*
X131481Y25514D01*
X132366Y25766D01*
X132452Y25573D01*
X132570Y25397D01*
X132719Y25240D01*
X132901Y25099D01*
X133114Y24984D01*
X133361Y24902D01*
X133639Y24852D01*
X133951Y24836D01*
X134152Y24845D01*
X134340Y24871D01*
X134516Y24916D01*
X134680Y24977D01*
X134831Y25057D01*
X134970Y25154D01*
X135097Y25269D01*
X135211Y25402D01*
X135312Y25550D01*
X135399Y25714D01*
X135474Y25893D01*
X135534Y26086D01*
X135581Y26295D01*
X135615Y26518D01*
X135635Y26756D01*
X135642Y27009D01*
X131319Y27009D01*
X131319Y27143D01*
X131329Y27533D01*
X131360Y27898D01*
X131413Y28237D01*
X131486Y28552D01*
X131580Y28841D01*
X131694Y29105D01*
X131830Y29344D01*
X131987Y29558D01*
X132164Y29747D01*
X132362Y29910D01*
X132581Y30049D01*
X132821Y30162D01*
X133082Y30250D01*
X133364Y30313D01*
X133666Y30351D01*
X133990Y30363D01*
X134307Y30351D01*
X134605Y30313D01*
X134884Y30251D01*
X135144Y30163D01*
X135386Y30050D01*
X135609Y29913D01*
X135812Y29750D01*
X135998Y29562D01*
X136162Y29351D01*
X136305Y29118D01*
X136426Y28863D01*
X136525Y28587D01*
X136602Y28288D01*
X136656Y27967D01*
X136689Y27625D01*
X136700Y27261D01*
X136689Y26878D01*
X136656Y26520D01*
X136602Y26186D01*
X136525Y25876D01*
X136426Y25591D01*
X136305Y25330D01*
X136162Y25093D01*
X135998Y24881D01*
X135812Y24693D01*
X135606Y24530D01*
X135380Y24393D01*
X135134Y24280D01*
X134869Y24193D01*
X134583Y24130D01*
X134277Y24093D01*
X133951Y24080D01*
G37*
%LPC*%
G36*
X135631Y27782D02*
X135616Y27990D01*
X135589Y28187D01*
X135550Y28373D01*
X135498Y28547D01*
X135435Y28709D01*
X135358Y28860D01*
X135270Y29000D01*
X135169Y29128D01*
X135057Y29243D01*
X134935Y29343D01*
X134805Y29427D01*
X134664Y29496D01*
X134514Y29549D01*
X134354Y29588D01*
X134185Y29611D01*
X134007Y29618D01*
X133823Y29612D01*
X133651Y29591D01*
X133489Y29557D01*
X133339Y29508D01*
X133200Y29447D01*
X133071Y29371D01*
X132954Y29282D01*
X132848Y29179D01*
X132752Y29061D01*
X132666Y28927D01*
X132590Y28776D01*
X132524Y28610D01*
X132422Y28228D01*
X132360Y27782D01*
X135631Y27782D01*
G37*
%LPD*%
G36*
X134806Y36384D02*
X133479Y36384D01*
X137287Y40847D01*
X133927Y44274D01*
X135187Y44274D01*
X138990Y40321D01*
X138990Y44274D01*
X140059Y44274D01*
X140059Y36384D01*
X138990Y36384D01*
X138990Y39408D01*
X137959Y40192D01*
X134806Y36384D01*
G37*
G36*
X101318Y24192D02*
X100304Y24192D01*
X100304Y28230D01*
X100311Y28505D01*
X100333Y28760D01*
X100369Y28995D01*
X100419Y29210D01*
X100484Y29405D01*
X100564Y29579D01*
X100658Y29734D01*
X100766Y29868D01*
X100890Y29984D01*
X101030Y30084D01*
X101188Y30170D01*
X101362Y30239D01*
X101552Y30293D01*
X101760Y30332D01*
X101984Y30355D01*
X102225Y30363D01*
X102550Y30347D01*
X102847Y30298D01*
X103117Y30217D01*
X103359Y30103D01*
X103580Y29950D01*
X103788Y29751D01*
X103982Y29506D01*
X104162Y29215D01*
X104179Y29215D01*
X104199Y29817D01*
X104213Y30100D01*
X104224Y30251D01*
X105176Y30251D01*
X105151Y29810D01*
X105142Y28958D01*
X105142Y24192D01*
X104134Y24192D01*
X104134Y27703D01*
X104128Y27918D01*
X104108Y28121D01*
X104075Y28312D01*
X104029Y28491D01*
X103970Y28658D01*
X103898Y28813D01*
X103813Y28956D01*
X103714Y29086D01*
X103605Y29203D01*
X103485Y29304D01*
X103356Y29390D01*
X103217Y29460D01*
X103069Y29515D01*
X102911Y29554D01*
X102744Y29577D01*
X102566Y29585D01*
X102332Y29576D01*
X102128Y29548D01*
X101954Y29503D01*
X101810Y29439D01*
X101690Y29355D01*
X101588Y29247D01*
X101503Y29117D01*
X101435Y28963D01*
X101384Y28781D01*
X101347Y28566D01*
X101325Y28316D01*
X101318Y28034D01*
X101318Y24192D01*
G37*
G36*
X114099Y24192D02*
X113085Y24192D01*
X113085Y28230D01*
X113092Y28505D01*
X113114Y28760D01*
X113150Y28995D01*
X113201Y29210D01*
X113266Y29405D01*
X113345Y29579D01*
X113439Y29734D01*
X113547Y29868D01*
X113671Y29984D01*
X113812Y30084D01*
X113969Y30170D01*
X114143Y30239D01*
X114334Y30293D01*
X114541Y30332D01*
X114765Y30355D01*
X115006Y30363D01*
X115331Y30347D01*
X115628Y30298D01*
X115898Y30217D01*
X116140Y30103D01*
X116361Y29950D01*
X116569Y29751D01*
X116763Y29506D01*
X116944Y29215D01*
X116960Y29215D01*
X116980Y29817D01*
X116994Y30100D01*
X117005Y30251D01*
X117957Y30251D01*
X117932Y29810D01*
X117924Y28958D01*
X117924Y24192D01*
X116916Y24192D01*
X116916Y27703D01*
X116909Y27918D01*
X116889Y28121D01*
X116857Y28312D01*
X116811Y28491D01*
X116752Y28658D01*
X116679Y28813D01*
X116594Y28956D01*
X116496Y29086D01*
X116386Y29203D01*
X116266Y29304D01*
X116137Y29390D01*
X115999Y29460D01*
X115850Y29515D01*
X115692Y29554D01*
X115525Y29577D01*
X115348Y29585D01*
X115113Y29576D01*
X114909Y29548D01*
X114735Y29503D01*
X114592Y29439D01*
X114472Y29355D01*
X114369Y29247D01*
X114284Y29117D01*
X114216Y28963D01*
X114165Y28781D01*
X114128Y28566D01*
X114106Y28316D01*
X114099Y28034D01*
X114099Y24192D01*
G37*
G36*
X53553Y24080D02*
X53228Y24096D01*
X52931Y24145D01*
X52661Y24226D01*
X52419Y24340D01*
X52198Y24494D01*
X51990Y24692D01*
X51796Y24937D01*
X51616Y25228D01*
X51599Y25228D01*
X51579Y24626D01*
X51565Y24343D01*
X51554Y24192D01*
X50602Y24192D01*
X50627Y24633D01*
X50636Y25486D01*
X50636Y30251D01*
X51644Y30251D01*
X51644Y26740D01*
X51650Y26525D01*
X51670Y26322D01*
X51703Y26131D01*
X51749Y25952D01*
X51808Y25785D01*
X51880Y25630D01*
X51965Y25487D01*
X52064Y25357D01*
X52173Y25240D01*
X52293Y25139D01*
X52422Y25053D01*
X52561Y24983D01*
X52709Y24928D01*
X52867Y24890D01*
X53034Y24866D01*
X53212Y24858D01*
X53446Y24867D01*
X53650Y24895D01*
X53824Y24940D01*
X53968Y25004D01*
X54088Y25088D01*
X54190Y25196D01*
X54275Y25326D01*
X54343Y25480D01*
X54394Y25662D01*
X54431Y25878D01*
X54453Y26127D01*
X54460Y26410D01*
X54460Y30251D01*
X55474Y30251D01*
X55474Y26214D01*
X55467Y25938D01*
X55445Y25683D01*
X55409Y25448D01*
X55358Y25233D01*
X55294Y25038D01*
X55214Y24864D01*
X55120Y24710D01*
X55012Y24576D01*
X54888Y24459D01*
X54748Y24359D01*
X54590Y24274D01*
X54416Y24204D01*
X54226Y24150D01*
X54018Y24111D01*
X53794Y24088D01*
X53553Y24080D01*
G37*
G36*
X59107Y24080D02*
X58824Y24087D01*
X58557Y24109D01*
X58306Y24145D01*
X58072Y24196D01*
X57854Y24262D01*
X57651Y24341D01*
X57465Y24436D01*
X57296Y24545D01*
X57144Y24667D01*
X57013Y24802D01*
X56901Y24949D01*
X56811Y25108D01*
X56740Y25279D01*
X56689Y25462D01*
X56659Y25658D01*
X56649Y25866D01*
X56656Y26035D01*
X56677Y26195D01*
X56712Y26345D01*
X56761Y26485D01*
X56896Y26741D01*
X57077Y26964D01*
X57319Y27162D01*
X57634Y27342D01*
X57839Y27429D01*
X58099Y27520D01*
X58788Y27714D01*
X59488Y27899D01*
X59897Y28039D01*
X60128Y28169D01*
X60294Y28325D01*
X60353Y28414D01*
X60395Y28515D01*
X60420Y28627D01*
X60429Y28750D01*
X60408Y28947D01*
X60348Y29117D01*
X60246Y29261D01*
X60104Y29378D01*
X59919Y29468D01*
X59690Y29533D01*
X59415Y29572D01*
X59096Y29585D01*
X58804Y29571D01*
X58542Y29531D01*
X58312Y29464D01*
X58113Y29369D01*
X57947Y29250D01*
X57817Y29107D01*
X57722Y28940D01*
X57662Y28750D01*
X56755Y28862D01*
X56801Y29050D01*
X56861Y29225D01*
X56934Y29386D01*
X57021Y29534D01*
X57121Y29669D01*
X57235Y29791D01*
X57362Y29899D01*
X57503Y29994D01*
X57824Y30148D01*
X58196Y30258D01*
X58621Y30324D01*
X59096Y30346D01*
X59370Y30340D01*
X59628Y30319D01*
X59868Y30285D01*
X60092Y30238D01*
X60299Y30177D01*
X60489Y30102D01*
X60662Y30014D01*
X60818Y29912D01*
X60956Y29798D01*
X61076Y29671D01*
X61178Y29531D01*
X61261Y29380D01*
X61326Y29216D01*
X61372Y29039D01*
X61400Y28851D01*
X61409Y28650D01*
X61396Y28434D01*
X61357Y28237D01*
X61292Y28056D01*
X61202Y27894D01*
X61088Y27745D01*
X60954Y27609D01*
X60801Y27484D01*
X60628Y27370D01*
X60413Y27262D01*
X60135Y27152D01*
X59795Y27042D01*
X59393Y26930D01*
X58670Y26740D01*
X58415Y26662D01*
X58197Y26575D01*
X58017Y26477D01*
X57875Y26370D01*
X57767Y26250D01*
X57690Y26113D01*
X57644Y25959D01*
X57629Y25788D01*
X57651Y25567D01*
X57718Y25376D01*
X57829Y25215D01*
X57984Y25082D01*
X58188Y24979D01*
X58443Y24906D01*
X58749Y24862D01*
X59107Y24847D01*
X59446Y24861D01*
X59746Y24904D01*
X60006Y24975D01*
X60227Y25074D01*
X60412Y25204D01*
X60562Y25366D01*
X60678Y25561D01*
X60759Y25788D01*
X61650Y25614D01*
X61597Y25424D01*
X61530Y25246D01*
X61451Y25081D01*
X61358Y24929D01*
X61251Y24790D01*
X61131Y24665D01*
X60998Y24552D01*
X60852Y24452D01*
X60690Y24365D01*
X60513Y24289D01*
X60319Y24225D01*
X60109Y24173D01*
X59883Y24132D01*
X59640Y24103D01*
X59382Y24086D01*
X59107Y24080D01*
G37*
G36*
X127951Y24080D02*
X127668Y24087D01*
X127401Y24109D01*
X127150Y24145D01*
X126916Y24196D01*
X126697Y24262D01*
X126495Y24341D01*
X126309Y24436D01*
X126139Y24545D01*
X125988Y24667D01*
X125856Y24802D01*
X125745Y24949D01*
X125654Y25108D01*
X125584Y25279D01*
X125533Y25462D01*
X125503Y25658D01*
X125493Y25866D01*
X125500Y26035D01*
X125521Y26195D01*
X125556Y26345D01*
X125605Y26485D01*
X125740Y26741D01*
X125921Y26964D01*
X126162Y27162D01*
X126478Y27342D01*
X126683Y27429D01*
X126943Y27520D01*
X127632Y27714D01*
X128332Y27899D01*
X128741Y28039D01*
X128972Y28169D01*
X129138Y28325D01*
X129197Y28414D01*
X129239Y28515D01*
X129264Y28627D01*
X129273Y28750D01*
X129252Y28947D01*
X129191Y29117D01*
X129090Y29261D01*
X128948Y29378D01*
X128763Y29468D01*
X128533Y29533D01*
X128259Y29572D01*
X127940Y29585D01*
X127647Y29571D01*
X127386Y29531D01*
X127156Y29464D01*
X126957Y29369D01*
X126791Y29250D01*
X126661Y29107D01*
X126566Y28940D01*
X126506Y28750D01*
X125599Y28862D01*
X125645Y29050D01*
X125704Y29225D01*
X125778Y29386D01*
X125864Y29534D01*
X125964Y29669D01*
X126078Y29791D01*
X126206Y29899D01*
X126347Y29994D01*
X126668Y30148D01*
X127040Y30258D01*
X127464Y30324D01*
X127940Y30346D01*
X128214Y30340D01*
X128472Y30319D01*
X128712Y30285D01*
X128936Y30238D01*
X129143Y30177D01*
X129333Y30102D01*
X129506Y30014D01*
X129662Y29912D01*
X129800Y29798D01*
X129920Y29671D01*
X130022Y29531D01*
X130105Y29380D01*
X130169Y29216D01*
X130216Y29039D01*
X130243Y28851D01*
X130253Y28650D01*
X130240Y28434D01*
X130201Y28237D01*
X130136Y28056D01*
X130045Y27894D01*
X129932Y27745D01*
X129798Y27609D01*
X129645Y27484D01*
X129471Y27370D01*
X129257Y27262D01*
X128979Y27152D01*
X128639Y27042D01*
X128237Y26930D01*
X127514Y26740D01*
X127259Y26662D01*
X127041Y26575D01*
X126861Y26477D01*
X126719Y26370D01*
X126611Y26250D01*
X126534Y26113D01*
X126488Y25959D01*
X126473Y25788D01*
X126495Y25567D01*
X126561Y25376D01*
X126673Y25215D01*
X126828Y25082D01*
X127032Y24979D01*
X127287Y24906D01*
X127593Y24862D01*
X127951Y24847D01*
X128290Y24861D01*
X128589Y24904D01*
X128850Y24975D01*
X129071Y25074D01*
X129255Y25204D01*
X129406Y25366D01*
X129521Y25561D01*
X129603Y25788D01*
X130493Y25614D01*
X130440Y25424D01*
X130374Y25246D01*
X130294Y25081D01*
X130201Y24929D01*
X130095Y24790D01*
X129975Y24665D01*
X129842Y24552D01*
X129695Y24452D01*
X129534Y24365D01*
X129356Y24289D01*
X129163Y24225D01*
X128953Y24173D01*
X128726Y24132D01*
X128484Y24103D01*
X128226Y24086D01*
X127951Y24080D01*
G37*
G36*
X96466Y24080D02*
X96230Y24088D01*
X96005Y24113D01*
X95791Y24153D01*
X95587Y24210D01*
X95393Y24283D01*
X95210Y24373D01*
X95037Y24479D01*
X94875Y24601D01*
X94727Y24737D01*
X94594Y24883D01*
X94477Y25041D01*
X94376Y25210D01*
X94290Y25390D01*
X94221Y25580D01*
X94168Y25782D01*
X94131Y25995D01*
X95150Y26062D01*
X95209Y25780D01*
X95303Y25536D01*
X95432Y25332D01*
X95595Y25166D01*
X95787Y25039D01*
X96000Y24948D01*
X96236Y24893D01*
X96494Y24875D01*
X96680Y24884D01*
X96853Y24912D01*
X97015Y24957D01*
X97164Y25021D01*
X97302Y25103D01*
X97427Y25203D01*
X97541Y25321D01*
X97642Y25458D01*
X97731Y25613D01*
X97808Y25788D01*
X97874Y25983D01*
X97927Y26197D01*
X97969Y26431D01*
X97999Y26684D01*
X98017Y26957D01*
X98023Y27250D01*
X98000Y27834D01*
X97972Y28092D01*
X97933Y28328D01*
X97883Y28540D01*
X97821Y28730D01*
X97748Y28897D01*
X97664Y29042D01*
X97568Y29166D01*
X97457Y29274D01*
X97333Y29366D01*
X97195Y29441D01*
X97043Y29499D01*
X96878Y29540D01*
X96698Y29565D01*
X96505Y29574D01*
X96228Y29555D01*
X95984Y29499D01*
X95774Y29407D01*
X95598Y29277D01*
X95453Y29115D01*
X95339Y28928D01*
X95254Y28715D01*
X95200Y28476D01*
X94164Y28554D01*
X94210Y28760D01*
X94271Y28954D01*
X94346Y29137D01*
X94435Y29309D01*
X94538Y29469D01*
X94656Y29618D01*
X94788Y29755D01*
X94934Y29882D01*
X95092Y29994D01*
X95261Y30092D01*
X95439Y30175D01*
X95626Y30243D01*
X95824Y30295D01*
X96032Y30333D01*
X96249Y30356D01*
X96477Y30363D01*
X96781Y30351D01*
X97068Y30313D01*
X97336Y30250D01*
X97586Y30162D01*
X97817Y30049D01*
X98031Y29911D01*
X98226Y29748D01*
X98403Y29560D01*
X98561Y29347D01*
X98697Y29112D01*
X98813Y28855D01*
X98907Y28575D01*
X98981Y28272D01*
X99033Y27946D01*
X99065Y27598D01*
X99075Y27227D01*
X99065Y26854D01*
X99034Y26503D01*
X98981Y26176D01*
X98908Y25871D01*
X98814Y25590D01*
X98699Y25331D01*
X98563Y25096D01*
X98406Y24884D01*
X98229Y24695D01*
X98034Y24532D01*
X97820Y24394D01*
X97586Y24281D01*
X97334Y24193D01*
X97064Y24130D01*
X96774Y24093D01*
X96466Y24080D01*
G37*
G36*
X98403Y36272D02*
X98168Y36280D01*
X97943Y36305D01*
X97728Y36345D01*
X97524Y36402D01*
X97330Y36475D01*
X97147Y36565D01*
X96975Y36671D01*
X96813Y36793D01*
X96664Y36929D01*
X96531Y37075D01*
X96414Y37233D01*
X96313Y37402D01*
X96228Y37582D01*
X96159Y37772D01*
X96105Y37974D01*
X96068Y38187D01*
X97087Y38254D01*
X97147Y37972D01*
X97241Y37728D01*
X97369Y37524D01*
X97532Y37358D01*
X97724Y37231D01*
X97938Y37140D01*
X98173Y37085D01*
X98431Y37067D01*
X98617Y37076D01*
X98791Y37104D01*
X98952Y37149D01*
X99102Y37213D01*
X99239Y37295D01*
X99365Y37395D01*
X99478Y37513D01*
X99579Y37650D01*
X99668Y37805D01*
X99746Y37980D01*
X99811Y38175D01*
X99865Y38389D01*
X99906Y38623D01*
X99936Y38876D01*
X99954Y39149D01*
X99960Y39442D01*
X99938Y40026D01*
X99910Y40284D01*
X99870Y40520D01*
X99820Y40732D01*
X99758Y40922D01*
X99686Y41089D01*
X99602Y41234D01*
X99505Y41358D01*
X99395Y41466D01*
X99271Y41558D01*
X99133Y41633D01*
X98981Y41691D01*
X98815Y41732D01*
X98636Y41757D01*
X98442Y41766D01*
X98165Y41747D01*
X97922Y41691D01*
X97712Y41599D01*
X97535Y41469D01*
X97391Y41307D01*
X97276Y41120D01*
X97192Y40907D01*
X97138Y40668D01*
X96102Y40746D01*
X96148Y40952D01*
X96209Y41146D01*
X96283Y41329D01*
X96373Y41501D01*
X96476Y41661D01*
X96594Y41810D01*
X96725Y41947D01*
X96872Y42074D01*
X97030Y42186D01*
X97198Y42284D01*
X97376Y42367D01*
X97564Y42435D01*
X97762Y42487D01*
X97969Y42525D01*
X98187Y42548D01*
X98414Y42555D01*
X98719Y42543D01*
X99005Y42505D01*
X99273Y42442D01*
X99523Y42354D01*
X99755Y42241D01*
X99968Y42103D01*
X100164Y41940D01*
X100341Y41752D01*
X100498Y41539D01*
X100635Y41304D01*
X100750Y41047D01*
X100845Y40767D01*
X100918Y40464D01*
X100971Y40138D01*
X101002Y39790D01*
X101013Y39419D01*
X101002Y39046D01*
X100971Y38695D01*
X100919Y38368D01*
X100846Y38063D01*
X100751Y37782D01*
X100636Y37523D01*
X100500Y37288D01*
X100344Y37076D01*
X100167Y36887D01*
X99971Y36724D01*
X99757Y36586D01*
X99524Y36473D01*
X99272Y36385D01*
X99001Y36322D01*
X98712Y36285D01*
X98403Y36272D01*
G37*
G36*
X64979Y36294D02*
X64720Y36303D01*
X64464Y36328D01*
X64211Y36370D01*
X63960Y36429D01*
X63960Y37174D01*
X64296Y37115D01*
X64543Y37095D01*
X64706Y37106D01*
X64843Y37139D01*
X64954Y37194D01*
X65038Y37272D01*
X65101Y37376D01*
X65145Y37513D01*
X65172Y37683D01*
X65181Y37885D01*
X65181Y41710D01*
X64061Y41710D01*
X64061Y42443D01*
X65181Y42443D01*
X65181Y43798D01*
X65853Y43798D01*
X66150Y42443D01*
X66889Y42443D01*
X66889Y41710D01*
X66189Y41710D01*
X66189Y37666D01*
X66170Y37345D01*
X66113Y37066D01*
X66019Y36830D01*
X65887Y36637D01*
X65716Y36487D01*
X65509Y36380D01*
X65263Y36316D01*
X64979Y36294D01*
G37*
G36*
X54196Y36384D02*
X53188Y36384D01*
X53188Y44694D01*
X54196Y44694D01*
X54196Y36384D01*
G37*
G36*
X132602Y36384D02*
X131594Y36384D01*
X131594Y44694D01*
X132602Y44694D01*
X132602Y36384D01*
G37*
G36*
X49049Y24192D02*
X48041Y24192D01*
X48041Y27350D01*
X48020Y27825D01*
X47958Y28241D01*
X47855Y28599D01*
X47788Y28756D01*
X47710Y28899D01*
X47623Y29025D01*
X47526Y29135D01*
X47421Y29228D01*
X47306Y29304D01*
X47181Y29363D01*
X47048Y29405D01*
X46905Y29431D01*
X46753Y29439D01*
X46450Y29425D01*
X46215Y29383D01*
X46215Y30307D01*
X46421Y30349D01*
X46624Y30363D01*
X46893Y30345D01*
X47131Y30292D01*
X47336Y30203D01*
X47509Y30078D01*
X47661Y29904D01*
X47804Y29669D01*
X47938Y29372D01*
X48063Y29014D01*
X48085Y29014D01*
X48130Y30251D01*
X49082Y30251D01*
X49057Y29512D01*
X49049Y28840D01*
X49049Y24192D01*
G37*
G36*
X108330Y36384D02*
X107322Y36384D01*
X107322Y39542D01*
X107301Y40017D01*
X107239Y40433D01*
X107136Y40791D01*
X107069Y40948D01*
X106991Y41091D01*
X106904Y41217D01*
X106808Y41327D01*
X106702Y41420D01*
X106587Y41496D01*
X106463Y41555D01*
X106329Y41597D01*
X106186Y41623D01*
X106034Y41631D01*
X105731Y41617D01*
X105496Y41575D01*
X105496Y42499D01*
X105702Y42541D01*
X105905Y42555D01*
X106175Y42537D01*
X106412Y42484D01*
X106617Y42395D01*
X106790Y42270D01*
X106942Y42096D01*
X107085Y41861D01*
X107219Y41564D01*
X107344Y41206D01*
X107367Y41206D01*
X107411Y42443D01*
X108363Y42443D01*
X108338Y41704D01*
X108330Y41032D01*
X108330Y36384D01*
G37*
G36*
X121080Y12000D02*
X120072Y12000D01*
X120072Y15158D01*
X120051Y15633D01*
X119989Y16049D01*
X119886Y16407D01*
X119819Y16564D01*
X119741Y16707D01*
X119654Y16833D01*
X119558Y16943D01*
X119452Y17036D01*
X119337Y17112D01*
X119213Y17171D01*
X119079Y17213D01*
X118936Y17239D01*
X118784Y17247D01*
X118481Y17233D01*
X118246Y17191D01*
X118246Y18115D01*
X118452Y18157D01*
X118655Y18171D01*
X118925Y18153D01*
X119162Y18100D01*
X119367Y18011D01*
X119540Y17886D01*
X119692Y17712D01*
X119835Y17477D01*
X119969Y17180D01*
X120094Y16822D01*
X120117Y16822D01*
X120161Y18059D01*
X121113Y18059D01*
X121088Y17320D01*
X121080Y16648D01*
X121080Y12000D01*
G37*
G36*
X140205Y24192D02*
X139197Y24192D01*
X139197Y27350D01*
X139176Y27825D01*
X139114Y28241D01*
X139011Y28599D01*
X138944Y28756D01*
X138866Y28899D01*
X138779Y29025D01*
X138683Y29135D01*
X138577Y29228D01*
X138462Y29304D01*
X138338Y29363D01*
X138204Y29405D01*
X138061Y29431D01*
X137909Y29439D01*
X137606Y29425D01*
X137371Y29383D01*
X137371Y30307D01*
X137577Y30349D01*
X137780Y30363D01*
X138050Y30345D01*
X138287Y30292D01*
X138492Y30203D01*
X138665Y30078D01*
X138817Y29904D01*
X138960Y29669D01*
X139094Y29372D01*
X139219Y29014D01*
X139242Y29014D01*
X139286Y30251D01*
X140238Y30251D01*
X140213Y29512D01*
X140205Y28840D01*
X140205Y24192D01*
G37*
G36*
X63139Y36384D02*
X62131Y36384D01*
X62131Y42443D01*
X63139Y42443D01*
X63139Y36384D01*
G37*
G36*
X130045Y36384D02*
X129037Y36384D01*
X129037Y42443D01*
X130045Y42443D01*
X130045Y36384D01*
G37*
G36*
X104803Y38982D02*
X102003Y38982D01*
X102003Y39878D01*
X104803Y39878D01*
X104803Y38982D01*
G37*
G36*
X63139Y43731D02*
X62131Y43731D01*
X62131Y44694D01*
X63139Y44694D01*
X63139Y43731D01*
G37*
G36*
X130045Y43731D02*
X129037Y43731D01*
X129037Y44694D01*
X130045Y44694D01*
X130045Y43731D01*
G37*
D10*
X36836Y52158D02*
X35284Y52158D01*
X35207Y52160D01*
X35129Y52166D01*
X35053Y52175D01*
X34976Y52189D01*
X34901Y52206D01*
X34827Y52227D01*
X34753Y52252D01*
X34681Y52280D01*
X34611Y52312D01*
X34542Y52347D01*
X34475Y52386D01*
X34410Y52428D01*
X34347Y52473D01*
X34286Y52521D01*
X34228Y52572D01*
X34173Y52626D01*
X34120Y52683D01*
X34071Y52742D01*
X34024Y52804D01*
X33980Y52868D01*
X33940Y52934D01*
X33903Y53002D01*
X33869Y53072D01*
X33839Y53143D01*
X33813Y53216D01*
X33790Y53290D01*
X33771Y53365D01*
X33756Y53440D01*
X33744Y53517D01*
X33736Y53594D01*
X33732Y53671D01*
X33732Y53749D01*
X33736Y53826D01*
X33744Y53903D01*
X33756Y53980D01*
X33771Y54055D01*
X33790Y54130D01*
X33813Y54204D01*
X33839Y54277D01*
X33869Y54348D01*
X33903Y54418D01*
X33940Y54486D01*
X33980Y54552D01*
X34024Y54616D01*
X34071Y54678D01*
X34120Y54737D01*
X34173Y54794D01*
X34228Y54848D01*
X34286Y54899D01*
X34347Y54947D01*
X34410Y54992D01*
X34475Y55034D01*
X34542Y55073D01*
X34611Y55108D01*
X34681Y55140D01*
X34753Y55168D01*
X34827Y55193D01*
X34901Y55214D01*
X34976Y55231D01*
X35053Y55245D01*
X35129Y55254D01*
X35207Y55260D01*
X35284Y55262D01*
X34973Y57746D02*
X36836Y57746D01*
X34973Y57746D02*
X34903Y57744D01*
X34834Y57738D01*
X34765Y57728D01*
X34697Y57715D01*
X34629Y57697D01*
X34563Y57676D01*
X34498Y57651D01*
X34434Y57623D01*
X34372Y57591D01*
X34312Y57556D01*
X34254Y57517D01*
X34199Y57475D01*
X34145Y57430D01*
X34095Y57382D01*
X34047Y57332D01*
X34002Y57278D01*
X33960Y57223D01*
X33921Y57165D01*
X33886Y57105D01*
X33854Y57043D01*
X33826Y56979D01*
X33801Y56914D01*
X33780Y56848D01*
X33762Y56780D01*
X33749Y56712D01*
X33739Y56643D01*
X33733Y56574D01*
X33731Y56504D01*
X33733Y56434D01*
X33739Y56365D01*
X33749Y56296D01*
X33762Y56228D01*
X33780Y56160D01*
X33801Y56094D01*
X33826Y56029D01*
X33854Y55965D01*
X33886Y55903D01*
X33921Y55843D01*
X33960Y55785D01*
X34002Y55730D01*
X34047Y55676D01*
X34095Y55626D01*
X34145Y55578D01*
X34199Y55533D01*
X34254Y55491D01*
X34312Y55452D01*
X34372Y55417D01*
X34434Y55385D01*
X34498Y55357D01*
X34563Y55332D01*
X34629Y55311D01*
X34697Y55293D01*
X34765Y55280D01*
X34834Y55270D01*
X34903Y55264D01*
X34973Y55262D01*
X36215Y55262D01*
X31599Y52468D02*
X31599Y52158D01*
X31599Y52468D02*
X31288Y52468D01*
X31288Y52158D01*
X31599Y52158D01*
X29155Y52158D02*
X27603Y52158D01*
X27526Y52160D01*
X27448Y52166D01*
X27372Y52175D01*
X27295Y52189D01*
X27220Y52206D01*
X27146Y52227D01*
X27072Y52252D01*
X27000Y52280D01*
X26930Y52312D01*
X26861Y52347D01*
X26794Y52386D01*
X26729Y52428D01*
X26666Y52473D01*
X26605Y52521D01*
X26547Y52572D01*
X26492Y52626D01*
X26439Y52683D01*
X26390Y52742D01*
X26343Y52804D01*
X26299Y52868D01*
X26259Y52934D01*
X26222Y53002D01*
X26188Y53072D01*
X26158Y53143D01*
X26132Y53216D01*
X26109Y53290D01*
X26090Y53365D01*
X26075Y53440D01*
X26063Y53517D01*
X26055Y53594D01*
X26051Y53671D01*
X26051Y53749D01*
X26055Y53826D01*
X26063Y53903D01*
X26075Y53980D01*
X26090Y54055D01*
X26109Y54130D01*
X26132Y54204D01*
X26158Y54277D01*
X26188Y54348D01*
X26222Y54418D01*
X26259Y54486D01*
X26299Y54552D01*
X26343Y54616D01*
X26390Y54678D01*
X26439Y54737D01*
X26492Y54794D01*
X26547Y54848D01*
X26605Y54899D01*
X26666Y54947D01*
X26729Y54992D01*
X26794Y55034D01*
X26861Y55073D01*
X26930Y55108D01*
X27000Y55140D01*
X27072Y55168D01*
X27146Y55193D01*
X27220Y55214D01*
X27295Y55231D01*
X27372Y55245D01*
X27448Y55254D01*
X27526Y55260D01*
X27603Y55262D01*
X27293Y57746D02*
X29155Y57746D01*
X27293Y57746D02*
X27223Y57744D01*
X27154Y57738D01*
X27085Y57728D01*
X27017Y57715D01*
X26949Y57697D01*
X26883Y57676D01*
X26818Y57651D01*
X26754Y57623D01*
X26692Y57591D01*
X26632Y57556D01*
X26574Y57517D01*
X26519Y57475D01*
X26465Y57430D01*
X26415Y57382D01*
X26367Y57332D01*
X26322Y57278D01*
X26280Y57223D01*
X26241Y57165D01*
X26206Y57105D01*
X26174Y57043D01*
X26146Y56979D01*
X26121Y56914D01*
X26100Y56848D01*
X26082Y56780D01*
X26069Y56712D01*
X26059Y56643D01*
X26053Y56574D01*
X26051Y56504D01*
X26053Y56434D01*
X26059Y56365D01*
X26069Y56296D01*
X26082Y56228D01*
X26100Y56160D01*
X26121Y56094D01*
X26146Y56029D01*
X26174Y55965D01*
X26206Y55903D01*
X26241Y55843D01*
X26280Y55785D01*
X26322Y55730D01*
X26367Y55676D01*
X26415Y55626D01*
X26465Y55578D01*
X26519Y55533D01*
X26574Y55491D01*
X26632Y55452D01*
X26692Y55417D01*
X26754Y55385D01*
X26818Y55357D01*
X26883Y55332D01*
X26949Y55311D01*
X27017Y55293D01*
X27085Y55280D01*
X27154Y55270D01*
X27223Y55264D01*
X27293Y55262D01*
X28534Y55262D01*
X23979Y57746D02*
X22117Y52158D01*
X20254Y57746D01*
X41651Y67400D02*
X41653Y67330D01*
X41659Y67261D01*
X41669Y67192D01*
X41682Y67124D01*
X41700Y67056D01*
X41721Y66990D01*
X41746Y66925D01*
X41774Y66861D01*
X41806Y66799D01*
X41841Y66739D01*
X41880Y66681D01*
X41922Y66626D01*
X41967Y66572D01*
X42015Y66522D01*
X42065Y66474D01*
X42119Y66429D01*
X42174Y66387D01*
X42232Y66348D01*
X42292Y66313D01*
X42354Y66281D01*
X42418Y66253D01*
X42483Y66228D01*
X42549Y66207D01*
X42617Y66189D01*
X42685Y66176D01*
X42754Y66166D01*
X42823Y66160D01*
X42893Y66158D01*
X42992Y66160D01*
X43090Y66165D01*
X43188Y66175D01*
X43286Y66188D01*
X43383Y66204D01*
X43480Y66224D01*
X43575Y66248D01*
X43670Y66276D01*
X43764Y66307D01*
X43856Y66341D01*
X43947Y66379D01*
X44037Y66420D01*
X44125Y66465D01*
X44211Y66513D01*
X44295Y66564D01*
X44377Y66618D01*
X44458Y66676D01*
X44536Y66736D01*
X44611Y66799D01*
X44685Y66865D01*
X44755Y66934D01*
X44600Y70504D02*
X44598Y70574D01*
X44592Y70643D01*
X44582Y70712D01*
X44569Y70780D01*
X44551Y70848D01*
X44530Y70914D01*
X44505Y70979D01*
X44477Y71043D01*
X44445Y71105D01*
X44410Y71165D01*
X44371Y71223D01*
X44329Y71278D01*
X44284Y71332D01*
X44236Y71382D01*
X44186Y71430D01*
X44132Y71475D01*
X44077Y71517D01*
X44019Y71556D01*
X43959Y71591D01*
X43897Y71623D01*
X43833Y71651D01*
X43768Y71676D01*
X43702Y71697D01*
X43634Y71715D01*
X43566Y71728D01*
X43497Y71738D01*
X43428Y71744D01*
X43358Y71746D01*
X43264Y71744D01*
X43171Y71738D01*
X43078Y71729D01*
X42985Y71716D01*
X42893Y71699D01*
X42802Y71679D01*
X42711Y71654D01*
X42622Y71627D01*
X42534Y71595D01*
X42447Y71560D01*
X42361Y71522D01*
X42278Y71480D01*
X42195Y71435D01*
X42115Y71387D01*
X42037Y71335D01*
X41961Y71280D01*
X43979Y69418D02*
X44038Y69454D01*
X44094Y69494D01*
X44148Y69537D01*
X44200Y69582D01*
X44249Y69631D01*
X44295Y69682D01*
X44338Y69735D01*
X44379Y69791D01*
X44416Y69849D01*
X44451Y69909D01*
X44481Y69970D01*
X44509Y70033D01*
X44533Y70098D01*
X44553Y70164D01*
X44570Y70231D01*
X44583Y70298D01*
X44592Y70366D01*
X44598Y70435D01*
X44600Y70504D01*
X42272Y68486D02*
X42213Y68450D01*
X42157Y68410D01*
X42103Y68367D01*
X42051Y68322D01*
X42002Y68273D01*
X41956Y68222D01*
X41913Y68169D01*
X41872Y68113D01*
X41835Y68055D01*
X41800Y67996D01*
X41770Y67934D01*
X41742Y67871D01*
X41718Y67806D01*
X41698Y67740D01*
X41681Y67673D01*
X41668Y67606D01*
X41659Y67538D01*
X41653Y67469D01*
X41651Y67400D01*
X42272Y68486D02*
X43979Y69418D01*
X39652Y71746D02*
X38410Y66158D01*
X37168Y69883D01*
X35926Y66158D01*
X34685Y71746D01*
X32320Y71746D02*
X32320Y66158D01*
X32320Y71746D02*
X30767Y71746D01*
X30691Y71744D01*
X30615Y71739D01*
X30539Y71729D01*
X30464Y71716D01*
X30390Y71699D01*
X30316Y71679D01*
X30244Y71655D01*
X30173Y71628D01*
X30103Y71597D01*
X30035Y71563D01*
X29969Y71525D01*
X29905Y71484D01*
X29842Y71441D01*
X29782Y71394D01*
X29725Y71344D01*
X29670Y71291D01*
X29617Y71236D01*
X29567Y71179D01*
X29520Y71119D01*
X29477Y71056D01*
X29436Y70992D01*
X29398Y70926D01*
X29364Y70858D01*
X29333Y70788D01*
X29306Y70717D01*
X29282Y70645D01*
X29262Y70571D01*
X29245Y70497D01*
X29232Y70422D01*
X29222Y70346D01*
X29217Y70270D01*
X29215Y70194D01*
X29215Y67710D01*
X29217Y67634D01*
X29222Y67558D01*
X29232Y67482D01*
X29245Y67407D01*
X29262Y67333D01*
X29282Y67259D01*
X29306Y67187D01*
X29333Y67116D01*
X29364Y67046D01*
X29398Y66978D01*
X29436Y66912D01*
X29477Y66848D01*
X29520Y66785D01*
X29567Y66725D01*
X29617Y66668D01*
X29670Y66613D01*
X29725Y66560D01*
X29782Y66510D01*
X29842Y66463D01*
X29905Y66420D01*
X29969Y66379D01*
X30035Y66341D01*
X30103Y66307D01*
X30173Y66276D01*
X30244Y66249D01*
X30316Y66225D01*
X30390Y66205D01*
X30464Y66188D01*
X30539Y66175D01*
X30615Y66165D01*
X30691Y66160D01*
X30767Y66158D01*
X32320Y66158D01*
X26195Y66158D02*
X26195Y71746D01*
X26816Y66158D02*
X25574Y66158D01*
X25574Y71746D02*
X26816Y71746D01*
X23358Y70194D02*
X23358Y67710D01*
X23358Y70194D02*
X23356Y70271D01*
X23350Y70349D01*
X23341Y70425D01*
X23327Y70502D01*
X23310Y70577D01*
X23289Y70651D01*
X23264Y70725D01*
X23236Y70797D01*
X23204Y70867D01*
X23169Y70936D01*
X23130Y71003D01*
X23088Y71068D01*
X23043Y71131D01*
X22995Y71192D01*
X22944Y71250D01*
X22890Y71305D01*
X22833Y71358D01*
X22774Y71407D01*
X22712Y71454D01*
X22648Y71498D01*
X22582Y71538D01*
X22514Y71575D01*
X22444Y71609D01*
X22373Y71639D01*
X22300Y71665D01*
X22226Y71688D01*
X22151Y71707D01*
X22076Y71722D01*
X21999Y71734D01*
X21922Y71742D01*
X21845Y71746D01*
X21767Y71746D01*
X21690Y71742D01*
X21613Y71734D01*
X21536Y71722D01*
X21461Y71707D01*
X21386Y71688D01*
X21312Y71665D01*
X21239Y71639D01*
X21168Y71609D01*
X21098Y71575D01*
X21030Y71538D01*
X20964Y71498D01*
X20900Y71454D01*
X20838Y71407D01*
X20779Y71358D01*
X20722Y71305D01*
X20668Y71250D01*
X20617Y71192D01*
X20569Y71131D01*
X20524Y71068D01*
X20482Y71003D01*
X20443Y70936D01*
X20408Y70867D01*
X20376Y70797D01*
X20348Y70725D01*
X20323Y70651D01*
X20302Y70577D01*
X20285Y70502D01*
X20271Y70425D01*
X20262Y70349D01*
X20256Y70271D01*
X20254Y70194D01*
X20254Y67710D01*
X20256Y67633D01*
X20262Y67555D01*
X20271Y67479D01*
X20285Y67402D01*
X20302Y67327D01*
X20323Y67253D01*
X20348Y67179D01*
X20376Y67107D01*
X20408Y67037D01*
X20443Y66968D01*
X20482Y66901D01*
X20524Y66836D01*
X20569Y66773D01*
X20617Y66712D01*
X20668Y66654D01*
X20722Y66599D01*
X20779Y66546D01*
X20838Y66497D01*
X20900Y66450D01*
X20964Y66406D01*
X21030Y66366D01*
X21098Y66329D01*
X21168Y66295D01*
X21239Y66265D01*
X21312Y66239D01*
X21386Y66216D01*
X21461Y66197D01*
X21536Y66182D01*
X21613Y66170D01*
X21690Y66162D01*
X21767Y66158D01*
X21845Y66158D01*
X21922Y66162D01*
X21999Y66170D01*
X22076Y66182D01*
X22151Y66197D01*
X22226Y66216D01*
X22300Y66239D01*
X22373Y66265D01*
X22444Y66295D01*
X22514Y66329D01*
X22582Y66366D01*
X22648Y66406D01*
X22712Y66450D01*
X22774Y66497D01*
X22833Y66546D01*
X22890Y66599D01*
X22944Y66654D01*
X22995Y66712D01*
X23043Y66773D01*
X23088Y66836D01*
X23130Y66901D01*
X23169Y66968D01*
X23204Y67037D01*
X23236Y67107D01*
X23264Y67179D01*
X23289Y67253D01*
X23310Y67327D01*
X23327Y67402D01*
X23341Y67479D01*
X23350Y67555D01*
X23356Y67633D01*
X23358Y67710D01*
X42099Y81400D02*
X42101Y81330D01*
X42107Y81261D01*
X42117Y81192D01*
X42130Y81124D01*
X42148Y81056D01*
X42169Y80990D01*
X42194Y80925D01*
X42222Y80861D01*
X42254Y80799D01*
X42289Y80739D01*
X42328Y80681D01*
X42370Y80626D01*
X42415Y80572D01*
X42463Y80522D01*
X42513Y80474D01*
X42567Y80429D01*
X42622Y80387D01*
X42680Y80348D01*
X42740Y80313D01*
X42802Y80281D01*
X42866Y80253D01*
X42931Y80228D01*
X42997Y80207D01*
X43065Y80189D01*
X43133Y80176D01*
X43202Y80166D01*
X43271Y80160D01*
X43341Y80158D01*
X43440Y80160D01*
X43538Y80165D01*
X43636Y80175D01*
X43734Y80188D01*
X43831Y80204D01*
X43928Y80224D01*
X44023Y80248D01*
X44118Y80276D01*
X44212Y80307D01*
X44304Y80341D01*
X44395Y80379D01*
X44485Y80420D01*
X44573Y80465D01*
X44659Y80513D01*
X44743Y80564D01*
X44825Y80618D01*
X44906Y80676D01*
X44984Y80736D01*
X45059Y80799D01*
X45133Y80865D01*
X45203Y80934D01*
X45049Y84504D02*
X45047Y84574D01*
X45041Y84643D01*
X45031Y84712D01*
X45018Y84780D01*
X45000Y84848D01*
X44979Y84914D01*
X44954Y84979D01*
X44926Y85043D01*
X44894Y85105D01*
X44859Y85165D01*
X44820Y85223D01*
X44778Y85278D01*
X44733Y85332D01*
X44685Y85382D01*
X44635Y85430D01*
X44581Y85475D01*
X44526Y85517D01*
X44468Y85556D01*
X44408Y85591D01*
X44346Y85623D01*
X44282Y85651D01*
X44217Y85676D01*
X44151Y85697D01*
X44083Y85715D01*
X44015Y85728D01*
X43946Y85738D01*
X43877Y85744D01*
X43807Y85746D01*
X43713Y85744D01*
X43620Y85738D01*
X43527Y85729D01*
X43434Y85716D01*
X43342Y85699D01*
X43251Y85679D01*
X43160Y85654D01*
X43071Y85627D01*
X42983Y85595D01*
X42896Y85560D01*
X42810Y85522D01*
X42727Y85480D01*
X42644Y85435D01*
X42564Y85387D01*
X42486Y85335D01*
X42410Y85280D01*
X44428Y83418D02*
X44487Y83454D01*
X44543Y83494D01*
X44597Y83537D01*
X44649Y83582D01*
X44698Y83631D01*
X44744Y83682D01*
X44787Y83735D01*
X44828Y83791D01*
X44865Y83849D01*
X44900Y83909D01*
X44930Y83970D01*
X44958Y84033D01*
X44982Y84098D01*
X45002Y84164D01*
X45019Y84231D01*
X45032Y84298D01*
X45041Y84366D01*
X45047Y84435D01*
X45049Y84504D01*
X42721Y82486D02*
X42662Y82450D01*
X42606Y82410D01*
X42552Y82367D01*
X42500Y82322D01*
X42451Y82273D01*
X42405Y82222D01*
X42362Y82169D01*
X42321Y82113D01*
X42284Y82055D01*
X42249Y81996D01*
X42219Y81934D01*
X42191Y81871D01*
X42167Y81806D01*
X42147Y81740D01*
X42130Y81673D01*
X42117Y81606D01*
X42108Y81538D01*
X42102Y81469D01*
X42100Y81400D01*
X42720Y82486D02*
X44428Y83418D01*
X40100Y85746D02*
X38859Y80158D01*
X37617Y83883D01*
X36375Y80158D01*
X35133Y85746D01*
X31726Y80158D02*
X30484Y80158D01*
X31726Y80158D02*
X31796Y80160D01*
X31865Y80166D01*
X31934Y80176D01*
X32002Y80189D01*
X32070Y80207D01*
X32136Y80228D01*
X32201Y80253D01*
X32265Y80281D01*
X32327Y80313D01*
X32387Y80348D01*
X32445Y80387D01*
X32500Y80429D01*
X32554Y80474D01*
X32604Y80522D01*
X32652Y80572D01*
X32697Y80626D01*
X32739Y80681D01*
X32778Y80739D01*
X32813Y80799D01*
X32845Y80861D01*
X32873Y80925D01*
X32898Y80990D01*
X32919Y81056D01*
X32937Y81124D01*
X32950Y81192D01*
X32960Y81261D01*
X32966Y81330D01*
X32968Y81400D01*
X32967Y81400D02*
X32967Y84504D01*
X32968Y84504D02*
X32966Y84574D01*
X32960Y84643D01*
X32950Y84712D01*
X32937Y84780D01*
X32919Y84848D01*
X32898Y84914D01*
X32873Y84979D01*
X32845Y85043D01*
X32813Y85105D01*
X32778Y85165D01*
X32739Y85223D01*
X32697Y85278D01*
X32652Y85332D01*
X32604Y85382D01*
X32554Y85430D01*
X32500Y85475D01*
X32445Y85517D01*
X32387Y85556D01*
X32327Y85591D01*
X32265Y85623D01*
X32201Y85651D01*
X32136Y85676D01*
X32070Y85697D01*
X32002Y85715D01*
X31934Y85728D01*
X31865Y85738D01*
X31796Y85744D01*
X31726Y85746D01*
X30484Y85746D01*
X28185Y85746D02*
X28185Y80158D01*
X25702Y80158D01*
X23358Y80158D02*
X23358Y85746D01*
X20254Y85746D02*
X23358Y82331D01*
X22117Y83573D02*
X20254Y80158D01*
X38227Y92537D02*
X35743Y99367D01*
X33381Y98746D02*
X33381Y93158D01*
X33381Y98746D02*
X31829Y98746D01*
X31752Y98744D01*
X31674Y98738D01*
X31598Y98729D01*
X31521Y98715D01*
X31446Y98698D01*
X31372Y98677D01*
X31298Y98652D01*
X31226Y98624D01*
X31156Y98592D01*
X31087Y98557D01*
X31020Y98518D01*
X30955Y98476D01*
X30892Y98431D01*
X30831Y98383D01*
X30773Y98332D01*
X30718Y98278D01*
X30665Y98221D01*
X30616Y98162D01*
X30569Y98100D01*
X30525Y98036D01*
X30485Y97970D01*
X30448Y97902D01*
X30414Y97832D01*
X30384Y97761D01*
X30358Y97688D01*
X30335Y97614D01*
X30316Y97539D01*
X30301Y97464D01*
X30289Y97387D01*
X30281Y97310D01*
X30277Y97233D01*
X30277Y97155D01*
X30281Y97078D01*
X30289Y97001D01*
X30301Y96924D01*
X30316Y96849D01*
X30335Y96774D01*
X30358Y96700D01*
X30384Y96627D01*
X30414Y96556D01*
X30448Y96486D01*
X30485Y96418D01*
X30525Y96352D01*
X30569Y96288D01*
X30616Y96226D01*
X30665Y96167D01*
X30718Y96110D01*
X30773Y96056D01*
X30831Y96005D01*
X30892Y95957D01*
X30955Y95912D01*
X31020Y95870D01*
X31087Y95831D01*
X31156Y95796D01*
X31226Y95764D01*
X31298Y95736D01*
X31372Y95711D01*
X31446Y95690D01*
X31521Y95673D01*
X31598Y95659D01*
X31674Y95650D01*
X31752Y95644D01*
X31829Y95642D01*
X33381Y95642D01*
X31518Y95642D02*
X30276Y93158D01*
X26744Y93158D02*
X26744Y98746D01*
X28296Y98746D02*
X25192Y98746D01*
X20254Y94400D02*
X20256Y94330D01*
X20262Y94261D01*
X20272Y94192D01*
X20285Y94124D01*
X20303Y94056D01*
X20324Y93990D01*
X20349Y93925D01*
X20377Y93861D01*
X20409Y93799D01*
X20444Y93739D01*
X20483Y93681D01*
X20525Y93626D01*
X20570Y93572D01*
X20618Y93522D01*
X20668Y93474D01*
X20722Y93429D01*
X20777Y93387D01*
X20835Y93348D01*
X20895Y93313D01*
X20957Y93281D01*
X21021Y93253D01*
X21086Y93228D01*
X21152Y93207D01*
X21220Y93189D01*
X21288Y93176D01*
X21357Y93166D01*
X21426Y93160D01*
X21496Y93158D01*
X21595Y93160D01*
X21693Y93165D01*
X21791Y93175D01*
X21889Y93188D01*
X21986Y93204D01*
X22083Y93224D01*
X22178Y93248D01*
X22273Y93276D01*
X22367Y93307D01*
X22459Y93341D01*
X22550Y93379D01*
X22640Y93420D01*
X22728Y93465D01*
X22814Y93513D01*
X22898Y93564D01*
X22980Y93618D01*
X23061Y93676D01*
X23139Y93736D01*
X23214Y93799D01*
X23288Y93865D01*
X23358Y93934D01*
X23203Y97504D02*
X23201Y97574D01*
X23195Y97643D01*
X23185Y97712D01*
X23172Y97780D01*
X23154Y97848D01*
X23133Y97914D01*
X23108Y97979D01*
X23080Y98043D01*
X23048Y98105D01*
X23013Y98165D01*
X22974Y98223D01*
X22932Y98278D01*
X22887Y98332D01*
X22839Y98382D01*
X22789Y98430D01*
X22735Y98475D01*
X22680Y98517D01*
X22622Y98556D01*
X22562Y98591D01*
X22500Y98623D01*
X22436Y98651D01*
X22371Y98676D01*
X22305Y98697D01*
X22237Y98715D01*
X22169Y98728D01*
X22100Y98738D01*
X22031Y98744D01*
X21961Y98746D01*
X21867Y98744D01*
X21774Y98738D01*
X21681Y98729D01*
X21588Y98716D01*
X21496Y98699D01*
X21405Y98679D01*
X21314Y98654D01*
X21225Y98627D01*
X21137Y98595D01*
X21050Y98560D01*
X20964Y98522D01*
X20881Y98480D01*
X20798Y98435D01*
X20718Y98387D01*
X20640Y98335D01*
X20564Y98280D01*
X22582Y96418D02*
X22641Y96454D01*
X22697Y96494D01*
X22751Y96537D01*
X22803Y96582D01*
X22852Y96631D01*
X22898Y96682D01*
X22941Y96735D01*
X22982Y96791D01*
X23019Y96849D01*
X23054Y96909D01*
X23084Y96970D01*
X23112Y97033D01*
X23136Y97098D01*
X23156Y97164D01*
X23173Y97231D01*
X23186Y97298D01*
X23195Y97366D01*
X23201Y97435D01*
X23203Y97504D01*
X20875Y95486D02*
X20816Y95450D01*
X20760Y95410D01*
X20706Y95367D01*
X20654Y95322D01*
X20605Y95273D01*
X20559Y95222D01*
X20516Y95169D01*
X20475Y95113D01*
X20438Y95055D01*
X20403Y94996D01*
X20373Y94934D01*
X20345Y94871D01*
X20321Y94806D01*
X20301Y94740D01*
X20284Y94673D01*
X20271Y94606D01*
X20262Y94538D01*
X20256Y94469D01*
X20254Y94400D01*
X20875Y95486D02*
X22582Y96418D01*
X31958Y111262D02*
X32890Y111262D01*
X31958Y111262D02*
X31958Y108158D01*
X33821Y108158D01*
X33891Y108160D01*
X33960Y108166D01*
X34029Y108176D01*
X34097Y108189D01*
X34165Y108207D01*
X34231Y108228D01*
X34296Y108253D01*
X34360Y108281D01*
X34422Y108313D01*
X34482Y108348D01*
X34540Y108387D01*
X34595Y108429D01*
X34649Y108474D01*
X34699Y108522D01*
X34747Y108572D01*
X34792Y108626D01*
X34834Y108681D01*
X34873Y108739D01*
X34908Y108799D01*
X34940Y108861D01*
X34968Y108925D01*
X34993Y108990D01*
X35014Y109056D01*
X35032Y109124D01*
X35045Y109192D01*
X35055Y109261D01*
X35061Y109330D01*
X35063Y109400D01*
X35063Y112504D01*
X35061Y112574D01*
X35055Y112643D01*
X35045Y112712D01*
X35032Y112780D01*
X35014Y112848D01*
X34993Y112914D01*
X34968Y112979D01*
X34940Y113043D01*
X34908Y113105D01*
X34873Y113165D01*
X34834Y113223D01*
X34792Y113278D01*
X34747Y113332D01*
X34699Y113382D01*
X34649Y113430D01*
X34595Y113475D01*
X34540Y113517D01*
X34482Y113556D01*
X34422Y113591D01*
X34360Y113623D01*
X34296Y113651D01*
X34231Y113676D01*
X34165Y113697D01*
X34097Y113715D01*
X34029Y113728D01*
X33960Y113738D01*
X33891Y113744D01*
X33821Y113746D01*
X31958Y113746D01*
X29211Y113746D02*
X29211Y108158D01*
X26106Y108158D02*
X29211Y113746D01*
X26106Y113746D02*
X26106Y108158D01*
X23358Y108158D02*
X23358Y113746D01*
X21806Y113746D01*
X21730Y113744D01*
X21654Y113739D01*
X21578Y113729D01*
X21503Y113716D01*
X21429Y113699D01*
X21355Y113679D01*
X21283Y113655D01*
X21212Y113628D01*
X21142Y113597D01*
X21074Y113563D01*
X21008Y113525D01*
X20944Y113484D01*
X20881Y113441D01*
X20821Y113394D01*
X20764Y113344D01*
X20709Y113291D01*
X20656Y113236D01*
X20606Y113179D01*
X20559Y113119D01*
X20516Y113056D01*
X20475Y112992D01*
X20437Y112926D01*
X20403Y112858D01*
X20372Y112788D01*
X20345Y112717D01*
X20321Y112645D01*
X20301Y112571D01*
X20284Y112497D01*
X20271Y112422D01*
X20261Y112346D01*
X20256Y112270D01*
X20254Y112194D01*
X20254Y109710D01*
X20256Y109634D01*
X20261Y109558D01*
X20271Y109482D01*
X20284Y109407D01*
X20301Y109333D01*
X20321Y109259D01*
X20345Y109187D01*
X20372Y109116D01*
X20403Y109046D01*
X20437Y108978D01*
X20475Y108912D01*
X20516Y108848D01*
X20559Y108785D01*
X20606Y108725D01*
X20656Y108668D01*
X20709Y108613D01*
X20764Y108560D01*
X20821Y108510D01*
X20881Y108463D01*
X20944Y108420D01*
X21008Y108379D01*
X21074Y108341D01*
X21142Y108307D01*
X21212Y108276D01*
X21283Y108249D01*
X21355Y108225D01*
X21429Y108205D01*
X21503Y108188D01*
X21578Y108175D01*
X21654Y108165D01*
X21730Y108160D01*
X21806Y108158D01*
X23358Y108158D01*
M02*
