G04 EAGLE Gerber RS-274X export*
G75*
%MOMM*%
%FSLAX34Y34*%
%LPD*%
%INSoldermask Top*%
%IPPOS*%
%AMOC8*
5,1,8,0,0,1.08239X$1,22.5*%
G01*
G04 Define Apertures*
%ADD10C,3.327400*%
%ADD11R,0.847200X0.738300*%
%ADD12R,0.703200X1.403200*%
%ADD13R,1.403200X0.703200*%
%ADD14R,1.803400X1.041400*%
%ADD15R,1.803400X3.302000*%
%ADD16R,0.653200X1.703200*%
%ADD17C,1.303200*%
%ADD18R,0.903200X1.103200*%
%ADD19C,0.362303*%
%ADD20R,1.203200X1.303200*%
%ADD21R,1.103200X0.903200*%
%ADD22R,1.303200X0.803200*%
%ADD23R,1.115000X0.815000*%
%ADD24C,0.959600*%
D10*
X25400Y165100D03*
X215900Y165100D03*
D11*
X86360Y169362D03*
X86360Y179512D03*
D12*
X103826Y177015D03*
X111826Y177015D03*
X119826Y177015D03*
X127826Y177015D03*
X135826Y177015D03*
X143826Y177015D03*
D13*
X144826Y166015D03*
D12*
X143826Y155015D03*
X135826Y155015D03*
X127826Y155015D03*
X119826Y155015D03*
X111826Y155015D03*
X103826Y155015D03*
D13*
X102826Y166015D03*
D14*
X161211Y119779D03*
X161211Y96665D03*
X161211Y73551D03*
D15*
X225219Y96665D03*
D16*
X168980Y31660D03*
X175480Y31660D03*
X181980Y31660D03*
X188480Y31660D03*
X194980Y31660D03*
D17*
X206480Y34160D02*
X213480Y34160D01*
X187480Y12660D02*
X176480Y12660D01*
X157480Y34160D02*
X150480Y34160D01*
D18*
X156437Y56080D03*
X169437Y56080D03*
D19*
X41855Y100205D02*
X31745Y100205D01*
X41855Y100205D02*
X41855Y98795D01*
X31745Y98795D01*
X31745Y100205D01*
X31745Y95205D02*
X41855Y95205D01*
X41855Y93795D01*
X31745Y93795D01*
X31745Y95205D01*
X31745Y90205D02*
X41855Y90205D01*
X41855Y88795D01*
X31745Y88795D01*
X31745Y90205D01*
X31745Y85205D02*
X41855Y85205D01*
X41855Y83795D01*
X31745Y83795D01*
X31745Y85205D01*
X31745Y80205D02*
X41855Y80205D01*
X41855Y78795D01*
X31745Y78795D01*
X31745Y80205D01*
X31745Y75205D02*
X41855Y75205D01*
X41855Y73795D01*
X31745Y73795D01*
X31745Y75205D01*
X31745Y70205D02*
X41855Y70205D01*
X41855Y68795D01*
X31745Y68795D01*
X31745Y70205D01*
X31745Y65205D02*
X41855Y65205D01*
X41855Y63795D01*
X31745Y63795D01*
X31745Y65205D01*
X31745Y60205D02*
X41855Y60205D01*
X41855Y58795D01*
X31745Y58795D01*
X31745Y60205D01*
X31745Y55205D02*
X41855Y55205D01*
X41855Y53795D01*
X31745Y53795D01*
X31745Y55205D01*
X31745Y50205D02*
X41855Y50205D01*
X41855Y48795D01*
X31745Y48795D01*
X31745Y50205D01*
X31745Y45205D02*
X41855Y45205D01*
X41855Y43795D01*
X31745Y43795D01*
X31745Y45205D01*
X49795Y35855D02*
X49795Y25745D01*
X49795Y35855D02*
X51205Y35855D01*
X51205Y25745D01*
X49795Y25745D01*
X49795Y29187D02*
X51205Y29187D01*
X51205Y32629D02*
X49795Y32629D01*
X54795Y35855D02*
X54795Y25745D01*
X54795Y35855D02*
X56205Y35855D01*
X56205Y25745D01*
X54795Y25745D01*
X54795Y29187D02*
X56205Y29187D01*
X56205Y32629D02*
X54795Y32629D01*
X59795Y35855D02*
X59795Y25745D01*
X59795Y35855D02*
X61205Y35855D01*
X61205Y25745D01*
X59795Y25745D01*
X59795Y29187D02*
X61205Y29187D01*
X61205Y32629D02*
X59795Y32629D01*
X64795Y35855D02*
X64795Y25745D01*
X64795Y35855D02*
X66205Y35855D01*
X66205Y25745D01*
X64795Y25745D01*
X64795Y29187D02*
X66205Y29187D01*
X66205Y32629D02*
X64795Y32629D01*
X69795Y35855D02*
X69795Y25745D01*
X69795Y35855D02*
X71205Y35855D01*
X71205Y25745D01*
X69795Y25745D01*
X69795Y29187D02*
X71205Y29187D01*
X71205Y32629D02*
X69795Y32629D01*
X74795Y35855D02*
X74795Y25745D01*
X74795Y35855D02*
X76205Y35855D01*
X76205Y25745D01*
X74795Y25745D01*
X74795Y29187D02*
X76205Y29187D01*
X76205Y32629D02*
X74795Y32629D01*
X79795Y35855D02*
X79795Y25745D01*
X79795Y35855D02*
X81205Y35855D01*
X81205Y25745D01*
X79795Y25745D01*
X79795Y29187D02*
X81205Y29187D01*
X81205Y32629D02*
X79795Y32629D01*
X84795Y35855D02*
X84795Y25745D01*
X84795Y35855D02*
X86205Y35855D01*
X86205Y25745D01*
X84795Y25745D01*
X84795Y29187D02*
X86205Y29187D01*
X86205Y32629D02*
X84795Y32629D01*
X89795Y35855D02*
X89795Y25745D01*
X89795Y35855D02*
X91205Y35855D01*
X91205Y25745D01*
X89795Y25745D01*
X89795Y29187D02*
X91205Y29187D01*
X91205Y32629D02*
X89795Y32629D01*
X94795Y35855D02*
X94795Y25745D01*
X94795Y35855D02*
X96205Y35855D01*
X96205Y25745D01*
X94795Y25745D01*
X94795Y29187D02*
X96205Y29187D01*
X96205Y32629D02*
X94795Y32629D01*
X99795Y35855D02*
X99795Y25745D01*
X99795Y35855D02*
X101205Y35855D01*
X101205Y25745D01*
X99795Y25745D01*
X99795Y29187D02*
X101205Y29187D01*
X101205Y32629D02*
X99795Y32629D01*
X104795Y35855D02*
X104795Y25745D01*
X104795Y35855D02*
X106205Y35855D01*
X106205Y25745D01*
X104795Y25745D01*
X104795Y29187D02*
X106205Y29187D01*
X106205Y32629D02*
X104795Y32629D01*
X114145Y43795D02*
X124255Y43795D01*
X114145Y43795D02*
X114145Y45205D01*
X124255Y45205D01*
X124255Y43795D01*
X124255Y48795D02*
X114145Y48795D01*
X114145Y50205D01*
X124255Y50205D01*
X124255Y48795D01*
X124255Y53795D02*
X114145Y53795D01*
X114145Y55205D01*
X124255Y55205D01*
X124255Y53795D01*
X124255Y58795D02*
X114145Y58795D01*
X114145Y60205D01*
X124255Y60205D01*
X124255Y58795D01*
X124255Y63795D02*
X114145Y63795D01*
X114145Y65205D01*
X124255Y65205D01*
X124255Y63795D01*
X124255Y68795D02*
X114145Y68795D01*
X114145Y70205D01*
X124255Y70205D01*
X124255Y68795D01*
X124255Y73795D02*
X114145Y73795D01*
X114145Y75205D01*
X124255Y75205D01*
X124255Y73795D01*
X124255Y78795D02*
X114145Y78795D01*
X114145Y80205D01*
X124255Y80205D01*
X124255Y78795D01*
X124255Y83795D02*
X114145Y83795D01*
X114145Y85205D01*
X124255Y85205D01*
X124255Y83795D01*
X124255Y88795D02*
X114145Y88795D01*
X114145Y90205D01*
X124255Y90205D01*
X124255Y88795D01*
X124255Y93795D02*
X114145Y93795D01*
X114145Y95205D01*
X124255Y95205D01*
X124255Y93795D01*
X124255Y98795D02*
X114145Y98795D01*
X114145Y100205D01*
X124255Y100205D01*
X124255Y98795D01*
X106205Y108145D02*
X106205Y118255D01*
X106205Y108145D02*
X104795Y108145D01*
X104795Y118255D01*
X106205Y118255D01*
X106205Y111587D02*
X104795Y111587D01*
X104795Y115029D02*
X106205Y115029D01*
X101205Y118255D02*
X101205Y108145D01*
X99795Y108145D01*
X99795Y118255D01*
X101205Y118255D01*
X101205Y111587D02*
X99795Y111587D01*
X99795Y115029D02*
X101205Y115029D01*
X96205Y118255D02*
X96205Y108145D01*
X94795Y108145D01*
X94795Y118255D01*
X96205Y118255D01*
X96205Y111587D02*
X94795Y111587D01*
X94795Y115029D02*
X96205Y115029D01*
X91205Y118255D02*
X91205Y108145D01*
X89795Y108145D01*
X89795Y118255D01*
X91205Y118255D01*
X91205Y111587D02*
X89795Y111587D01*
X89795Y115029D02*
X91205Y115029D01*
X86205Y118255D02*
X86205Y108145D01*
X84795Y108145D01*
X84795Y118255D01*
X86205Y118255D01*
X86205Y111587D02*
X84795Y111587D01*
X84795Y115029D02*
X86205Y115029D01*
X81205Y118255D02*
X81205Y108145D01*
X79795Y108145D01*
X79795Y118255D01*
X81205Y118255D01*
X81205Y111587D02*
X79795Y111587D01*
X79795Y115029D02*
X81205Y115029D01*
X76205Y118255D02*
X76205Y108145D01*
X74795Y108145D01*
X74795Y118255D01*
X76205Y118255D01*
X76205Y111587D02*
X74795Y111587D01*
X74795Y115029D02*
X76205Y115029D01*
X71205Y118255D02*
X71205Y108145D01*
X69795Y108145D01*
X69795Y118255D01*
X71205Y118255D01*
X71205Y111587D02*
X69795Y111587D01*
X69795Y115029D02*
X71205Y115029D01*
X66205Y118255D02*
X66205Y108145D01*
X64795Y108145D01*
X64795Y118255D01*
X66205Y118255D01*
X66205Y111587D02*
X64795Y111587D01*
X64795Y115029D02*
X66205Y115029D01*
X61205Y118255D02*
X61205Y108145D01*
X59795Y108145D01*
X59795Y118255D01*
X61205Y118255D01*
X61205Y111587D02*
X59795Y111587D01*
X59795Y115029D02*
X61205Y115029D01*
X56205Y118255D02*
X56205Y108145D01*
X54795Y108145D01*
X54795Y118255D01*
X56205Y118255D01*
X56205Y111587D02*
X54795Y111587D01*
X54795Y115029D02*
X56205Y115029D01*
X51205Y118255D02*
X51205Y108145D01*
X49795Y108145D01*
X49795Y118255D01*
X51205Y118255D01*
X51205Y111587D02*
X49795Y111587D01*
X49795Y115029D02*
X51205Y115029D01*
D20*
X15000Y62500D03*
X15000Y45500D03*
D21*
X164000Y179500D03*
X164000Y166500D03*
D18*
X169500Y137000D03*
X156500Y137000D03*
D21*
X15000Y77500D03*
X15000Y90500D03*
D18*
X87500Y129000D03*
X100500Y129000D03*
D21*
X136000Y94500D03*
X136000Y81500D03*
D18*
X70500Y14000D03*
X83500Y14000D03*
X68500Y129000D03*
X55500Y129000D03*
D22*
X11000Y127000D03*
X11000Y113000D03*
D18*
X24500Y127000D03*
X37500Y127000D03*
X24500Y115000D03*
X37500Y115000D03*
D23*
X125000Y126500D03*
X125000Y111500D03*
D11*
X141000Y121075D03*
X141000Y110925D03*
D24*
X216000Y56000D03*
X227000Y56000D03*
X207000Y125000D03*
X218000Y125000D03*
X229000Y125000D03*
X15000Y19000D03*
X26000Y19000D03*
X37000Y19000D03*
X191000Y56000D03*
X90000Y84000D03*
X201000Y56000D03*
X104000Y91068D03*
X50000Y50000D03*
X74000Y161000D03*
X131000Y141000D03*
X104000Y50000D03*
X73000Y50000D03*
X143000Y141000D03*
X154000Y154000D03*
X86000Y50000D03*
X191000Y107000D03*
X204000Y107000D03*
X191000Y89000D03*
X204000Y89000D03*
X15000Y33000D03*
X59000Y14000D03*
X69000Y141000D03*
X85000Y141000D03*
X74000Y179000D03*
X177000Y179000D03*
X68000Y97000D03*
X68000Y84000D03*
X50000Y97000D03*
X90000Y97000D03*
M02*
